SplineFontDB: 3.2
FontName: ZameroSans-Regular
FullName: Zamero Sans Regular
FamilyName: Zamero Sans
Weight: Regular
Copyright: Copyright (c) 2024, Zamero Type Foundry
UComments: "2024-1-17: Created with FontForge (http://fontforge.org)+AAoACgAK-Instead of Charlie and the Alphabet and Charlie and the Numbers, how about Charlie and the Fonts? :)"
Version: 001.000
ItalicAngle: 0
UnderlinePosition: -100
UnderlineWidth: 50
Ascent: 800
Descent: 200
InvalidEm: 0
LayerCount: 2
Layer: 0 0 "Back" 1
Layer: 1 0 "Fore" 0
XUID: [1021 474 1118879153 20760]
StyleMap: 0x0040
FSType: 0
OS2Version: 0
OS2_WeightWidthSlopeOnly: 0
OS2_UseTypoMetrics: 1
CreationTime: 1705525712
ModificationTime: 1727583563
PfmFamily: 33
TTFWeight: 400
TTFWidth: 5
LineGap: 90
VLineGap: 90
OS2TypoAscent: 0
OS2TypoAOffset: 1
OS2TypoDescent: 0
OS2TypoDOffset: 1
OS2TypoLinegap: 90
OS2WinAscent: 0
OS2WinAOffset: 1
OS2WinDescent: 0
OS2WinDOffset: 1
HheadAscent: 0
HheadAOffset: 1
HheadDescent: 0
HheadDOffset: 1
OS2Vendor: 'ZAM '
Lookup: 1 0 0 "'ss15' Style Set 15 lookup 20" { "'ss15' Style Set 15 lookup 20-1" ("ss15") } ['ss15' ('DFLT' <'dflt' > 'grek' <'dflt' > 'latn' <'dflt' > ) ]
Lookup: 1 0 0 "'ss14' Style Set 14 lookup 19" { "'ss14' Style Set 14 lookup 19-1" ("ss14") } ['ss14' ('DFLT' <'dflt' > 'grek' <'dflt' > 'latn' <'dflt' > ) ]
Lookup: 1 0 0 "'onum' Oldstyle Figures lookup 18" { "'onum' Oldstyle Figures lookup 18-1" ("osf") } ['onum' ('DFLT' <'dflt' > 'grek' <'dflt' > 'latn' <'dflt' > ) ]
Lookup: 1 0 0 "'tnum' Tabular Numbers lookup 17" { "'tnum' Tabular Numbers lookup 17-1" ("tf") } ['tnum' ('DFLT' <'dflt' > 'grek' <'dflt' > 'latn' <'dflt' > ) ]
Lookup: 1 0 0 "'dnom' Denominators lookup 0" { "'dnom' Denominators lookup 0 subtable" ("dnom") } ['dnom' ('DFLT' <'dflt' > 'latn' <'dflt' > ) ]
Lookup: 1 0 0 "'numr' Numerators lookup 0" { "'numr' Numerators lookup 0 subtable" ("numr") } ['numr' ('DFLT' <'dflt' > 'latn' <'dflt' > ) ]

StartChar: I
Encoding: 73 73 0
Width: 434
Flags: W
HStem: 0 110<50 152.5 281.5 384> 30 80<152.5 281.5> 620 111<50 152.5 281.5 384> 620 81<152.5 281.5>
VStem: 152.5 129<30 701>
AnchorPoint: "Anchor-3" 271 0 basechar 0
AnchorPoint: "Anchor-2" 218 0 basechar 0
AnchorPoint: "Anchor-0" 216 731 basechar 0
LayerCount: 2
Fore
SplineSet
384 0 m 1x88
 50 0 l 1
 50 110 l 1
 384 110 l 1
 384 0 l 1x88
384 620 m 5x28
 50 620 l 5
 50 731 l 1
 384 731 l 1
 384 620 l 5x28
152.5 30 m 1x58
 152.5 701 l 1
 281.5 701 l 1
 281.5 30 l 1
 152.5 30 l 1x58
EndSplineSet
Validated: 524293
EndChar

StartChar: O
Encoding: 79 79 1
Width: 797
Flags: W
HStem: -9.99805 117.462<296.741 501.036> 621.659 117.462<296.741 501.036>
VStem: 55 129.849<233.976 495.147> 612.929 129.849<233.976 495.147>
AnchorPoint: "Anchor-3" 471 20 basechar 0
AnchorPoint: "Anchor-2" 398 0 basechar 0
AnchorPoint: "Anchor-0" 399 731 basechar 0
LayerCount: 2
Fore
SplineSet
184.848632812 364.561523438 m 0
 184.848632812 210.392009726 248.952373249 107.463867188 398.888671875 107.463867188 c 0
 548.824970501 107.463867188 612.928710938 210.392009726 612.928710938 364.561523438 c 4
 612.928710938 518.731037146 548.824970501 621.659179688 398.888671875 621.659179688 c 0
 248.952373249 621.659179688 184.848632812 518.731037146 184.848632812 364.561523438 c 0
55 364.561523438 m 0
 55 591.206054688 185.120861123 739.12109375 398.888671875 739.12109375 c 0
 612.656482627 739.12109375 742.77734375 591.206054688 742.77734375 364.561523438 c 0
 742.77734375 137.916992188 612.656482627 -9.998046875 398.888671875 -9.998046875 c 0
 185.120861123 -9.998046875 55 137.916992188 55 364.561523438 c 0
EndSplineSet
Validated: 524289
EndChar

StartChar: H
Encoding: 72 72 2
Width: 719
Flags: W
HStem: 0 21G<75 204 515 644> 305 106<140 564> 711.008 20G<75 204 515 644>
VStem: 75 129<0 305 411 731.008> 140 64<305 411> 515 129<0 305 411 731.008> 515 49<305 411>
AnchorPoint: "Anchor-2" 357 0 basechar 0
AnchorPoint: "Anchor-0" 357 731 basechar 0
LayerCount: 2
Fore
SplineSet
564 305 m 1xea
 140 305 l 1
 140 411 l 1
 564 411 l 1
 564 305 l 1xea
515 0 m 1xe4
 515 731.0078125 l 1
 644 731.0078125 l 5
 644 0 l 5
 515 0 l 1xe4
75 0 m 1xf0
 75 731.0078125 l 1
 204 731.0078125 l 1
 204 0 l 1
 75 0 l 1xf0
EndSplineSet
Validated: 524293
EndChar

StartChar: V
Encoding: 86 86 4
Width: 699
Flags: W
HStem: 0 21G<258.434 450.293> 711.008 20G<25 165.483 533.79 674>
AnchorPoint: "Anchor-2" 354 0.0117188 basechar 0
AnchorPoint: "Anchor-0" 353 731 basechar 0
LayerCount: 2
Fore
SplineSet
265 0 m 1
 25 731.0078125 l 1
 159 731.0078125 l 1
 353.606445312 130.694335938 l 5
 540 731.0078125 l 1
 674 731.0078125 l 1
 444 0 l 1
 265 0 l 1
EndSplineSet
Validated: 524289
EndChar

StartChar: D
Encoding: 68 68 5
Width: 727
Flags: W
HStem: 0 115.352<204 414.579> 615.649 115.358<204 415.024>
VStem: 75 129<115.352 615.649> 542.929 129.849<240.57 488.722>
AnchorPoint: "Anchor-2" 356 0 basechar 0
AnchorPoint: "Anchor-0" 350 731 basechar 0
LayerCount: 2
Fore
SplineSet
75 0 m 1
 75 731.0078125 l 1
 298.888671875 731.0078125 l 2
 495.609624971 731.0078125 672.77734375 631.206054688 672.77734375 364.561523438 c 0
 672.77734375 97.9169921874 494.458235806 -2.39530617563e-14 298.888671875 0 c 2
 75 0 l 1
204 615.649414062 m 1
 204 115.3515625 l 1
 273.888671875 115.461914062 l 6
 427.913921689 115.649205148 542.928710938 160.253441083 542.928710938 364.561523438 c 0
 542.928710938 568.619101274 427.913926254 615.370424864 273.888671875 615.545898438 c 6
 204 615.649414062 l 1
EndSplineSet
Validated: 524289
EndChar

StartChar: U
Encoding: 85 85 6
Width: 719
Flags: W
HStem: -9.99805 117.462<266.117 449.66> 711.008 20G<75 204 511.777 640.777>
VStem: 75 129<177.48 731.008> 511.777 129<177.48 731.008>
AnchorPoint: "Anchor-3" 451 18 basechar 0
AnchorPoint: "Anchor-2" 358 0.0117188 basechar 0
AnchorPoint: "Anchor-0" 362 731 basechar 0
LayerCount: 2
Fore
SplineSet
357.888671875 -9.998046875 m 0
 146.624670373 -9.998046875 75 102.375640235 75 274.561523438 c 2
 75 731.0078125 l 1
 204 731.0078125 l 1
 204 304.561523438 l 2
 204 186.37122073 225.217469946 107.463867188 357.888671875 107.463867188 c 4
 490.559873804 107.463867188 511.77734375 186.37122073 511.77734375 304.561523438 c 2
 511.77734375 731.0078125 l 1
 640.77734375 731.0078125 l 1
 640.77734375 274.561523438 l 2
 640.77734375 102.375640235 569.152673377 -9.998046875 357.888671875 -9.998046875 c 0
EndSplineSet
Validated: 524289
EndChar

StartChar: L
Encoding: 76 76 7
Width: 568
Flags: W
HStem: 0 111<204 544> 711.008 20G<75 204>
VStem: 75 129<111 731.008>
AnchorPoint: "Anchor-2" 308 0 basechar 0
AnchorPoint: "Anchor-0" 139 731 basechar 0
LayerCount: 2
Fore
SplineSet
204 111 m 5
 544 111 l 5
 544 0 l 1
 75 0 l 1
 75 731.0078125 l 1
 204 731.0078125 l 1
 204 111 l 5
EndSplineSet
Validated: 524289
EndChar

StartChar: F
Encoding: 70 70 8
Width: 574
Flags: W
HStem: 0 21G<75 204> 281 115<140 464> 620.008 111<204 524>
VStem: 75 129<0 281 396 620.008> 140 64<281 396>
AnchorPoint: "Anchor-2" 297 0 basechar 0
AnchorPoint: "Anchor-0" 306 731 basechar 0
LayerCount: 2
Fore
SplineSet
464 281 m 5xe8
 140 281 l 1
 140 396 l 1
 464 396 l 5
 464 281 l 5xe8
204 620.0078125 m 1xf0
 204 0 l 1
 75 0 l 1
 75 731.0078125 l 1
 524 731.0078125 l 5
 524 620.0078125 l 5
 204 620.0078125 l 1xf0
EndSplineSet
Validated: 524293
EndChar

StartChar: C
Encoding: 67 67 9
Width: 667
Flags: W
HStem: -9.99805 117.462<314.406 547.636> 621.659 117.462<314.406 527.005>
VStem: 55 136.849<234.374 490.105>
AnchorPoint: "Anchor-0" 406 731 basechar 0
AnchorPoint: "Anchor-2" 406 0 basechar 0
LayerCount: 2
Fore
SplineSet
55 360.561523438 m 0
 55 589.626439045 182.093073751 739.12109375 405.888671875 739.12109375 c 0
 564.484297201 739.12109375 629.681640625 672.891601562 629.681640625 672.891601562 c 1
 583.35546875 564.138671875 l 5
 583.35546875 564.138671875 529.362767145 621.659179688 419.888671875 621.659179688 c 0
 260.145291405 621.659179688 191.848632812 517.129651213 191.848632812 360.561523438 c 0
 191.848632812 208.790623793 260.145291405 107.463867188 419.888671875 107.463867188 c 0
 535.033295902 107.463867188 596.018554688 153.595703125 596.018554688 153.595703125 c 1
 632.827148438 44.595703125 l 1
 632.827148438 44.595703125 563.507037341 -9.998046875 405.888671875 -9.998046875 c 0
 182.093073751 -9.998046875 55 136.337376545 55 360.561523438 c 0
EndSplineSet
Validated: 524289
Substitution2: "'ss12' Style Set 12 lookup 13-1" C.ss12
EndChar

StartChar: E
Encoding: 69 69 10
Width: 579
Flags: W
HStem: 0 111<204 529> 307 116<140 469> 620.008 111<204 529>
VStem: 140 64<307 423>
AnchorPoint: "Anchor-3" 471 0 basechar 0
AnchorPoint: "Anchor-2" 306 0 basechar 0
AnchorPoint: "Anchor-0" 306 731 basechar 0
LayerCount: 2
Fore
SplineSet
469 307 m 5
 140 307 l 1
 140 423 l 1
 469 423 l 5
 469 307 l 5
204 620.0078125 m 1
 204 111 l 1
 529 111 l 5
 529 0 l 5
 75 0 l 1
 75 731.0078125 l 1
 529 731.0078125 l 5
 529 620.0078125 l 5
 204 620.0078125 l 1
EndSplineSet
Validated: 524293
EndChar

StartChar: N
Encoding: 78 78 11
Width: 719
Flags: W
HStem: 0 21G<75 202 499 644> 711.008 20G<75 220.301 517 644>
VStem: 75 127<0 515.005> 517 127<228.6 731.008>
AnchorPoint: "Anchor-2" 365 0 basechar 0
AnchorPoint: "Anchor-0" 363 731 basechar 0
LayerCount: 2
Fore
SplineSet
75 0 m 5
 75 731.0078125 l 5
 208 731.0078125 l 5
 517 228.599609375 l 5
 517 731.0078125 l 5
 644 731.0078125 l 5
 644 0 l 5
 511 0 l 5
 202 515.004882812 l 5
 202 0 l 5
 75 0 l 5
EndSplineSet
Validated: 524289
EndChar

StartChar: M
Encoding: 77 77 12
Width: 830
Flags: W
HStem: 0 21G<75 204 626 755> 711.008 20G<75 233.735 596.265 755>
VStem: 75 129<0 515.005> 626 129<0 515.005>
AnchorPoint: "Anchor-2" 411 0 basechar 0
AnchorPoint: "Anchor-0" 412 731 basechar 0
LayerCount: 2
Fore
SplineSet
75 0 m 1
 75 731.0078125 l 1
 224 731.0078125 l 1
 415 338.599609375 l 1
 606 731.0078125 l 1
 755 731.0078125 l 1
 755 0 l 1
 626 0 l 1
 626 515.004882812 l 5
 465 180 l 1
 365 180 l 1
 204 515.004882812 l 5
 204 0 l 1
 75 0 l 1
EndSplineSet
Validated: 524289
EndChar

StartChar: G
Encoding: 71 71 13
Width: 789
Flags: W
HStem: -9.99805 117.462<302.866 504.175> 301 108<406 546.019 667.827 744> 301 23.5957<546.019 667.827> 621.659 117.462<310.838 529.105>
VStem: 55 136.849<229.515 492.427> 560.481 123.001<161.537 299.62>
AnchorPoint: "Anchor-2" 401 0 basechar 0
AnchorPoint: "Anchor-0" 408 731 basechar 0
LayerCount: 2
Fore
SplineSet
744 301 m 1xdc
 406 301 l 1
 406 409 l 1
 744 409 l 1
 744 301 l 1xdc
55 364.561523438 m 0
 55 591.206054688 188.904668843 739.12109375 408.888671875 739.12109375 c 0
 575.988351259 739.12109375 644.681640625 663.891601562 644.681640625 663.891601562 c 5
 593.35546875 561.138671875 l 5
 593.35546875 561.138671875 534.73859981 621.659179688 415.888671875 621.659179688 c 0
 258.947314789 621.659179688 191.848632812 518.731037146 191.848632812 364.561523438 c 0
 191.848632812 210.392009726 249.474756803 107.463867188 406.888671875 107.463867188 c 0
 516.581971106 107.463867188 560.481445312 159.25907447 560.481445312 237 c 0
 560.481445312 298.264697581 546.018554688 324.595703125 546.018554688 324.595703125 c 1
 667.827148438 324.595703125 l 1xbc
 667.827148438 324.595703125 683.482421875 300.565222287 683.482421875 222 c 0
 683.482421875 93.0859042083 592.211978417 -9.998046875 399.888671875 -9.998046875 c 0
 180.211665901 -9.998046875 55 137.916992188 55 364.561523438 c 0
EndSplineSet
Validated: 524293
Substitution2: "'ss12' Style Set 12 lookup 13-1" G.ss12
Substitution2: "'ss08' Style Set 8 lookup 9-1" G.ss08
EndChar

StartChar: A
Encoding: 65 65 14
Width: 719
Flags: W
HStem: 0 21G<25 165.654 553.068 694> 155 111<162 556> 711.008 20G<277.887 431.387>
AnchorPoint: "Anchor-3" 601 0 basechar 0
AnchorPoint: "Anchor-2" 362 0 basechar 0
AnchorPoint: "Anchor-0" 352 731 basechar 0
LayerCount: 2
Fore
SplineSet
556 155 m 1
 162 155 l 1
 162 266 l 1
 556 266 l 1
 556 155 l 1
424 731.0078125 m 1
 694 0 l 1
 560 0 l 1
 355.393554688 590.313476562 l 5
 159 0 l 1
 25 0 l 1
 285 731.0078125 l 1
 424 731.0078125 l 1
EndSplineSet
Validated: 524293
EndChar

StartChar: P
Encoding: 80 80 15
Width: 665
Flags: W
HStem: 0 21G<75 204> 224 107.352<164 422.278> 619.649 111.358<204 418.001>
VStem: 75 129<0 224 331.352 619.649> 164 40<224 331.352> 485.929 129.849<389.746 560.53>
AnchorPoint: "Anchor-2" 342 0 basechar 0
AnchorPoint: "Anchor-0" 339 731 basechar 0
LayerCount: 2
Fore
SplineSet
164 224 m 1xec
 164 331.3515625 l 1xec
 306.888671875 331.461914062 l 6
 409.388909006 331.619600489 485.928710938 357.193186929 485.928710938 474.561523438 c 0
 485.928710938 592.438026254 409.388920353 619.3979044 306.888671875 619.545898438 c 6
 204 619.649414062 l 1
 204 0 l 1
 75 0 l 1
 75 731.0078125 l 1xf4
 328.888671875 731.0078125 l 6
 479.834707979 731.0078125 615.77734375 661.164588003 615.77734375 474.561523438 c 0
 615.77734375 291.297915868 478.951235081 224 328.888671875 224 c 6
 164 224 l 1xec
EndSplineSet
Validated: 524293
EndChar

StartChar: R
Encoding: 82 82 16
Width: 660
Flags: W
HStem: 0 21G<75 204 501.545 640> 272 111.352<164 414.743> 618.649 112.358<204 419.527>
VStem: 75 129<0 272 383.352 618.649> 164 40<272 383.352> 470.929 129.849<428.455 573.48>
AnchorPoint: "Anchor-2" 342 0.0117188 basechar 0
AnchorPoint: "Anchor-0" 325 731 basechar 0
LayerCount: 2
Back
SplineSet
124 383.3515625 m 1xec
 300.888671875 383.461914062 l 2
 383.403259307 383.509014034 462.928710938 404.697396723 462.928710938 501.561523438 c 0
 462.928710938 596.672668425 383.403268044 618.487535435 300.888671875 618.545898438 c 2
 184 618.649414062 l 1
 184 0 l 1
 55 0 l 1
 55 731.0078125 l 1xf4
 308.888671875 731.0078125 l 2
 457.204101562 731.0078125 590.77734375 670.696715458 590.77734375 509.561523438 c 4
 590.77734375 364.195131811 466.688476562 330.276367188 466.688476562 330.276367188 c 1
 466.688476562 330.276367188 540.174524344 311.767586577 573.702148438 195.399414062 c 2
 630 0 l 1
 492 0 l 1
 447 165 l 2
 420.732434887 256.417062766 391.813913829 266 270 266 c 2
 124 266 l 1
 124 383.3515625 l 1xec
EndSplineSet
Fore
SplineSet
164 383.3515625 m 1xec
 312.888671875 383.461914062 l 2
 403.366351314 383.528973249 470.928710938 404.337776861 470.928710938 499.561523438 c 0
 470.928710938 596.298717118 403.366351375 618.459885327 312.888671875 618.545898438 c 2
 204 618.649414062 l 1
 204 0 l 1
 75 0 l 1
 75 731.0078125 l 1xf4
 328.888671875 731.0078125 l 2
 471.942612028 731.0078125 600.77734375 669.334960938 600.77734375 504.561523438 c 0
 600.77734375 368.825734628 480.688476562 331.276367188 480.688476562 331.276367188 c 1
 480.688476562 331.276367188 549.797805486 313.073859736 577.608398438 216.548828125 c 2
 640 0 l 1
 507 0 l 1
 462 165 l 2
 436.458755773 258.651228832 408.06105702 272 289 272 c 2
 164 272 l 1
 164 383.3515625 l 1xec
EndSplineSet
Validated: 524293
Substitution2: "'ss01' Style Set 1 lookup 2-1" R.ss01
EndChar

StartChar: T
Encoding: 84 84 17
Width: 614
Flags: W
HStem: 0 21G<242.5 371.5> 620 111<50 242.5 371.5 564> 620 81<242.5 371.5>
VStem: 242.5 129<0 701>
AnchorPoint: "Anchor-2" 311 0.0117188 basechar 0
AnchorPoint: "Anchor-0" 310 731 basechar 0
LayerCount: 2
Fore
SplineSet
564 620 m 5xd0
 50 620 l 5
 50 731 l 5
 564 731 l 5
 564 620 l 5xd0
242.5 0 m 5
 242.5 701 l 5
 371.5 701 l 5xb0
 371.5 0 l 5
 242.5 0 l 5
EndSplineSet
Validated: 524293
EndChar

StartChar: Q
Encoding: 81 81 18
Width: 866
Flags: W
HStem: -9.99805 117.462<304.868 505.469> 621.659 117.462<300.73 507.345>
VStem: 55 129.849<236.696 492.427> 622.929 131.849<242.159 492.871>
AnchorPoint: "Anchor-2" 518 0 basechar 0
AnchorPoint: "Anchor-0" 404 731 basechar 0
LayerCount: 2
Fore
SplineSet
55 364.561523438 m 0
 55 591.206054687 187.012764983 739.12109375 403.888671875 739.12109375 c 0
 622.007817223 739.12109375 754.77734375 589.104132899 754.77734375 384.561523438 c 0
 754.77734375 192.628540684 657.938476562 111.598632812 657.938476562 111.598632812 c 1
 724.3161007 112.78125078 806.888671875 126.001953125 806.888671875 126.001953125 c 1
 821.888671875 19.001953125 l 1
 821.888671875 19.001953125 716.311406133 -9.998046875 444 -9.998046875 c 4
 174.693414144 -9.998046875 55 137.916992188 55 364.561523438 c 0
184.848632812 364.561523438 m 0
 184.848632812 210.392009726 254.743903952 107.463867188 403.888671875 107.463867188 c 0
 553.033439798 107.463867188 622.928710938 210.392009726 622.928710938 364.561523438 c 0
 622.928710938 518.731037146 553.033439798 621.659179688 403.888671875 621.659179688 c 0
 254.743903952 621.659179688 184.848632812 518.731037146 184.848632812 364.561523438 c 0
EndSplineSet
Validated: 524289
Substitution2: "'ss10' Style Set 10 lookup 11-1" Q.ss10
Substitution2: "'ss09' Style Set 9 lookup 10-1" Q.ss09
EndChar

StartChar: B
Encoding: 66 66 19
Width: 640
Flags: W
HStem: 0 111.46<199 425.892> 314.656 101.695<164 398.117> 619.649 111.358<199 398.096>
VStem: 164 35<314.656 416.352> 441.929 124.849<455.534 578.151> 464.929 124.849<146.936 273.508>
AnchorPoint: "Anchor-2" 343 0 basechar 0
AnchorPoint: "Anchor-0" 320 731 basechar 0
LayerCount: 2
Fore
SplineSet
476.662109375 376.4375 m 1xf8
 476.662109375 376.4375 589.77734375 342.813198592 589.77734375 206.446289062 c 0xf4
 589.77734375 56.2257093531 465.197709119 -1.54459778301e-14 325.888671875 0 c 2
 75 0 l 1
 75 731.0078125 l 1
 304.888671875 731.0078125 l 2
 442.6809962 731.0078125 566.77734375 674.782103147 566.77734375 524.561523438 c 0
 566.77734375 408.693422378 476.662109375 376.4375 476.662109375 376.4375 c 1xf8
199 111.459960938 m 1
 322.888671875 111.461914062 l 2
 404.118789234 111.462996583 464.928710938 129.7821497 464.928710938 209.446289062 c 0xf4
 464.928710938 295.64754687 395.656295913 314.413192936 302.888671875 314.545898438 c 2
 164 314.65625 l 1
 164 416.3515625 l 1
 280.888671875 416.461914062 l 2
 373.083571042 416.642217406 441.928710938 434.461197038 441.928710938 516.561523438 c 0xf8
 441.928710938 600.290807848 373.083974644 619.472986132 280.888671875 619.545898438 c 2
 199 619.649414062 l 1
 199 111.459960938 l 1
EndSplineSet
Validated: 524293
EndChar

StartChar: J
Encoding: 74 74 20
Width: 432
Flags: W
HStem: -10 109<21.657 198.858> 620.008 111<60 228>
VStem: 228 129<129.455 620.008>
AnchorPoint: "Anchor-2" 175 0 basechar 0
AnchorPoint: "Anchor-0" 209 731 basechar 0
LayerCount: 2
Fore
SplineSet
128 99 m 0
 198.405273438 99 228 132.779543958 228 212 c 2
 228 620.0078125 l 5
 60 620.0078125 l 5
 60 731.0078125 l 1
 357 731.0078125 l 1
 357 201 l 2
 357 74.4647758463 297.5 -10 154 -10 c 0
 68.8764291159 -10 10 10 10 10 c 1
 24 114 l 1
 24 114 67.3388671875 99 128 99 c 0
EndSplineSet
Validated: 524289
EndChar

StartChar: K
Encoding: 75 75 21
Width: 669
Flags: W
HStem: 0 21G<75 204 449.801 639> 711.008 20G<75 204 448.031 629>
VStem: 75 129<0 311 401 731.008> 185 19<311 401>
AnchorPoint: "Anchor-2" 335 0 basechar 0
AnchorPoint: "Anchor-0" 329 731 basechar 0
LayerCount: 2
Fore
SplineSet
468 0 m 5xd0
 185 311 l 1
 185 401 l 1
 465 731.0078125 l 5
 629 731.0078125 l 5
 305 372 l 1
 639 0 l 5
 468 0 l 5xd0
75 0 m 1xe0
 75 731.0078125 l 1
 204 731.0078125 l 1
 204 0 l 1
 75 0 l 1xe0
EndSplineSet
Validated: 524293
EndChar

StartChar: S
Encoding: 83 83 22
Width: 591
Flags: W
HStem: -10 112.462<147.891 370.439> 625.659 113.462<237.522 437.918>
VStem: 69.627 129.312<472.403 592.12> 413.338 123.182<139.397 258.132>
AnchorPoint: "Anchor-2" 292 0.0117188 basechar 0
AnchorPoint: "Anchor-0" 303 731 basechar 0
LayerCount: 2
Fore
SplineSet
283.3828125 308.140625 m 0
 119.96800865 354.665847073 69.626953125 417.983837751 69.626953125 523 c 0
 69.626953125 654.465462115 164.073232582 739.12109375 319.233398438 739.12109375 c 0
 453.46502461 739.12109375 518.745117188 688.891601562 518.745117188 688.891601562 c 1
 476.37109375 583.138671875 l 1
 476.37109375 583.138671875 421.863511408 625.659179688 336.36328125 625.659179688 c 0
 241.567466428 625.659179688 198.938476562 593.573583222 198.938476562 533 c 0
 198.938476562 480.562886091 224.279308589 451.377097383 321.997070312 424.081054688 c 0
 479.074056386 380.203871638 536.51953125 314.125262591 536.51953125 204 c 0
 536.51953125 72.114856067 448.535382434 -10 283.8046875 -10 c 0
 142.429383601 -10 52.81640625 42.2294921875 52.81640625 42.2294921875 c 1
 89.97265625 150.982421875 l 1
 89.97265625 150.982421875 167.382072776 102.461914062 266.696289062 102.461914062 c 0
 366.041173814 102.461914062 413.337890625 134.961343803 413.337890625 198 c 0
 413.337890625 253.859035265 391.812375057 277.270046825 283.3828125 308.140625 c 0
EndSplineSet
Validated: 524289
EndChar

StartChar: W
Encoding: 87 87 23
Width: 949
Flags: W
HStem: 0 21G<179.65 351.833 590.591 763.514> 711.008 20G<25 155.265 784.023 924>
AnchorPoint: "Anchor-2" 475 0 basechar 0
AnchorPoint: "Anchor-0" 474 731 basechar 0
LayerCount: 2
Fore
SplineSet
184 0 m 1
 25 731.0078125 l 1
 151 731.0078125 l 1
 272.606445312 160.694335938 l 1
 405 671.0078125 l 1
 544 671.0078125 l 1
 674.606445312 160.694335938 l 1
 788 731.0078125 l 1
 924 731.0078125 l 1
 759 0 l 1
 596 0 l 5
 464.5 486.271484375 l 1
 347 0 l 1
 184 0 l 1
EndSplineSet
Validated: 524289
EndChar

StartChar: X
Encoding: 88 88 24
Width: 689
Flags: W
HStem: 0 21G<30 198.447 490.553 659> 711.008 20G<40 200.606 488.394 649>
VStem: 324 41<311 401>
AnchorPoint: "Anchor-2" 352 0 basechar 0
AnchorPoint: "Anchor-0" 344 731 basechar 0
LayerCount: 2
Fore
SplineSet
187 0 m 1
 30 0 l 1
 256 372 l 1
 40 731.0078125 l 1
 190 731.0078125 l 1
 365 401 l 1
 365 311 l 1
 187 0 l 1
502 0 m 5
 324 311 l 5
 324 401 l 5
 499 731.0078125 l 5
 649 731.0078125 l 1
 433 372 l 1
 659 0 l 1
 502 0 l 5
EndSplineSet
Validated: 524293
EndChar

StartChar: Y
Encoding: 89 89 25
Width: 689
Flags: W
HStem: 0 21G<280 409> 282 59<286 403> 711.008 20G<40 189.472 499.528 649>
VStem: 280 129<0 341>
AnchorPoint: "Anchor-2" 345 0 basechar 0
AnchorPoint: "Anchor-0" 346 731 basechar 0
LayerCount: 2
Fore
SplineSet
286 282 m 5
 40 731.0078125 l 1
 179 731.0078125 l 1
 344.5 414.916015625 l 5
 510 731.0078125 l 1
 649 731.0078125 l 1
 403 282 l 5
 286 282 l 5
280 0 m 1
 280 341 l 5
 409 341 l 5
 409 0 l 1
 280 0 l 1
EndSplineSet
Validated: 524293
EndChar

StartChar: Z
Encoding: 90 90 26
Width: 594
Flags: W
HStem: 0 111<210 544> 620 111<60 384>
AnchorPoint: "Anchor-2" 306 0 basechar 0
AnchorPoint: "Anchor-0" 294 731 basechar 0
LayerCount: 2
Fore
SplineSet
544 0 m 1
 50 0 l 1
 50 96 l 1
 384 620 l 1
 60 620 l 1
 60 731 l 1
 534 731 l 5
 534 625 l 5
 210 111 l 1
 544 111 l 1
 544 0 l 1
EndSplineSet
Validated: 1
EndChar

StartChar: ampersand
Encoding: 38 38 27
Width: 754
Flags: W
HStem: -10 109.093<213.171 371.766 541.884 722.956> 636.762 102.23<333.528 488.688>
VStem: 55 120.837<135.734 267.934> 171.551 123.376<437.212 599.818>
LayerCount: 2
Fore
SplineSet
281.267578125 438.821289062 m 1xe0
 311.341796875 360.713867188 l 0
 311.341796875 360.713867188 175.836914062 302.410939632 175.836914062 204 c 0
 175.836914062 137.022498524 218.58460291 99.0927734375 286.900390625 99.0927734375 c 0
 377.000214419 99.0927734375 497.954887343 182.849539389 557.25 451.205078125 c 1
 671.538085938 419.8046875 l 1
 582.4225378 106.417214756 433.225738894 -10 265.928710938 -10 c 0
 132.401486186 -10 55 70.9521484375 55 188.185546875 c 0
 55 371.679192816 281.267578125 438.821289062 281.267578125 438.821289062 c 1xe0
732.451171875 4.5546875 m 1
 732.451171875 4.5546875 703.626708479 -10 626 -10 c 0
 489.802547201 -10 396.999642157 65.1757475783 325 156 c 0
 226.045474601 280.826603631 171.55078125 415.604893974 171.55078125 522 c 0
 171.55078125 663.905888236 256.366089762 738.9921875 397.022460938 738.9921875 c 0
 479.819632214 738.9921875 530.400390625 703.649414062 530.400390625 703.649414062 c 1
 502.5703125 607.848632812 l 1
 502.5703125 607.848632812 457.712192611 636.76171875 404 636.76171875 c 0
 332.190356482 636.76171875 294.926757812 596.655499124 294.926757812 521 c 0xd0
 294.926757812 442.626292686 337.22582078 338.591649937 406.9375 248 c 0
 462.626951874 175.630500573 528.503761059 98.3046875 631.51171875 98.3046875 c 0
 688.829655749 98.3046875 721.62890625 107.5546875 721.62890625 107.5546875 c 1
 732.451171875 4.5546875 l 1
EndSplineSet
Validated: 524293
EndChar

StartChar: i
Encoding: 105 105 28
Width: 269
Flags: W
HStem: 0 21G<75 194> 481.011 20G<75 194> 583.551 146.449<80.5263 188.473>
VStem: 61.8867 145.227<602.347 711.203> 75 119<0 501.011>
AnchorPoint: "Anchor-3" 141 0 basechar 0
AnchorPoint: "Anchor-2" 137 0 basechar 0
LayerCount: 2
Fore
SplineSet
75 0 m 1xe8
 75 501.010742188 l 1
 194 501.010742188 l 1
 194 0 l 1
 75 0 l 1xe8
61.88671875 656.775390625 m 0xf0
 61.88671875 701.136042875 90.5086376795 730 134.499023438 730 c 0
 178.490423077 730 207.11328125 701.136042875 207.11328125 656.775390625 c 0
 207.11328125 612.413936932 178.490423077 583.55078125 134.499023438 583.55078125 c 4
 90.5086376795 583.55078125 61.88671875 612.413936932 61.88671875 656.775390625 c 0xf0
EndSplineSet
Validated: 524289
EndChar

StartChar: o
Encoding: 111 111 29
Width: 589
Flags: W
HStem: -9.99805 102.462<222.019 366.641> 408.284 102.649<222.042 366.665>
VStem: 55 114.849<151.029 352.861> 419.929 114.849<151.029 352.861>
AnchorPoint: "Anchor-3" 357 28 basechar 0
AnchorPoint: "Anchor-2" 294 0 basechar 0
AnchorPoint: "Anchor-0" 294 501.011 basechar 0
LayerCount: 2
Fore
SplineSet
169.848632812 253.561523438 m 0
 169.848632812 156.958747332 206.997899383 92.4638671875 293.888671875 92.4638671875 c 0
 382.180456059 92.4638671875 419.928710938 156.958747332 419.928710938 253.561523438 c 4
 419.928710938 346.341508373 382.213798182 408.284179688 294 408.284179688 c 0
 207.031241506 408.284179688 169.848632812 346.341508373 169.848632812 253.561523438 c 0
55 253.561523438 m 0
 55 409.296356709 145.39088007 510.93359375 293.888671875 510.93359375 c 0
 443.629702136 510.93359375 534.77734375 409.296356709 534.77734375 253.561523438 c 0
 534.77734375 94.0826581126 443.629702136 -9.998046875 293.888671875 -9.998046875 c 0
 145.39088007 -9.998046875 55 94.0826581126 55 253.561523438 c 0
EndSplineSet
Validated: 524289
EndChar

StartChar: n
Encoding: 110 110 30
Width: 595
Flags: W
HStem: 0 21G<75 194 401.777 520.777> 415.284 95.6494<240.933 364.325> 481.011 20G<75 194>
VStem: 75 119<0 501.011> 401.777 119<0 375.417>
AnchorPoint: "Anchor-2" 305 0 basechar 0
AnchorPoint: "Anchor-0" 295 501.011 basechar 0
LayerCount: 2
Fore
SplineSet
194 284 m 4xd8
 139 293.561523438 l 4
 160.874026638 444 212.742126105 510.93359375 342 510.93359375 c 4
 460.06226382 510.93359375 520.77734375 444.084682028 520.77734375 304.561523438 c 6
 520.77734375 0 l 5
 401.77734375 0 l 5
 401.77734375 287.561523438 l 6
 401.77734375 368.469579575 371.136246145 415.284179688 299 415.284179688 c 4
 225.446886177 415.284179688 194 362.725020039 194 284 c 4xd8
75 0 m 1
 75 501.010742188 l 1
 194 501.010742188 l 1xb8
 194 0 l 1
 75 0 l 1
EndSplineSet
Validated: 524293
EndChar

StartChar: m
Encoding: 109 109 31
Width: 882
Flags: W
HStem: 0 21G<75 194 381.777 500.777 688.555 807.555> 415.284 95.6494<229.218 349.168 535.996 655.946> 481.011 20G<75 194>
VStem: 75 119<0 501.011> 381.777 119<0 372.135> 688.555 119<0 381.983>
CounterMasks: 1 1c
AnchorPoint: "Anchor-2" 445 0 basechar 0
AnchorPoint: "Anchor-0" 454 501.011 basechar 0
LayerCount: 2
Fore
SplineSet
500.77734375 284 m 0xdc
 425.77734375 293.561523438 l 4
 448.190139517 444 501.33577838 510.93359375 633.77734375 510.93359375 c 0
 748.537671728 510.93359375 807.5546875 447.323924219 807.5546875 314.561523438 c 2
 807.5546875 0 l 1
 688.5546875 0 l 1
 688.5546875 297.561523438 l 2
 688.5546875 372.134912061 660.894898468 415.284179688 595.77734375 415.284179688 c 0
 529.229288386 415.284179688 500.77734375 362.725020037 500.77734375 284 c 0xdc
194 284 m 0
 119 293.561523438 l 0
 141.412795767 444 194.55843463 510.93359375 327 510.93359375 c 0
 441.760327978 510.93359375 500.77734375 447.323924219 500.77734375 314.561523438 c 2
 500.77734375 0 l 1
 381.77734375 0 l 1
 381.77734375 297.561523438 l 2
 381.77734375 372.134912061 354.117554718 415.284179688 289 415.284179688 c 0
 222.451944636 415.284179688 194 362.725020039 194 284 c 0
75 0 m 1
 75 501.010742188 l 1
 194 501.010742188 l 1xbc
 194 0 l 1
 75 0 l 1
EndSplineSet
Validated: 524293
EndChar

StartChar: p
Encoding: 112 112 32
Width: 602
Flags: W
HStem: -9.99805 101.462<244.753 383.348> 410.284 100.649<247.553 384.552> 481.011 20G<75 194>
VStem: 75 119<-180 501.011> 126.151 67.8486<66.4394 183.562> 151.151 42.8486<283.562 425.747> 434.08 114.849<149.224 354.935>
AnchorPoint: "Anchor-2" 136 -179.988 basechar 0
AnchorPoint: "Anchor-0" 294 501.011 basechar 0
LayerCount: 2
Fore
SplineSet
75 -180 m 5xb2
 75 501.010742188 l 5
 194 501.010742188 l 5
 194 -180 l 5
 75 -180 l 5xb2
194 213.561523438 m 5
 194 154.076265388 231.14926657 91.4638671875 318.040039062 91.4638671875 c 4
 399.326764787 91.4638671875 434.080078125 156.359093815 434.080078125 253.561523438 c 4
 434.080078125 347.540815406 399.36010691 410.284179688 318.151367188 410.284179688 c 4
 231.182608693 410.284179688 194 359.551209904 194 283.561523438 c 5xd2
 151.151367188 283.561523438 l 5xc6
 151.151367188 425.746590474 223.528865151 510.93359375 335 510.93359375 c 4
 470.888540774 510.93359375 548.928710938 409.296356709 548.928710938 253.561523438 c 4
 548.928710938 94.0826581126 467.240588621 -9.998046875 333.040039062 -9.998046875 c 4
 204.434062557 -9.998046875 126.151367188 66.4393843718 126.151367188 183.561523438 c 5xca
 194 213.561523438 l 5
EndSplineSet
Validated: 524293
EndChar

StartChar: j
Encoding: 106 106 33
Width: 269
Flags: W
HStem: -190 100<-71.4641 55.2538> 481.011 20G<75 194> 583.551 146.449<80.5263 188.473>
VStem: 61.8867 145.227<602.347 711.203> 75 119<-70.5267 501.011>
AnchorPoint: "Anchor-2" 17 -179.988 basechar 0
LayerCount: 2
Fore
SplineSet
75 -6 m 6xe8
 75 501.010742188 l 5
 194 501.010742188 l 5
 194 -9 l 6
 194 -117.943127962 145.051724138 -190 27 -190 c 4
 -38.0249499809 -190 -83 -172 -83 -172 c 5
 -69 -78 l 5
 -69 -78 -42.7466477614 -90 -6 -90 c 4
 51.0282714843 -90 75 -64.6987951807 75 -6 c 6xe8
61.88671875 656.775390625 m 0xf0
 61.88671875 701.136042875 90.5086376795 730 134.499023438 730 c 0
 178.490423077 730 207.11328125 701.136042875 207.11328125 656.775390625 c 0
 207.11328125 612.413936932 178.490423077 583.55078125 134.499023438 583.55078125 c 0
 90.5086376795 583.55078125 61.88671875 612.413936932 61.88671875 656.775390625 c 0xf0
EndSplineSet
Validated: 524289
EndChar

StartChar: k
Encoding: 107 107 34
Width: 555
Flags: W
HStem: 0 21G<75 194 356.9 525> 481.011 20G<353.239 515> 731.002 20G<75 194>
VStem: 75 119<0 221 291 751.002> 175 19<221 291>
AnchorPoint: "Anchor-2" 275 0 basechar 0
AnchorPoint: "Anchor-0" 134 749.002 basechar 0
LayerCount: 2
Fore
SplineSet
375 0 m 1xe8
 175 221 l 1
 175 291 l 5
 372 501.010742188 l 1
 515 501.010742188 l 1
 285 265 l 1
 525 0 l 1
 375 0 l 1xe8
75 0 m 1xf0
 75 751.001953125 l 1
 194 751.001953125 l 1
 194 0 l 1
 75 0 l 1xf0
EndSplineSet
Validated: 524293
EndChar

StartChar: l
Encoding: 108 108 35
Width: 371
Flags: W
HStem: -10.0088 104<213.085 323.088> 731.002 20G<75 194>
VStem: 75 119<115.425 751.002>
AnchorPoint: "Anchor-2" 240 0 basechar 0
AnchorPoint: "Anchor-0" 134 749.002 basechar 0
LayerCount: 2
Fore
SplineSet
194 191.991210938 m 2
 194 123.509283226 216.491992187 93.9912109375 270 93.9912109375 c 0
 299.747286284 93.9912109375 321 104.991210938 321 104.991210938 c 5
 335 5.9912109375 l 5
 335 5.9912109375 295.749047257 -10.0087890625 239 -10.0087890625 c 0
 123.068965517 -10.0087890625 75 58.0670403212 75 160.991210938 c 2
 75 751.001953125 l 1
 194 751.001953125 l 1
 194 191.991210938 l 2
EndSplineSet
Validated: 524289
EndChar

StartChar: h
Encoding: 104 104 36
Width: 595
Flags: W
HStem: 0 21G<75 194 401.777 520.777> 415.284 95.6494<240.933 364.325> 731.002 20G<75 194>
VStem: 75 119<0 751.002> 401.777 119<0 375.417>
AnchorPoint: "Anchor-2" 299 0 basechar 0
AnchorPoint: "Anchor-0" 134 751.004 basechar 0
LayerCount: 2
Fore
SplineSet
75 0 m 1
 75 751.001953125 l 1
 194 751.001953125 l 1
 194 0 l 1
 75 0 l 1
194 284 m 0
 139 293.561523438 l 4
 160.874026638 444 212.742126105 510.93359375 342 510.93359375 c 0
 460.06226382 510.93359375 520.77734375 444.084682028 520.77734375 304.561523438 c 2
 520.77734375 0 l 1
 401.77734375 0 l 1
 401.77734375 287.561523438 l 2
 401.77734375 368.469579575 371.136246145 415.284179688 299 415.284179688 c 0
 225.446886177 415.284179688 194 362.725020039 194 284 c 0
EndSplineSet
Validated: 524293
EndChar

StartChar: q
Encoding: 113 113 37
Width: 602
Flags: W
HStem: -9.99805 101.462<225.73 370.028> 410.284 100.649<227.387 368.757> 481.011 20G<413 532>
VStem: 58.0713 114.849<150.71 353.498> 413 119<-180 501.011> 413 67.8486<66.4394 183.562 283.562 425.747>
AnchorPoint: "Anchor-2" 477 -179.988 basechar 0
AnchorPoint: "Anchor-0" 308 501.011 basechar 0
LayerCount: 2
Fore
SplineSet
532 -180 m 1xb8
 413 -180 l 1
 413 501.010742188 l 1
 532 501.010742188 l 1
 532 -180 l 1xb8
413 205.561523438 m 1
 480.848632812 183.561523438 l 1xd4
 480.848632812 66.4393843716 402.565937444 -9.998046875 273.959960938 -9.998046875 c 0
 139.759411378 -9.998046875 58.0712890625 94.0826581124 58.0712890625 253.561523438 c 0
 58.0712890625 409.296356709 136.111459226 510.93359375 272 510.93359375 c 0
 395.597538309 510.93359375 475.848632812 425.746590474 475.848632812 283.561523438 c 1
 413 275.561523438 l 1
 413 356.348438038 378.812332848 410.284179688 298.848632812 410.284179688 c 0xd8
 210.634834631 410.284179688 172.919921875 347.540815405 172.919921875 253.561523438 c 0
 172.919921875 156.359093815 210.668176753 91.4638671875 298.959960938 91.4638671875 c 4
 378.84567497 91.4638671875 413 149.973818209 413 205.561523438 c 1
EndSplineSet
Validated: 524293
EndChar

StartChar: g
Encoding: 103 103 38
Width: 602
Flags: W
HStem: -190 99<155.72 367.758> 20.002 96.4619<223.021 368.305> 415.284 95.6494<224.023 368.106> 481.011 20G<413 532>
VStem: 58.0713 114.849<171.778 359.532> 413 119<-44.1238 39 223.562 501.011> 413 67.8486<100.388 223.562 293.562 429.493>
AnchorPoint: "Anchor-2" 295 -179.988 basechar 0
AnchorPoint: "Anchor-0" 308 501.011 basechar 0
LayerCount: 2
Fore
SplineSet
413 39 m 2xdc
 413 501.010742188 l 1
 532 501.010742188 l 1
 532 31 l 2
 532 -102.018957346 462.534482759 -190 295 -190 c 0
 172.634866854 -190 88 -148 88 -148 c 1
 112 -49 l 5
 112 -49 179.925339919 -91 275 -91 c 0
 372.159277343 -91 413 -51.8433734941 413 39 c 2xdc
413 235.561523438 m 1
 480.848632812 223.561523438 l 1xea
 480.848632812 100.388423477 410.565937444 20.001953125 273.959960938 20.001953125 c 0
 129.759411378 20.001953125 58.0712890625 115.39477208 58.0712890625 261.561523438 c 0
 58.0712890625 412.455587994 126.111459226 510.93359375 272 510.93359375 c 0
 403.597538309 510.93359375 475.848632812 429.493180948 475.848632812 293.561523438 c 1
 413 285.561523438 l 1
 413 363.350170455 375.206822428 415.284179688 294.848632812 415.284179688 c 0xec
 209.436858015 415.284179688 172.919921875 354.942894305 172.919921875 264.561523438 c 0
 172.919921875 175.754243048 210.668176753 116.463867188 298.959960938 116.463867188 c 0
 378.84567497 116.463867188 413 177.537847696 413 235.561523438 c 1
EndSplineSet
Substitution2: "'ss14' Style Set 14 lookup 19-1" g.ss14
EndChar

StartChar: f
Encoding: 102 102 39
Width: 398
Flags: W
HStem: 0 21G<115 234> 408 93.0107<34 362> 666.011 95<262.345 390.465>
VStem: 115 119<0 638.384>
AnchorPoint: "Anchor-2" 173 0 basechar 0
AnchorPoint: "Anchor-0" 296 752.002 basechar 0
LayerCount: 2
Fore
SplineSet
34 501.010742188 m 5
 362 501.010742188 l 5
 362 408 l 5
 34 408 l 5
 34 501.010742188 l 5
234 557.010742188 m 6
 234 0 l 5
 115 0 l 5
 115 570.010742188 l 6
 115 684.97265625 166.879159066 761.010742188 292 761.010742188 c 4
 357.024939904 761.010742188 402 745.010742188 402 745.010742188 c 5
 388 655.010742188 l 5
 388 655.010742188 362.996582031 666.010742188 328 666.010742188 c 4
 261.819415118 666.010742188 234 633.178924979 234 557.010742188 c 6
EndSplineSet
Validated: 524293
EndChar

StartChar: c
Encoding: 99 99 40
Width: 492
Flags: W
HStem: -9.99805 97.4619<238.668 413.936> 411.284 99.6494<232.019 398.118>
VStem: 55 118.849<155.676 349.319>
AnchorPoint: "Anchor-0" 291 501.011 basechar 0
AnchorPoint: "Anchor-2" 297 0 basechar 0
LayerCount: 2
Fore
SplineSet
55 253.561523438 m 0
 55 409.296356709 138.240054618 510.93359375 294.888671875 510.93359375 c 4
 411.672698086 510.93359375 459.681640625 454.704101562 459.681640625 454.704101562 c 5
 424.35546875 370.951171875 l 5
 424.35546875 370.951171875 386.914421905 411.284179688 311 411.284179688 c 4
 214.924665509 411.284179688 173.848632812 348.140468922 173.848632812 253.561523438 c 0
 173.848632812 153.960479747 218.485253234 87.4638671875 322.888671875 87.4638671875 c 4
 388.348419682 87.4638671875 423.018554688 114.595703125 423.018554688 114.595703125 c 5
 455.827148438 28.595703125 l 5
 455.827148438 28.595703125 399.584181373 -9.998046875 301.888671875 -9.998046875 c 4
 140.876136214 -9.998046875 55 94.0826581129 55 253.561523438 c 0
EndSplineSet
Validated: 524289
Substitution2: "'ss12' Style Set 12 lookup 13-1" c.ss12
EndChar

StartChar: t
Encoding: 116 116 41
Width: 412
Flags: W
HStem: -10 98<255.166 359.945> 409 92.0107<34 362>
VStem: 115 119<109.473 651.011>
AnchorPoint: "Anchor-2" 208 0.0117188 basechar 0
AnchorPoint: "Anchor-0" 173 660 basechar 0
LayerCount: 2
Fore
SplineSet
34 501.010742188 m 1
 362 501.010742188 l 1
 362 409 l 1
 34 409 l 1
 34 501.010742188 l 1
234 186 m 2
 234 117.518514554 255.900390625 88 308 88 c 0
 337.163818359 88 358 99 358 99 c 1
 370 6 l 1
 370 6 334.019951923 -10 282 -10 c 0
 146.087170563 -10 115 62.0570343178 115 171 c 2
 115 651.010742188 l 1
 234 671.010742188 l 1
 234 186 l 2
EndSplineSet
Validated: 524293
Substitution2: "'ss11' Style Set 11 lookup 12-1" t.ss11
EndChar

StartChar: r
Encoding: 114 114 42
Width: 420
Flags: W
HStem: 0 21G<75 194> 411.284 99.6494<233.017 376.862> 481.011 20G<75 194>
VStem: 75 119<0 501.011>
AnchorPoint: "Anchor-2" 172 0.0117188 basechar 0
AnchorPoint: "Anchor-0" 235 501.011 basechar 0
LayerCount: 2
Fore
SplineSet
75 0 m 1xb0
 75 501.010742188 l 1
 194 501.010742188 l 1
 194 0 l 1
 75 0 l 1xb0
312 510.93359375 m 4xd0
 378.157902644 510.93359375 397 484.93359375 397 484.93359375 c 1
 371 389.93359375 l 1
 371 389.93359375 342.109033792 411.284179688 298 411.284179688 c 0
 232.648853059 411.284179688 194 368.196533826 194 284 c 1
 139 293.561523438 l 1
 157.550032394 444 201.536214785 510.93359375 312 510.93359375 c 4xd0
EndSplineSet
Validated: 524293
EndChar

StartChar: e
Encoding: 101 101 43
Width: 551
Flags: W
HStem: -9.99805 95.4619<235.629 460.947> 205 91<144 391> 413.284 97.6494<218.319 351.625>
VStem: 144 28.8486<205 296>
AnchorPoint: "Anchor-3" 409 14 basechar 0
AnchorPoint: "Anchor-2" 302 0 basechar 0
AnchorPoint: "Anchor-0" 289 501.011 basechar 0
LayerCount: 2
Fore
SplineSet
55 253.561523438 m 0
 55 409.296356709 143.120595439 510.93359375 287.888671875 510.93359375 c 0
 454.304426619 510.93359375 506.465820312 373.273945545 506.465820312 274.7109375 c 0
 506.465820312 231.674278598 502 205 502 205 c 1
 144 205 l 1
 144 296 l 5
 391 296 l 5
 391 296 390.944923827 300.681229131 390 309 c 4
 383.867385445 362.98934163 357.810313868 413.284179688 282 413.284179688 c 0
 205.538829195 413.284179688 172.848632812 348.539082989 172.848632812 251.561523438 c 0
 172.848632812 143.02347329 217.433793709 85.4638671875 331 85.4638671875 c 0
 411.910830046 85.4638671875 458.018554688 108.595703125 458.018554688 108.595703125 c 1
 476.827148438 13.595703125 l 1
 476.827148438 13.595703125 420.949541407 -9.998046875 323.888671875 -9.998046875 c 0
 138.126919654 -9.998046875 55 94.0826581129 55 253.561523438 c 0
EndSplineSet
Validated: 524293
Substitution2: "'ss03' Style Set 3 lookup 4-1" e.ss03
EndChar

StartChar: d
Encoding: 100 100 44
Width: 602
Flags: W
HStem: -9.99805 100.649<225.11 354.033> 0 21G<413 532> 409.472 101.462<223.514 363.69> 731.002 20G<413 532>
VStem: 58.0713 114.849<146.001 351.712> 413 119<217.374 751.002> 413 42.8486<75.1885 217.374 317.374 434.496>
AnchorPoint: "Anchor-2" 316 0 basechar 0
AnchorPoint: "Anchor-0" 473 750.002 basechar 0
LayerCount: 2
Fore
SplineSet
532 0 m 1x7c
 413 0 l 1x7a
 413 751.001953125 l 1
 532 751.001953125 l 1
 532 0 l 1x7c
413 295.374023438 m 1xbc
 413 350.962047701 377.348684522 409.471679688 293.959960938 409.471679688 c 4
 209.171182274 409.471679688 172.919921875 344.576819365 172.919921875 247.374023438 c 0
 172.919921875 153.394999207 209.136884045 90.6513671875 293.848632812 90.6513671875 c 4
 377.314282317 90.6513671875 413 144.587397121 413 225.374023438 c 1xbc
 455.848632812 217.374023438 l 1xba
 455.848632812 75.1884765625 379.534179688 -9.998046875 262 -9.998046875 c 0
 132.46382968 -9.998046875 58.0712890625 91.6396484373 58.0712890625 247.374023438 c 0
 58.0712890625 406.852539062 135.975375477 510.93359375 263.959960938 510.93359375 c 0
 386.349609375 510.93359375 460.848632812 434.49609375 460.848632812 317.374023438 c 1
 413 295.374023438 l 1xbc
EndSplineSet
Validated: 524293
Substitution2: "'ss05' Style Set 5 lookup 6-1" d.ss05
EndChar

StartChar: b
Encoding: 98 98 45
Width: 602
Flags: W
HStem: -9.99805 100.649<243.69 381.89> 0 21G<75 194> 409.472 101.462<247.938 383.486> 731.002 20G<75 194>
VStem: 75 119<197.374 751.002> 151.151 42.8486<55.1885 197.374 297.374 424.496> 434.08 114.849<146.001 351.712>
AnchorPoint: "Anchor-2" 296 0 basechar 0
AnchorPoint: "Anchor-0" 134 749.002 basechar 0
LayerCount: 2
Fore
SplineSet
75 0 m 1x7a
 75 751.001953125 l 1
 194 751.001953125 l 1x7a
 194 0 l 1x76
 75 0 l 1x7a
194 295.374023438 m 1
 146.151367188 297.374023438 l 1
 146.151367188 424.49609375 220.650390625 510.93359375 343.040039062 510.93359375 c 0
 471.024624523 510.93359375 548.928710938 406.852539062 548.928710938 247.374023438 c 0
 548.928710938 91.6396484373 474.53617032 -9.998046875 345 -9.998046875 c 0
 227.465820312 -9.998046875 151.151367188 55.1884765625 151.151367188 197.374023438 c 1xb6
 194 225.374023438 l 1
 194 144.587397121 229.685717683 90.6513671875 313.151367188 90.6513671875 c 4xba
 397.863115955 90.6513671875 434.080078125 153.394999207 434.080078125 247.374023438 c 0
 434.080078125 344.576819365 397.828817726 409.471679688 313.040039062 409.471679688 c 4
 229.651315478 409.471679688 194 350.962047701 194 295.374023438 c 1
EndSplineSet
Validated: 524293
EndChar

StartChar: a
Encoding: 97 97 46
Width: 566
Flags: W
HStem: -9.99805 95.4619<182.977 316.852 422.348 532.608> 226.284 83.6494<207.242 367.777> 414.011 97<146.217 313.609>
VStem: 45 121.849<100.398 195.319> 351.929 115<99.252 226.284 289.011 376.752> 351.929 44.8486<57.3566 160.562> 351.929 15.8486<226.284 309.934>
AnchorPoint: "Anchor-3" 458 0 basechar 0
AnchorPoint: "Anchor-2" 284 0 basechar 0
AnchorPoint: "Anchor-0" 274 501.011 basechar 0
LayerCount: 2
Back
SplineSet
357.928710938 177.561523438 m 5x7c
 407.77734375 180.561523438 l 5x7a
 407.77734375 65.2546726394 343.443566636 -9.998046875 207.888671875 -9.998046875 c 4
 103.525845263 -9.998046875 40 50 40 141 c 4
 40 286.71747631 179.159368499 309.798279039 373.928710938 309.93359375 c 5
 373.77734375 224.284179688 l 5x79
 214.9215174 224.170106541 164.848632812 210.544945242 164.848632812 148.561523438 c 4
 164.848632812 111.324445486 189.419144912 86.4638671875 246.888671875 86.4638671875 c 4
 313.711369303 86.4638671875 357.928710938 123.027306191 357.928710938 177.561523438 c 5x7c
357.928710938 299.010742188 m 6xbc
 357.928710938 377.97408765 325.670027448 412.010742188 248.928710938 412.010742188 c 4
 170.769677734 412.010742188 114.928710938 368.010742188 114.928710938 368.010742188 c 5
 79.9287109375 467.010742188 l 5
 79.9287109375 467.010742188 159.657226562 511.010742188 274.928710938 511.010742188 c 4
 417.721987032 511.010742188 476.928710938 427.01055301 476.928710938 300.010742188 c 6
 476.928710938 118 l 6
 476.928710938 93.251950046 485.36431245 84 507.928710938 84 c 4
 525.694039812 84 536.928710938 91 536.928710938 91 c 5
 545.928710938 13 l 5
 545.928710938 13 520.8653569 -9.998046875 467.928710938 -9.998046875 c 4
 394.082557091 -9.998046875 357.928710938 33 357.928710938 125 c 6
 357.928710938 299.010742188 l 6xbc
EndSplineSet
Fore
SplineSet
351.928710938 177.561523438 m 1xf8
 396.77734375 160.561523438 l 1xf4
 396.77734375 57.3565944282 339.20237546 -9.998046875 217.888671875 -9.998046875 c 0
 110.417749123 -9.998046875 45 50 45 141 c 0
 45 286.71747631 189.700716977 309.798279039 367.928710938 309.93359375 c 1
 367.77734375 226.284179688 l 1xf2
 235.883950932 226.168600081 166.848632812 212.363503714 166.848632812 149.561523438 c 0
 166.848632812 111.125138453 189.921674141 85.4638671875 243.888671875 85.4638671875 c 4
 308.906001672 85.4638671875 351.928710938 122.428671501 351.928710938 177.561523438 c 1xf8
351.928710938 289.010742188 m 2xf8
 351.928710938 376.359575663 318.190271326 414.010742188 237.928710938 414.010742188 c 0
 166.76899414 414.010742188 115.928710938 375.010742188 115.928710938 375.010742188 c 1
 84.9287109375 467.010742188 l 1
 84.9287109375 467.010742188 156.888807091 511.010742188 260.928710938 511.010742188 c 0
 406.549576657 511.010742188 466.928710938 427.01055301 466.928710938 300.010742188 c 2
 466.928710938 124 l 2
 466.928710938 99.251950046 475.36431245 90 497.928710938 90 c 0
 518.144430001 90 530.928710938 97 530.928710938 97 c 1
 539.928710938 13 l 1
 539.928710938 13 513.580056693 -9.998046875 457.928710938 -9.998046875 c 0
 386.767871777 -9.998046875 351.928710938 33 351.928710938 125 c 2
 351.928710938 289.010742188 l 2xf8
EndSplineSet
Substitution2: "'ss15' Style Set 15 lookup 20-1" a.ss15
Substitution2: "'ss02' Style Set 2 lookup 3-1" a.ss02
EndChar

StartChar: plus
Encoding: 43 43 47
Width: 450
Flags: W
HStem: 310 96<30 420>
VStem: 177 96<163 553>
LayerCount: 2
Fore
SplineSet
273 553 m 5
 273 163 l 5
 177 163 l 1
 177 553 l 1
 273 553 l 5
420 310 m 1
 30 310 l 1
 30 406 l 1
 420 406 l 1
 420 310 l 1
EndSplineSet
Validated: 5
EndChar

StartChar: s
Encoding: 115 115 48
Width: 476
Flags: W
HStem: -9.99805 92.9795<107.889 293.717> 415.904 95.0293<191.16 370.483>
VStem: 59.2041 116.058<321.261 398.599> 307.521 114.169<97.8902 178.195>
AnchorPoint: "Anchor-2" 235 0.0117188 basechar 0
AnchorPoint: "Anchor-0" 257 501.011 basechar 0
LayerCount: 2
Fore
SplineSet
211.846679688 206.568359375 m 4
 92.0406137076 235.397702521 59.2041015625 281.158272312 59.2041015625 355 c 4
 59.2041015625 452.135972615 133.674715576 510.93359375 256.017578125 510.93359375 c 4
 358.49651658 510.93359375 408.334960938 473.225585938 408.334960938 473.225585938 c 5
 383.294921875 387.444335938 l 5
 383.294921875 387.444335938 336.587917531 415.904296875 267.743164062 415.904296875 c 4
 203.950679842 415.904296875 175.26171875 393.939332365 175.26171875 358.518554688 c 4
 175.26171875 329.911376365 194.087188857 312.892680375 257.037109375 296.086914062 c 4
 374.745092716 264.662365074 421.689453125 221.143308275 421.689453125 143.40234375 c 4
 421.689453125 48.8634365132 354.204802572 -9.998046875 227.856445312 -9.998046875 c 4
 120.224601994 -9.998046875 52 26.5625 52 26.5625 c 5
 75.314453125 118.861328125 l 5
 75.314453125 118.861328125 138.062673377 82.9814453125 214.993164062 82.9814453125 c 4
 277.677278828 82.9814453125 307.520507812 101.811891307 307.520507812 138.336914062 c 4
 307.520507812 169.612044724 291.742205592 187.342825899 211.846679688 206.568359375 c 4
EndSplineSet
Validated: 524289
EndChar

StartChar: y
Encoding: 121 121 49
Width: 539
Flags: W
HStem: 481.011 20G<25 156.832 382.924 514>
AnchorPoint: "Anchor-2" 192 -179.994 basechar 0
AnchorPoint: "Anchor-0" 277 501.011 basechar 0
LayerCount: 2
Fore
SplineSet
211 43 m 5
 25 501.010742188 l 1
 149 501.010742188 l 1
 275.606445312 177.694335938 l 1
 390 501.010742188 l 1
 514 501.010742188 l 1
 256 -179.994140625 l 1
 126 -179.994140625 l 1
 211 43 l 5
EndSplineSet
Validated: 524289
Substitution2: "'ss04' Style Set 4 lookup 5-1" y.ss04
EndChar

StartChar: u
Encoding: 117 117 50
Width: 595
Flags: W
HStem: -9.92285 95.6494<231.452 354.844> 0 21G<401.777 520.777> 481.011 20G<75 194 401.777 520.777>
VStem: 75 119<125.594 501.011> 401.777 119<207.449 501.011>
AnchorPoint: "Anchor-3" 464 0 basechar 0
AnchorPoint: "Anchor-2" 312 0.0117188 basechar 0
AnchorPoint: "Anchor-0" 302 501.011 basechar 0
LayerCount: 2
Fore
SplineSet
401.77734375 217.010742188 m 4xb8
 456.77734375 207.44921875 l 4
 434.903317112 57.0107421877 383.035217645 -9.9228515625 253.77734375 -9.9228515625 c 4
 135.71507993 -9.9228515625 75 56.9260601597 75 196.44921875 c 6
 75 501.010742188 l 5
 194 501.010742188 l 5
 194 213.44921875 l 6
 194 132.541162612 224.641097605 85.7265625 296.77734375 85.7265625 c 4
 370.330457573 85.7265625 401.77734375 138.285722149 401.77734375 217.010742188 c 4xb8
520.77734375 501.010742188 m 5
 520.77734375 0 l 5
 401.77734375 0 l 5x78
 401.77734375 501.010742188 l 5
 520.77734375 501.010742188 l 5
EndSplineSet
Validated: 524293
Substitution2: "'ss05' Style Set 5 lookup 6-1" u.ss05
EndChar

StartChar: backslash
Encoding: 92 92 51
Width: 434
Flags: W
LayerCount: 2
Fore
SplineSet
300 -171.469726562 m 5
 25 761.403320312 l 5
 134 761.403320312 l 1
 409 -171.469726562 l 1
 300 -171.469726562 l 5
EndSplineSet
Validated: 524289
EndChar

StartChar: equal
Encoding: 61 61 52
Width: 450
Flags: W
HStem: 230 86<30 420> 400 86<30 420>
LayerCount: 2
Back
SplineSet
420 285 m 5xea
 30 285 l 5
 30 431 l 5
 420 431 l 5
 420 285 l 5xea
EndSplineSet
Fore
SplineSet
420 230 m 1
 30 230 l 1
 30 316 l 1
 420 316 l 1
 420 230 l 1
420 400 m 1
 30 400 l 1
 30 486 l 5
 420 486 l 5
 420 400 l 1
EndSplineSet
Validated: 1
EndChar

StartChar: v
Encoding: 118 118 53
Width: 539
Flags: W
HStem: 0 21G<197.815 350.786> 481.011 20G<25 155.73 383.714 514>
AnchorPoint: "Anchor-2" 273 0.0117188 basechar 0
AnchorPoint: "Anchor-0" 272 501.011 basechar 0
LayerCount: 2
Fore
SplineSet
205 0 m 1
 25 501.010742188 l 1
 149 501.010742188 l 1
 273.606445312 130.694335938 l 1
 390 501.010742188 l 5
 514 501.010742188 l 1
 344 0 l 1
 205 0 l 1
EndSplineSet
Validated: 524289
EndChar

StartChar: w
Encoding: 119 119 54
Width: 735
Flags: W
HStem: 0 21G<143.09 283.527 450.534 590.95> 481.011 20G<25 144.276 590.724 710>
AnchorPoint: "Anchor-2" 370 0 basechar 0
AnchorPoint: "Anchor-0" 368 501.011 basechar 0
LayerCount: 2
Fore
SplineSet
148 0 m 1
 25 501.010742188 l 1
 140 501.010742188 l 1
 216.606445312 142.694335938 l 1
 299 451.010742188 l 1
 436 451.010742188 l 1
 518.393554688 142.694335938 l 5
 595 501.010742188 l 1
 710 501.010742188 l 1
 586 0 l 5
 456 0 l 5
 367.5 323.841796875 l 1
 278 0 l 1
 148 0 l 1
EndSplineSet
Validated: 524289
EndChar

StartChar: x
Encoding: 120 120 55
Width: 528
Flags: W
HStem: 0 21G<25 175.338 352.662 503> 481.011 20G<35 177.523 350.477 493>
VStem: 241 46<201 291>
AnchorPoint: "Anchor-2" 267 0 basechar 0
AnchorPoint: "Anchor-0" 266 501.011 basechar 0
LayerCount: 2
Fore
SplineSet
163 0 m 1
 25 0 l 1
 195 252 l 5
 35 501.010742188 l 1
 166 501.010742188 l 1
 287 291 l 1
 287 201 l 1
 163 0 l 1
365 0 m 1
 241 201 l 1
 241 291 l 1
 362 501.010742188 l 1
 493 501.010742188 l 1
 333 252 l 5
 503 0 l 1
 365 0 l 1
EndSplineSet
Validated: 524293
EndChar

StartChar: z
Encoding: 122 122 56
Width: 478
Flags: W
HStem: 0 100<188 428> 401.011 100<60 280>
AnchorPoint: "Anchor-2" 246 0 basechar 0
AnchorPoint: "Anchor-0" 240 501.011 basechar 0
LayerCount: 2
Fore
SplineSet
428 0 m 1
 50 0 l 1
 50 96 l 1
 280 401.010742188 l 1
 60 401.010742188 l 1
 60 501.010742188 l 1
 418 501.010742188 l 5
 418 405.010742188 l 5
 188 100 l 1
 428 100 l 1
 428 0 l 1
EndSplineSet
Validated: 524289
EndChar

StartChar: period
Encoding: 46 46 57
Width: 245
Flags: W
HStem: -10 146.449<68.6397 176.586>
VStem: 50 145.227<8.79685 117.652>
LayerCount: 2
Fore
SplineSet
50 63.224609375 m 0
 50 107.584937143 78.6222720917 136.44921875 122.612304688 136.44921875 c 0
 166.603358478 136.44921875 195.2265625 107.584937143 195.2265625 63.224609375 c 0
 195.2265625 18.8635145521 166.603358478 -10 122.612304688 -10 c 0
 78.6222720919 -10 50 18.8635145521 50 63.224609375 c 0
EndSplineSet
Validated: 524289
EndChar

StartChar: two
Encoding: 50 50 58
Width: 608
Flags: W
HStem: 0 109<194.813 558.549> 625.599 113.394<180.167 379.161>
VStem: 424.676 126.086<451.659 583.69>
LayerCount: 2
Fore
SplineSet
424.67578125 516 m 0
 424.67578125 579.752695284 388.745084179 625.598632812 283.328125 625.598632812 c 0
 190.214843749 625.598632812 123.538085938 571.754882812 123.538085938 571.754882812 c 1
 72.322265625 675.796875 l 1
 72.322265625 675.796875 159.625976562 738.9921875 286.69140625 738.9921875 c 0
 451.356481891 738.9921875 550.76171875 662.295898438 550.76171875 510.93359375 c 0
 550.76171875 383.273310346 462.435851317 327.470381619 349.374023438 263.0234375 c 4
 206.387867458 181.519175831 196.813476562 138 194.813476562 109 c 1
 558.548828125 109 l 1
 558.548828125 0 l 1
 58 0 l 1
 58 54 l 2
 58 205.194255849 151.900839597 288.39057905 314.821289062 377.876953125 c 0
 379.839113036 413.588917686 424.67578125 459.247773998 424.67578125 516 c 0
EndSplineSet
Validated: 524289
Substitution2: "'onum' Oldstyle Figures lookup 18-1" two.osf
Substitution2: "'tnum' Tabular Numbers lookup 17-1" two.tf
Substitution2: "'numr' Numerators lookup 0 subtable" two.numr
Substitution2: "'dnom' Denominators lookup 0 subtable" two.dnom
Substitution2: "'sups' Superscript lookup 0 subtable" two.superior
Substitution2: "'sinf' Scientific Inferiors lookup 0 subtable" two.inferior
Substitution2: "'sups' Superscript lookup 0 subtable" two.superior
EndChar

StartChar: three
Encoding: 51 51 59
Width: 579
Flags: W
HStem: -9.99805 107.938<120.937 343.66> 321 103.481<164.139 349.298> 626.599 112.394<135.566 341.791>
VStem: 382.984 126.086<456.678 587.038> 393.827 131.084<144.282 277.848>
LayerCount: 2
Fore
SplineSet
255.138671875 424.481445312 m 2xe8
 351.558664586 424.481445312 382.984375 457.789628973 382.984375 524.05859375 c 0
 382.984375 582.34838985 350.431783836 626.598632812 244.63671875 626.598632812 c 0
 146.550434925 626.598632812 86.8466796875 578.754882812 86.8466796875 578.754882812 c 5
 44.630859375 684.796875 l 5
 44.630859375 684.796875 120.495473527 738.9921875 252 738.9921875 c 0
 411.159478056 738.9921875 509.0703125 667.857421875 509.0703125 532.868164062 c 0xf0
 509.0703125 412 400.163085938 375.697265625 400.163085938 375.697265625 c 1
 400.163085938 375.697265625 524.911132812 341 524.911132812 205.670898438 c 0
 524.911132812 51.6816406249 415.013909841 -9.998046875 250 -9.998046875 c 0
 109.204711624 -9.998046875 25.451171875 40.9091796875 25.451171875 40.9091796875 c 1
 58.7744140625 150.262695312 l 1
 58.7744140625 150.262695312 129.329432712 97.939453125 240 97.939453125 c 0
 346.411454516 97.939453125 393.827148438 137.562467751 393.827148438 209 c 0
 393.827148438 284.155574022 346.139008179 320.483366945 255.138671875 320.737304688 c 2
 164 321 l 1
 164.138671875 424.481445312 l 1
 255.138671875 424.481445312 l 2xe8
EndSplineSet
Substitution2: "'onum' Oldstyle Figures lookup 18-1" three.osf
Substitution2: "'tnum' Tabular Numbers lookup 17-1" three.tf
Substitution2: "'numr' Numerators lookup 0 subtable" three.numr
Substitution2: "'dnom' Denominators lookup 0 subtable" three.dnom
Substitution2: "'sups' Superscript lookup 0 subtable" three.superior
Substitution2: "'sinf' Scientific Inferiors lookup 0 subtable" three.inferior
Substitution2: "'sups' Superscript lookup 0 subtable" three.superior
EndChar

StartChar: comma
Encoding: 44 44 61
Width: 252
Flags: W
HStem: -116 252.449
VStem: 50 152.227<12.1123 114.015>
LayerCount: 2
Fore
SplineSet
50 63.224609375 m 0
 50 107.584937143 78.6222720917 136.44921875 122.612304688 136.44921875 c 0
 170.844087308 136.44921875 202.2265625 105.68351681 202.2265625 50 c 0
 202.2265625 -42.9591542887 108 -116 108 -116 c 5
 62 -73 l 5
 62 -73 102.741529914 -41.2623627301 120.948242188 -9.44921875 c 1
 77.608037584 -5.70562162147 50 22.0841971272 50 63.224609375 c 0
EndSplineSet
Validated: 524289
EndChar

StartChar: zero
Encoding: 48 48 63
Width: 683
Flags: W
HStem: -9.99805 109.462<265.96 417.818> 629.659 109.462<265.96 417.818>
VStem: 55 122.849<210.623 518.5> 505.929 122.849<210.623 518.5>
LayerCount: 2
Fore
SplineSet
177.848632812 364.561523438 m 0
 177.848632812 205.594781591 226.977665546 99.4638671875 341.888671875 99.4638671875 c 0
 456.799678204 99.4638671875 505.928710938 205.594781591 505.928710938 364.561523438 c 0
 505.928710938 523.52826528 456.799678204 629.659179688 341.888671875 629.659179688 c 0
 226.977665546 629.659179688 177.848632812 523.52826528 177.848632812 364.561523438 c 0
55 364.561523438 m 0
 55 591.206054688 154.20485925 739.12109375 341.888671875 739.12109375 c 0
 529.5724845 739.12109375 628.77734375 591.206054688 628.77734375 364.561523438 c 0
 628.77734375 137.916992188 529.5724845 -9.998046875 341.888671875 -9.998046875 c 0
 154.20485925 -9.998046875 55 137.916992188 55 364.561523438 c 0
EndSplineSet
Validated: 524289
Substitution2: "'onum' Oldstyle Figures lookup 18-1" zero.osf
Substitution2: "'tnum' Tabular Numbers lookup 17-1" zero.tf
Substitution2: "'numr' Numerators lookup 0 subtable" zero.numr
Substitution2: "'dnom' Denominators lookup 0 subtable" zero.dnom
Substitution2: "'sups' Superscript lookup 0 subtable" zero.superior
Substitution2: "'sinf' Scientific Inferiors lookup 0 subtable" zero.inferior
Substitution2: "'sups' Superscript lookup 0 subtable" zero.superior
EndChar

StartChar: one
Encoding: 49 49 64
Width: 415
Flags: W
HStem: 0 21G<211 340> 711 20G<192.956 340>
VStem: 211 129<0 598>
LayerCount: 2
Fore
SplineSet
340 731 m 5
 340 0 l 5
 211 0 l 5
 211 598 l 5
 78 523 l 5
 30 618 l 5
 228 731 l 5
 340 731 l 5
EndSplineSet
Validated: 1
Substitution2: "'onum' Oldstyle Figures lookup 18-1" one.osf
Substitution2: "'tnum' Tabular Numbers lookup 17-1" one.tf
Substitution2: "'numr' Numerators lookup 0 subtable" one.numr
Substitution2: "'dnom' Denominators lookup 0 subtable" one.dnom
Substitution2: "'sups' Superscript lookup 0 subtable" one.superior
Substitution2: "'sinf' Scientific Inferiors lookup 0 subtable" one.inferior
Substitution2: "'sups' Superscript lookup 0 subtable" one.superior
EndChar

StartChar: four
Encoding: 52 52 65
Width: 660
Flags: W
HStem: 0 21G<385 508> 177 106<195 610> 711 20G<372.383 508>
VStem: 385 123<0 551>
LayerCount: 2
Fore
SplineSet
508 731 m 1
 508 0 l 1
 385 0 l 1
 385 551 l 5
 195 283 l 1
 610 283 l 1
 610 177 l 1
 80 177 l 1
 53 274 l 1
 387 731 l 1
 508 731 l 1
EndSplineSet
Substitution2: "'onum' Oldstyle Figures lookup 18-1" four.osf
Substitution2: "'tnum' Tabular Numbers lookup 17-1" four.tf
Substitution2: "'numr' Numerators lookup 0 subtable" four.numr
Substitution2: "'dnom' Denominators lookup 0 subtable" four.dnom
Substitution2: "'sups' Superscript lookup 0 subtable" four.superior
Substitution2: "'sinf' Scientific Inferiors lookup 0 subtable" four.inferior
Substitution2: "'sups' Superscript lookup 0 subtable" four.superior
EndChar

StartChar: exclam
Encoding: 33 33 66
Width: 274
Flags: W
HStem: -10 146.449<83.0264 190.973> 711.008 20G<77 201>
VStem: 64.3867 145.227<8.79685 117.652> 77 124<503.067 731.008> 93 92<210 437.941>
LayerCount: 2
Fore
SplineSet
93 210 m 5xc8
 77 731.0078125 l 1
 201 731.0078125 l 1xd0
 185 210 l 5
 93 210 l 5xc8
64.38671875 63.224609375 m 0xe0
 64.38671875 107.584937143 93.0089908417 136.44921875 136.999023438 136.44921875 c 0
 180.990077228 136.44921875 209.61328125 107.584937143 209.61328125 63.224609375 c 0
 209.61328125 18.8635145521 180.990077228 -10 136.999023438 -10 c 0
 93.0089908419 -10 64.38671875 18.8635145521 64.38671875 63.224609375 c 0xe0
EndSplineSet
Validated: 524289
EndChar

StartChar: five
Encoding: 53 53 67
Width: 594
Flags: W
HStem: -9.99805 113.893<130.308 353.171> 375.936 105.435<214.737 366.979> 620.841 110.167<207.805 494.672>
VStem: 412.845 126.982<163.365 329.622>
LayerCount: 2
Fore
SplineSet
267 -9.998046875 m 0
 121.815612706 -9.998046875 35.451171875 40.9091796875 35.451171875 40.9091796875 c 1
 67.7744140625 154.262695312 l 1
 67.7744140625 154.262695312 148.394187974 103.89453125 252 103.89453125 c 0
 368.191395264 103.89453125 412.844726562 157.99677167 412.844726562 245.576171875 c 0
 412.844726562 327.221982622 372.463562031 375.935546875 291 375.935546875 c 0
 204.718080017 375.935546875 175 312 175 312 c 5
 71.947265625 341.728515625 l 5
 108 731.0078125 l 1
 494.671875 731.0078125 l 1
 494.671875 620.840820312 l 1
 207.8046875 620.840820312 l 1
 190.470703125 446.322265625 l 1
 190.470703125 446.322265625 219.931353017 481.370117188 314.815429688 481.370117188 c 0
 460.313080735 481.370117188 539.827148438 393.709340257 539.827148438 247.497070312 c 0
 539.827148438 87.8982609935 447.936799939 -9.998046875 267 -9.998046875 c 0
EndSplineSet
Validated: 524289
Substitution2: "'onum' Oldstyle Figures lookup 18-1" five.osf
Substitution2: "'tnum' Tabular Numbers lookup 17-1" five.tf
Substitution2: "'numr' Numerators lookup 0 subtable" five.numr
Substitution2: "'dnom' Denominators lookup 0 subtable" five.dnom
Substitution2: "'sups' Superscript lookup 0 subtable" five.superior
Substitution2: "'sinf' Scientific Inferiors lookup 0 subtable" five.inferior
Substitution2: "'sups' Superscript lookup 0 subtable" five.superior
EndChar

StartChar: six
Encoding: 54 54 68
Width: 640
Flags: W
HStem: -9.99805 107.889<247.7 413.734> 375.891 100.709<247.191 414.795> 628.52 110.473<270.736 479.065>
VStem: 55 118.304<409.747 516.286> 468.398 116.767<154.416 320.257>
LayerCount: 2
Back
SplineSet
188.3984375 236.890625 m 4
 188.3984375 160.019065367 229.88147703 103.890625 330.3984375 103.890625 c 4
 431.623435844 103.890625 473.3984375 160.019065367 473.3984375 236.890625 c 4
 473.3984375 314.340166284 431.623435844 370.890625 330.3984375 370.890625 c 4
 229.88147703 370.890625 188.3984375 314.340166284 188.3984375 236.890625 c 4
173.303710938 405.747070312 m 5
 173.303710938 405.747070312 214.094697864 475.599609375 341.263671875 475.599609375 c 4
 515.711185917 475.599609375 595.165039062 379.238029036 595.165039062 239 c 4
 595.165039062 79.095703125 494.937095781 -9.998046875 331.297851562 -9.998046875 c 4
 151.540405276 -9.998046875 45 99.6728515624 45 365.331054688 c 4
 45 605.528320312 159.046377502 738.9921875 364.297851562 738.9921875 c 4
 505.428880973 738.9921875 576.923828125 678.860351562 576.923828125 678.860351562 c 5
 532.619140625 573.388671875 l 5
 532.619140625 573.388671875 473.487673927 622.51953125 364.778320312 622.51953125 c 4
 242.266224145 622.51953125 180.301516454 546.295339891 173.303710938 405.747070312 c 5
EndSplineSet
Fore
SplineSet
193.3984375 236.890625 m 0
 193.3984375 156.551175459 233.420806624 97.890625 330.3984375 97.890625 c 0
 428.084100238 97.890625 468.3984375 156.551175459 468.3984375 236.890625 c 0
 468.3984375 317.230074541 428.084100238 375.890625 330.3984375 375.890625 c 0
 233.420806624 375.890625 193.3984375 317.230074541 193.3984375 236.890625 c 0
173.303710938 409.747070312 m 1
 173.303710938 409.747070312 214.823281987 476.599609375 344.263671875 476.599609375 c 4
 491.727586692 476.599609375 585.165039062 379.830752031 585.165039062 239 c 0
 585.165039062 79.095703125 488.735519686 -9.998046875 331.297851562 -9.998046875 c 0
 157.819091801 -9.998046875 55 99.6728515624 55 365.331054688 c 0
 55 605.528320312 161.902804381 738.9921875 354.297851562 738.9921875 c 0
 495.428880973 738.9921875 566.923828125 678.860351562 566.923828125 678.860351562 c 1
 529.619140625 579.388671875 l 1
 529.619140625 579.388671875 471.192287579 628.51953125 363.778320312 628.51953125 c 0
 241.906058829 628.51953125 180.264969542 551.592075362 173.303710938 409.747070312 c 1
EndSplineSet
Validated: 524289
Substitution2: "'onum' Oldstyle Figures lookup 18-1" six.osf
Substitution2: "'tnum' Tabular Numbers lookup 17-1" six.tf
Substitution2: "'numr' Numerators lookup 0 subtable" six.numr
Substitution2: "'dnom' Denominators lookup 0 subtable" six.dnom
Substitution2: "'ss07' Style Set 7 lookup 8-1" six.ss07
Substitution2: "'sups' Superscript lookup 0 subtable" six.superior
Substitution2: "'sinf' Scientific Inferiors lookup 0 subtable" six.inferior
Substitution2: "'sups' Superscript lookup 0 subtable" six.superior
EndChar

StartChar: parenright
Encoding: 41 41 69
Width: 402
Flags: W
HStem: -171.47 102.525<50 127.455> 656.944 102.525<50 127.455>
VStem: 235.448 116.679<82.7405 505.259>
LayerCount: 2
Fore
SplineSet
50 -68.9443359375 m 5
 174.285528335 -68.9443359375 235.448242188 31.613895057 235.448242188 294 c 0
 235.448242188 556.386104942 174.285528335 656.944335938 50 656.944335938 c 1
 50 759.469726562 l 1
 246.463867187 759.469726562 352.126953125 611.823242188 352.126953125 294 c 0
 352.126953125 -23.8232421878 246.463867187 -171.469726562 50 -171.469726562 c 1
 50 -68.9443359375 l 5
EndSplineSet
Validated: 524289
EndChar

StartChar: seven
Encoding: 55 55 70
Width: 604
Flags: W
HStem: 0 21G<179 310.674> 621 110<60 408>
VStem: 179 130<0 154.813>
LayerCount: 2
Fore
SplineSet
309 0 m 5
 179 0 l 1
 190.650938368 341.815384615 408 621 408 621 c 1
 60 621 l 1
 60 731 l 1
 544 731 l 1
 544 625 l 1
 544 625 312.347434032 356 309 0 c 5
EndSplineSet
Substitution2: "'onum' Oldstyle Figures lookup 18-1" seven.osf
Substitution2: "'tnum' Tabular Numbers lookup 17-1" seven.tf
Substitution2: "'numr' Numerators lookup 0 subtable" seven.numr
Substitution2: "'dnom' Denominators lookup 0 subtable" seven.dnom
Substitution2: "'sups' Superscript lookup 0 subtable" seven.superior
Substitution2: "'sinf' Scientific Inferiors lookup 0 subtable" seven.inferior
Substitution2: "'sups' Superscript lookup 0 subtable" seven.superior
EndChar

StartChar: eight
Encoding: 56 56 71
Width: 647
Flags: W
HStem: -9.99805 102.764<230.764 416.236> 332.397 96.6641<251.589 398.496> 359.573 48.2568<171.702 478.552> 634.998 103.887<246.748 402.734>
VStem: 55 121.768<142.924 281.361> 90.2598 116.688<468.21 597.932> 445.052 116.688<468.21 596.975> 470.232 121.768<142.924 281.361>
LayerCount: 2
Fore
SplineSet
323.5 429.061523438 m 4xd6
 398.496016706 429.061523438 445.051757812 468.784993511 445.051757812 531.869140625 c 0
 445.051757812 596.710988601 400.318317051 634.998046875 323.5 634.998046875 c 0
 249.841891963 634.998046875 206.948242188 596.710988601 206.948242188 531.869140625 c 0
 206.948242188 468.784993511 251.588948221 429.061523438 323.5 429.061523438 c 4xd6
323.5 738.884765625 m 0
 471.99469494 738.884765625 561.740234375 665.090820312 561.740234375 543.655273438 c 0
 561.740234375 424.0703125 478.551741285 359.573242188 323.5 359.573242188 c 0xb6
 171.702184193 359.573242188 90.259765625 424.0703125 90.259765625 543.655273438 c 0
 90.259765625 665.090820312 178.121543081 738.884765625 323.5 738.884765625 c 0
323.5 92.765625 m 0
 418.314014893 92.765625 470.232421875 135.963186853 470.232421875 214.020507812 c 0
 470.232421875 286.418324646 418.334367072 332.397460938 323.5 332.397460938 c 0
 228.665632928 332.397460938 176.767578125 286.418324646 176.767578125 214.020507812 c 0xd9
 176.767578125 135.963186853 228.685985107 92.765625 323.5 92.765625 c 0
323.5 407.830078125 m 0xb9
 496.705835086 407.830078125 592 336.828456774 592 208.381835938 c 0
 592 76.1718749996 486.374788716 -9.998046875 323.5 -9.998046875 c 0
 160.625211284 -9.998046875 55 76.1718749998 55 208.381835938 c 0
 55 336.828456774 150.294164914 407.830078125 323.5 407.830078125 c 0xb9
EndSplineSet
Validated: 524293
Substitution2: "'onum' Oldstyle Figures lookup 18-1" eight.osf
Substitution2: "'tnum' Tabular Numbers lookup 17-1" eight.tf
Substitution2: "'numr' Numerators lookup 0 subtable" eight.numr
Substitution2: "'dnom' Denominators lookup 0 subtable" eight.dnom
Substitution2: "'sups' Superscript lookup 0 subtable" eight.superior
Substitution2: "'sinf' Scientific Inferiors lookup 0 subtable" eight.inferior
Substitution2: "'sups' Superscript lookup 0 subtable" eight.superior
EndChar

StartChar: nine
Encoding: 57 57 72
Width: 640
Flags: W
HStem: -9.99805 110.473<161.1 369.429> 252.395 100.709<229.386 393.974> 631.104 107.889<227.431 393.465>
VStem: 55 118.767<408.737 574.578> 466.861 118.304<212.708 319.247>
LayerCount: 2
Fore
SplineSet
448.766601562 492.103515625 m 0
 448.766601562 572.442965166 408.744232439 631.103515625 311.766601562 631.103515625 c 0
 214.080938825 631.103515625 173.766601562 572.442965166 173.766601562 492.103515625 c 0
 173.766601562 411.764066084 214.080938825 353.103515625 311.766601562 353.103515625 c 0
 408.744232439 353.103515625 448.766601562 411.764066084 448.766601562 492.103515625 c 0
466.861328125 319.247070312 m 1
 466.861328125 319.247070312 425.341757074 252.39453125 295.901367188 252.39453125 c 4
 148.437452371 252.39453125 55 349.164169963 55 489.994140625 c 0
 55 649.8984375 151.429519377 738.9921875 308.8671875 738.9921875 c 0
 482.345947261 738.9921875 585.165039062 629.321289062 585.165039062 363.663085938 c 0
 585.165039062 123.465820312 478.262234682 -9.998046875 285.8671875 -9.998046875 c 0
 144.73615809 -9.998046875 73.2412109375 50.1337890625 73.2412109375 50.1337890625 c 1
 110.545898438 149.60546875 l 1
 110.545898438 149.60546875 168.972751483 100.474609375 276.38671875 100.474609375 c 0
 398.258980234 100.474609375 459.900069519 177.402065264 466.861328125 319.247070312 c 1
EndSplineSet
Validated: 524289
Substitution2: "'onum' Oldstyle Figures lookup 18-1" nine.osf
Substitution2: "'tnum' Tabular Numbers lookup 17-1" nine.tf
Substitution2: "'numr' Numerators lookup 0 subtable" nine.numr
Substitution2: "'dnom' Denominators lookup 0 subtable" nine.dnom
Substitution2: "'ss07' Style Set 7 lookup 8-1" nine.ss07
Substitution2: "'sups' Superscript lookup 0 subtable" nine.superior
Substitution2: "'sinf' Scientific Inferiors lookup 0 subtable" nine.inferior
Substitution2: "'sups' Superscript lookup 0 subtable" nine.superior
EndChar

StartChar: question
Encoding: 63 63 73
Width: 562
Flags: W
HStem: -10 146.449<171.026 278.973> 299.594 92.4551<212.79 344.452> 628.229 110.764<133.587 331.819>
VStem: 152.387 145.227<8.79685 117.652> 172.423 106.956<210 300.653> 388.096 123.774<434.307 574.19>
LayerCount: 2
Back
SplineSet
152.38671875 63.224609375 m 0xf4
 152.38671875 107.584937143 181.008990842 136.44921875 224.999023438 136.44921875 c 0
 268.990077228 136.44921875 297.61328125 107.584937143 297.61328125 63.224609375 c 0
 297.61328125 18.8635145521 268.990077228 -10 224.999023438 -10 c 0
 181.008990842 -10 152.38671875 18.8635145521 152.38671875 63.224609375 c 0xf4
280.88671875 300.653320312 m 1
 282.37890625 210 l 1
 169.422851562 210 l 1xec
 171.15625 399.46875 l 1
 171.15625 399.46875 208.949224154 395.048828125 256.3984375 395.048828125 c 0
 348.180522211 395.048828125 392.095703125 431.389934102 392.095703125 499.145507812 c 0
 392.095703125 585.201602829 327.571533338 623.228515625 232.89453125 623.228515625 c 0
 138.66274719 623.228515625 76.923828125 573.958007812 76.923828125 573.958007812 c 1
 30.2412109375 685.311523438 l 1
 30.2412109375 685.311523438 107.390463661 738.9921875 239.89453125 738.9921875 c 0
 405.150107971 738.9921875 521.870117188 670 521.870117188 501.010742188 c 0
 521.870117188 365.685958308 421.37343496 300.59375 309 300.59375 c 0
 290.63582236 300.59375 280.88671875 300.653320312 280.88671875 300.653320312 c 1
EndSplineSet
Fore
SplineSet
152.38671875 63.224609375 m 0xf4
 152.38671875 107.584937143 181.008990842 136.44921875 224.999023438 136.44921875 c 0
 268.990077228 136.44921875 297.61328125 107.584937143 297.61328125 63.224609375 c 0
 297.61328125 18.8635145521 268.990077228 -10 224.999023438 -10 c 0
 181.008990842 -10 152.38671875 18.8635145521 152.38671875 63.224609375 c 0xf4
277.88671875 300.653320312 m 1
 279.37890625 210 l 1
 172.422851562 210 l 1xec
 174.15625 396.46875 l 1
 174.15625 396.46875 208.40234435 392.048828125 251.3984375 392.048828125 c 0
 343.856896081 392.048828125 388.095703125 430.833698328 388.095703125 503.145507812 c 4
 388.095703125 589.895139329 326.813930063 628.228515625 236.89453125 628.228515625 c 0
 140.24609375 628.228515625 76.923828125 573.958007812 76.923828125 573.958007812 c 1
 30.2412109375 685.311523438 l 1
 30.2412109375 685.311523438 107.390463661 738.9921875 239.89453125 738.9921875 c 0
 399.289473754 738.9921875 511.870117188 661.327703299 511.870117188 505.010742188 c 4
 511.870117188 366.309877707 407.510777703 299.59375 312 299.59375 c 0
 289.716498079 299.59375 277.88671875 300.653320312 277.88671875 300.653320312 c 1
EndSplineSet
Validated: 524289
EndChar

StartChar: hyphen
Encoding: 45 45 74
Width: 354
Flags: W
HStem: 228 103<50 304>
VStem: 50 254<228 331>
LayerCount: 2
Fore
SplineSet
304 228 m 5
 50 228 l 5
 50 331 l 5
 304 331 l 5
 304 228 l 5
EndSplineSet
Validated: 1
EndChar

StartChar: quotesingle
Encoding: 39 39 75
Width: 266
Flags: W
HStem: 456 275.008<96 174>
VStem: 96 78<456 576.316>
LayerCount: 2
Fore
SplineSet
96 456 m 1
 80 731.0078125 l 1
 190 731.0078125 l 1
 174 456 l 1
 96 456 l 1
EndSplineSet
Validated: 524289
EndChar

StartChar: parenleft
Encoding: 40 40 77
Width: 402
Flags: W
HStem: -171.47 102.525<274.672 352.127> 656.944 102.525<274.672 352.127>
VStem: 50 116.679<82.7405 505.259>
LayerCount: 2
Fore
SplineSet
352.126953125 -68.9443359375 m 5
 352.126953125 -171.469726562 l 1
 155.663085938 -171.469726562 50 -23.8232421878 50 294 c 0
 50 611.823242188 155.663085938 759.469726562 352.126953125 759.469726562 c 1
 352.126953125 656.944335938 l 1
 227.84142479 656.944335938 166.678710938 556.386104942 166.678710938 294 c 0
 166.678710938 31.613895057 227.84142479 -68.9443359375 352.126953125 -68.9443359375 c 5
EndSplineSet
Validated: 524289
EndChar

StartChar: asterisk
Encoding: 42 42 78
Width: 400
Flags: W
HStem: 718.992 20G<147.534 252.905>
LayerCount: 2
Fore
SplineSet
252.905273438 738.9921875 m 1
 241.896484375 599.151367188 l 1
 358.440429688 656.549804688 l 1
 395.440429688 564.369140625 l 1
 262.896484375 527.767578125 l 1
 351.905273438 435.006835938 l 1
 267.75390625 366.916992188 l 1
 200.219726562 477.075195312 l 5
 132.685546875 366.916992188 l 1
 48.5341796875 435.006835938 l 1
 137.54296875 527.767578125 l 1
 5 564.369140625 l 1
 42 656.549804688 l 1
 158.54296875 599.151367188 l 1
 147.534179688 738.9921875 l 1
 252.905273438 738.9921875 l 1
EndSplineSet
Validated: 524289
Substitution2: "'ss13' Style Set 13 lookup 14-1" asterisk.ss13
EndChar

StartChar: less
Encoding: 60 60 79
Width: 450
Flags: W
LayerCount: 2
Fore
SplineSet
420 155 m 1
 30 305 l 5
 30 411 l 1
 420 561 l 1
 420 460 l 1
 152.454101562 358 l 1
 420 256 l 1
 420 155 l 1
EndSplineSet
Validated: 524289
EndChar

StartChar: greater
Encoding: 62 62 80
Width: 450
Flags: W
LayerCount: 2
Fore
SplineSet
30 561 m 1
 420 411 l 1
 420 305 l 5
 30 155 l 1
 30 256 l 1
 287.545898438 358 l 1
 30 460 l 1
 30 561 l 1
EndSplineSet
Validated: 524289
EndChar

StartChar: slash
Encoding: 47 47 81
Width: 434
Flags: W
LayerCount: 2
Fore
SplineSet
25 -171.469726562 m 1
 300 761.403320312 l 1
 409 761.403320312 l 5
 134 -171.469726562 l 5
 25 -171.469726562 l 1
EndSplineSet
Validated: 524289
EndChar

StartChar: bar
Encoding: 124 124 82
Width: 249
Flags: W
VStem: 70 109<-171.47 759.47>
LayerCount: 2
Fore
SplineSet
70 -171.469726562 m 1
 70 759.469726562 l 1
 179 759.469726562 l 5
 179 -171.469726562 l 5
 70 -171.469726562 l 1
EndSplineSet
Validated: 524289
EndChar

StartChar: bracketleft
Encoding: 91 91 83
Width: 375
Flags: W
HStem: -171.47 90<184 325> 670.47 89<184 325>
VStem: 75 250<-171.47 -81.4697 670.47 759.47> 75 109<-81.4697 670.47>
LayerCount: 2
Fore
SplineSet
75 759.469726562 m 1xe0
 325 759.469726562 l 1
 325 670.469726562 l 1xe0
 184 670.469726562 l 1
 184 -81.4697265625 l 5xd0
 325 -81.4697265625 l 5
 325 -171.469726562 l 1
 75 -171.469726562 l 1
 75 759.469726562 l 1xe0
EndSplineSet
Validated: 524289
EndChar

StartChar: bracketright
Encoding: 93 93 84
Width: 375
Flags: W
HStem: -171.47 90<50 191> 669.47 90<50 191>
VStem: 50 250<-171.47 -81.4697 669.47 759.47> 191 109<-81.4697 669.47>
LayerCount: 2
Fore
SplineSet
300 -171.469726562 m 5xe0
 50 -171.469726562 l 1
 50 -81.4697265625 l 1xe0
 191 -81.4697265625 l 1
 191 669.469726562 l 1xd0
 50 669.469726562 l 1
 50 759.469726562 l 1
 300 759.469726562 l 5
 300 -171.469726562 l 5xe0
EndSplineSet
Validated: 524289
EndChar

StartChar: asciicircum
Encoding: 94 94 85
Width: 449
Flags: W
HStem: 440 291.008
LayerCount: 2
Fore
SplineSet
284 731.0078125 m 1
 424 440 l 1
 313 440 l 5
 225.393554688 640.313476562 l 1
 137 440 l 1
 25 440 l 1
 165 731.0078125 l 1
 284 731.0078125 l 1
EndSplineSet
Validated: 524289
EndChar

StartChar: braceleft
Encoding: 123 123 86
Width: 433
Flags: W
HStem: -171.47 87.9961<262.412 376.914> 261.532 106<50 132.222> 671.474 87.9961<262.319 377.004>
VStem: 140 109<-67.4345 254.394 376.566 655.434>
LayerCount: 2
Fore
SplineSet
188 314.532226562 m 1
 188 314.532226562 249 289.532226562 249 209.532226562 c 2
 249 -11.4736328125 l 2
 249 -66.755859375 275.6015625 -83.4736328125 323 -83.4736328125 c 0
 366.443359375 -83.4736328125 376 -78.4736328125 376 -78.4736328125 c 1
 383 -161.469726562 l 1
 383 -161.469726562 346 -171.469726562 286 -171.469726562 c 0
 178.511424731 -171.469726562 140 -121.782421875 140 -37.4697265625 c 2
 140 199.532226562 l 6
 140 246.860351562 121.501953125 261.532226562 85 261.532226562 c 6
 50 261.532226562 l 5
 50 367.532226562 l 1
 85 367.532226562 l 2
 121.501953125 367.532226562 140 382.205078125 140 429.532226562 c 2
 140 625.469726562 l 2
 140 709.780112592 178.511424731 759.469726562 286 759.469726562 c 0
 340.75 759.469726562 383 749.469726562 383 749.469726562 c 1
 376 666.473632812 l 1
 376 666.473632812 359.180664062 671.473632812 322 671.473632812 c 0
 275.2421875 671.473632812 249 654.754882812 249 599.473632812 c 2
 249 419.532226562 l 2
 249 337.53515625 188 314.532226562 188 314.532226562 c 1
EndSplineSet
Validated: 524289
EndChar

StartChar: grave
Encoding: 96 96 87
Width: 242
Flags: W
HStem: 536 205.008
VStem: 21 210
LayerCount: 2
Fore
SplineSet
151 536 m 5
 21 711.0078125 l 1
 127 741.0078125 l 1
 231 556 l 5
 151 536 l 5
EndSplineSet
Validated: 524289
EndChar

StartChar: underscore
Encoding: 95 95 88
Width: 564
Flags: W
HStem: -91 91<30 534>
LayerCount: 2
Fore
SplineSet
534 -91 m 1
 30 -91 l 1
 30 0 l 1
 534 0 l 1
 534 -91 l 1
EndSplineSet
Validated: 1
EndChar

StartChar: dollar
Encoding: 36 36 89
Width: 591
Flags: W
HStem: -105 174.47<245 344> -10 112.462<147.891 370.439> 625.659 113.462<237.522 437.918> 655 174.47<245 344>
VStem: 69.627 129.312<472.403 592.12> 245 99<-105 69.4697 655 829.47> 413.338 123.182<139.397 258.132>
LayerCount: 2
Fore
SplineSet
245 -105 m 1x8e
 245 69.4697265625 l 1
 344 69.4697265625 l 5
 344 -105 l 5
 245 -105 l 1x8e
245 655 m 1x1e
 245 829.469726562 l 1
 344 829.469726562 l 5
 344 655 l 5
 245 655 l 1x1e
EndSplineSet
Refer: 22 83 N 1 0 0 1 0 0 2
Validated: 524293
EndChar

StartChar: percent
Encoding: 37 37 90
Width: 953
Flags: W
HStem: -9.99805 91.7803<663.918 781.216> 0 21G<201 322.175> 270.072 91.7793<661.58 783.554> 367.143 91.7793<173.271 290.216> 647.212 91.7803<173.271 292.554> 711.008 20G<633.825 755>
VStem: 45 101.66<485.46 621.627> 318.41 99.5498<485.46 621.627> 536 100.66<108.319 244.487> 809.41 99.5498<108.319 244.487>
LayerCount: 2
Fore
SplineSet
636.66015625 176.481445312 m 4xb3c0
 636.66015625 108.544480014 675.278809758 81.7822265625 722.48046875 81.7822265625 c 4
 769.125903792 81.7822265625 809.41015625 108.544480014 809.41015625 176.481445312 c 4
 809.41015625 245.115190869 769.125903792 270.072265625 722.48046875 270.072265625 c 4
 675.278809758 270.072265625 636.66015625 245.115190869 636.66015625 176.481445312 c 4xb3c0
536 176.481445312 m 4
 536 278.624023438 604.040039062 361.8515625 722.48046875 361.8515625 c 4
 840.919921875 361.8515625 908.959960938 278.624023438 908.959960938 176.481445312 c 4
 908.959960938 74.4218750003 840.919921875 -9.998046875 722.48046875 -9.998046875 c 4
 604.040039062 -9.998046875 536 74.4218750003 536 176.481445312 c 4
146.66015625 553.622070312 m 4
 146.66015625 485.685258294 184.828815434 458.921875 231.48046875 458.921875 c 4
 278.125903792 458.921875 318.41015625 485.685258294 318.41015625 553.622070312 c 4
 318.41015625 622.254781506 278.125903792 647.211914062 231.48046875 647.211914062 c 4x3bc0
 184.828815434 647.211914062 146.66015625 622.254781506 146.66015625 553.622070312 c 4
45 553.622070312 m 4
 45 655.764648438 113.040039062 738.9921875 231.48046875 738.9921875 c 4
 349.919921875 738.9921875 417.959960938 655.764648438 417.959960938 553.622070312 c 4
 417.959960938 451.5625 349.919921875 367.142578125 231.48046875 367.142578125 c 4
 113.040039062 367.142578125 45 451.5625 45 553.622070312 c 4
EndSplineSet
Refer: 138 8260 N 1 0 0 1 301 0 2
Validated: 524289
EndChar

StartChar: at
Encoding: 64 64 91
Width: 924
Flags: W
HStem: -159.727 91.7578<353.399 647.363> 71.9697 88.7539<393.563 519.226 668.616 760.777> 392.303 86.7734<401.988 523.793> 617.738 89.9883<342.584 612.314>
VStem: 45 96.1748<134.707 404.312> 254.842 107.517<191.566 349.954> 555.183 105.902<206.709 331.945> 558.533 64.4717<147.223 350.156> 793.417 85.8701<201.934 445.543>
LayerCount: 2
Fore
SplineSet
362.358398438 267.0546875 m 0xfe80
 362.358398438 197.475637143 395.480639172 160.723632812 458.194335938 160.723632812 c 0
 519.445737876 160.723632812 555.182617188 206.708789466 555.182617188 285.529296875 c 0
 555.182617188 354.486918476 521.136400418 392.302734375 465.834960938 392.302734375 c 0
 400.415761907 392.302734375 362.358398438 346.237992527 362.358398438 267.0546875 c 0xfe80
426.392578125 71.9697265625 m 0
 323.692848361 71.9697265625 254.841796875 147.449266989 254.841796875 260.037109375 c 0
 254.841796875 389.849351006 335.897257834 479.076171875 442.166015625 479.076171875 c 0
 565.47910457 479.076171875 623.004882812 401.585972445 623.004882812 254.27734375 c 0xfd80
 623.004882812 147.223261578 541.848042397 71.9697265625 426.392578125 71.9697265625 c 0
487.713867188 -159.7265625 m 0
 213.589372133 -159.7265625 45 14.611328125 45 268.08984375 c 0
 45 524.041992188 221.735351562 707.7265625 476.420898438 707.7265625 c 0
 711.621489311 707.7265625 879.287109375 561.379882812 879.287109375 321.901367188 c 0
 879.287109375 171.18359375 812.753836734 72.708984375 696.626953125 72.708984375 c 0
 610.048810184 72.708984375 558.533203125 120.982421875 558.533203125 228.081054688 c 0xfd80
 558.533203125 350.15625 597.563476562 476.46484375 597.563476562 476.46484375 c 1
 702.37890625 476.46484375 l 1
 702.37890625 476.46484375 661.084960938 331.944544316 661.084960938 227.827148438 c 0xfe80
 661.084960938 180.408623675 674.894531249 155.384765625 708 155.384765625 c 0
 750.622750989 155.384765625 793.416992188 191.643892992 793.416992188 328.072265625 c 0
 793.416992188 513.200918458 671.424473507 617.73828125 472.984375 617.73828125 c 0
 269.874926849 617.73828125 141.174804688 482.765686665 141.174804688 267.489257812 c 4
 141.174804688 59.0401379147 261.480372878 -67.96875 497.6796875 -67.96875 c 0
 664.395791042 -67.96875 768.61328125 8.5576171875 768.61328125 8.5576171875 c 1
 805.250976562 -72.2255859375 l 1
 805.250976562 -72.2255859375 701.004882812 -159.7265625 487.713867188 -159.7265625 c 0
EndSplineSet
EndChar

StartChar: numbersign
Encoding: 35 35 92
Width: 767
Flags: W
HStem: 0 21G<116.5 220.014 386.5 490.014> 184 91<55 677> 439 91<90 712> 711.008 20G<276.986 380.5 546.986 650.5>
LayerCount: 2
Fore
SplineSet
90 530 m 1
 712 530 l 5
 712 439 l 5
 90 439 l 1
 90 530 l 1
55 275 m 1
 677 275 l 5
 677 184 l 5
 55 184 l 1
 55 275 l 1
386.5 0 m 1
 551.5 731.0078125 l 1
 650.5 731.0078125 l 1
 485.5 0 l 1
 386.5 0 l 1
116.5 0 m 1
 281.5 731.0078125 l 1
 380.5 731.0078125 l 1
 215.5 0 l 1
 116.5 0 l 1
EndSplineSet
Validated: 524293
EndChar

StartChar: braceright
Encoding: 125 125 93
Width: 433
Flags: W
HStem: -171.47 87.9961<36.086 156.141> 261.532 106<300.778 383> 671.474 87.9961<35.9963 156.279>
VStem: 184 109<-56.8779 254.394 376.566 644.877>
LayerCount: 2
Fore
SplineSet
245 314.532226562 m 1
 245 314.532226562 184 337.53515625 184 419.532226562 c 2
 184 563.473632812 l 2
 184 646.395507812 150.568172089 671.473632812 91 671.473632812 c 0
 53.8193359375 671.473632812 37 666.473632812 37 666.473632812 c 1
 30 749.469726562 l 1
 30 749.469726562 72.25 759.469726562 127 759.469726562 c 0
 249.213037634 759.469726562 293 696.430664062 293 589.469726562 c 2
 293 429.532226562 l 6
 293 382.205078125 311.498046875 367.532226562 348 367.532226562 c 6
 383 367.532226562 l 5
 383 261.532226562 l 5
 348 261.532226562 l 6
 311.498046875 261.532226562 293 246.860351562 293 199.532226562 c 6
 293 -1.4697265625 l 2
 293 -108.43359375 249.213037634 -171.469726562 127 -171.469726562 c 0
 67 -171.469726562 30 -161.469726562 30 -161.469726562 c 1
 37 -78.4736328125 l 1
 37 -78.4736328125 46.556640625 -83.4736328125 90 -83.4736328125 c 0
 150.208826014 -83.4736328125 184 -58.3969726562 184 24.5263671875 c 2
 184 209.532226562 l 2
 184 289.532226562 245 314.532226562 245 314.532226562 c 1
EndSplineSet
Validated: 524289
EndChar

StartChar: asciitilde
Encoding: 126 126 94
Width: 436
VWidth: 999
Flags: W
HStem: 297 90<231.151 355.082> 346 89<83.9718 204.877>
LayerCount: 2
Fore
SplineSet
421 355 m 5x80
 421 355 373 297 299 297 c 0x80
 221.461538462 297 195.615384615 346 139 346 c 0
 95.4927536232 346 60 302 60 302 c 1
 15 385 l 1
 15 385 68 435 137 435 c 0x40
 213.307692308 435 245.307692308 387 297 387 c 0
 346.615384615 387 372 427 372 427 c 1
 421 355 l 5x80
EndSplineSet
Validated: 524289
EndChar

StartChar: cent
Encoding: 162 162 95
Width: 492
Flags: W
HStem: 105.002 97.4619<238.668 413.936> 526.284 99.6494<232.019 398.118> 570 159.47<248 339>
VStem: 55 118.849<270.676 464.319> 248 91<-5 184.47 570 729.47>
LayerCount: 2
Fore
SplineSet
248 -5 m 1x98
 248 184.469726562 l 1
 339 184.469726562 l 5
 339 -5 l 5
 248 -5 l 1x98
248 570 m 1xb8
 248 729.469726562 l 1
 339 729.469726562 l 5
 339 570 l 5
 248 570 l 1xb8
EndSplineSet
Refer: 40 99 N 1 0 0 1 0 115 2
Validated: 524293
EndChar

StartChar: sterling
Encoding: 163 163 96
Width: 553
Flags: W
HStem: 0 109<190.319 513> 293 102<60 424> 627.621 111.841<236.29 439.981>
VStem: 79.3516 127.979<450.954 600.722> 156.824 117.657<210.419 401.778>
LayerCount: 2
Fore
SplineSet
424 293 m 5xe0
 60 293 l 1
 60 395 l 1
 424 395 l 5
 424 293 l 5xe0
513 0 m 5
 40 0 l 1
 40 105 l 1
 40 105 156.82421875 180.513671875 156.82421875 289.379882812 c 0xe8
 156.82421875 391.588284089 79.3515625 418.167846584 79.3515625 547.185546875 c 0
 79.3515625 671.3984375 168.765181605 739.461914062 302.80859375 739.461914062 c 0
 435.626576252 739.461914062 494.95703125 703.405273438 494.95703125 703.405273438 c 5
 464.9375 596.024414062 l 5
 464.9375 596.024414062 399.877929688 627.62109375 327.80859375 627.62109375 c 0
 260.84435704 627.62109375 207.330078125 613.31252017 207.330078125 541.024414062 c 0xf0
 207.330078125 443.933526505 274.481445312 411.968409612 274.481445312 290.158203125 c 0xe8
 274.481445312 177.904192501 190.319335938 109 190.319335938 109 c 1
 513 109 l 5
 513 0 l 5
EndSplineSet
Validated: 524293
EndChar

StartChar: yen
Encoding: 165 165 97
Width: 649
Flags: W
HStem: 0 21G<260 389> 175 86<99.5 549.5> 305 86<99.5 260 389 549.5> 322 69<266 383> 711.008 20G<40 185.93 463.07 609>
VStem: 260 129<0 391>
LayerCount: 2
Fore
SplineSet
266 322 m 5xdc
 40 731.0078125 l 1
 176 731.0078125 l 1
 324.5 431.916015625 l 5
 473 731.0078125 l 1
 609 731.0078125 l 1
 383 322 l 5
 266 322 l 5xdc
260 0 m 1
 260 391 l 5
 389 391 l 5xec
 389 0 l 1
 260 0 l 1
549.5 175 m 1
 99.5 175 l 1
 99.5 261 l 1
 549.5 261 l 1
 549.5 175 l 1
549.5 305 m 1
 99.5 305 l 1
 99.5 391 l 1
 549.5 391 l 1
 549.5 305 l 1
EndSplineSet
Validated: 524293
EndChar

StartChar: currency
Encoding: 164 164 98
Width: 513
Flags: W
HStem: 156.724 102.462<199.072 312.825> 455.006 102.649<199.093 312.846>
VStem: 52.6113 110.849<288.451 427.815> 349.54 110.849<289.284 427.019>
LayerCount: 2
Fore
SplineSet
315.239257812 213.436523438 m 1
 403.889648438 246.325195312 l 1
 498.259765625 124.765625 l 1
 389.580078125 66.1455078125 l 5
 315.239257812 213.436523438 l 1
198.020507812 213.436523438 m 1
 123.6796875 66.1455078125 l 1
 15 124.765625 l 1
 109.370117188 246.325195312 l 1
 198.020507812 213.436523438 l 1
315.239257812 497.74609375 m 1
 389.580078125 645.036132812 l 5
 498.259765625 586.416015625 l 1
 403.889648438 464.856445312 l 1
 315.239257812 497.74609375 l 1
198.020507812 497.74609375 m 1
 109.370117188 464.856445312 l 1
 15 586.416015625 l 1
 123.6796875 645.036132812 l 1
 198.020507812 497.74609375 l 1
163.459960938 359.283203125 m 0
 163.459960938 299.260001134 191.02586875 259.185546875 255.5 259.185546875 c 0
 321.375623633 259.185546875 349.540039062 299.260001134 349.540039062 359.283203125 c 0
 349.540039062 416.683465541 321.408779064 455.005859375 255.611328125 455.005859375 c 0
 191.059022733 455.005859375 163.459960938 416.683465541 163.459960938 359.283203125 c 0
52.611328125 359.283203125 m 0
 52.611328125 479.317382812 129.379882812 557.655273438 255.5 557.655273438 c 0
 382.86328125 557.655273438 460.388671875 479.317382812 460.388671875 359.283203125 c 0
 460.388671875 236.715820312 382.86328125 156.723632812 255.5 156.723632812 c 0
 129.379882812 156.723632812 52.611328125 236.715820312 52.611328125 359.283203125 c 0
EndSplineSet
Validated: 524293
EndChar

StartChar: brokenbar
Encoding: 166 166 99
Width: 249
Flags: W
VStem: 65 119<-171.47 239 339 759.47>
LayerCount: 2
Fore
SplineSet
65 -171.469726562 m 1
 65 239 l 1
 184 239 l 5
 184 -171.469726562 l 5
 65 -171.469726562 l 1
65 339 m 1
 65 759.469726562 l 1
 184 759.469726562 l 5
 184 339 l 5
 65 339 l 1
EndSplineSet
Validated: 524289
EndChar

StartChar: section
Encoding: 167 167 100
Width: 593
Flags: W
HStem: -19.6709 94.3906<172.441 341.098> 660.212 94.3906<251.902 420.559>
VStem: 49.6328 113.859<342.667 429.104> 115.533 119.232<544.261 642.786> 358.234 119.232<92.1458 193.122> 429.508 113.859<302.441 389.037>
LayerCount: 2
Fore
SplineSet
179.71484375 515.153320312 m 1xe8
 244.5234375 459.951171875 l 1
 244.5234375 459.951171875 163.4921875 445.112304688 163.4921875 382.393554688 c 0
 163.4921875 349.290928743 192.973913515 320.696682001 292.860351562 310.17578125 c 0
 429.371454231 295.797255089 477.466796875 227.356998291 477.466796875 145.370117188 c 0
 477.466796875 42.560546875 406.646484375 -19.6708984375 290.30078125 -19.6708984375 c 0
 177.5859375 -19.6708984375 122.76953125 19.734375 122.76953125 19.734375 c 1
 150.896484375 107.825195312 l 1
 150.896484375 107.825195312 201.38671875 74.7197265625 275.8046875 74.7197265625 c 0
 332.6640625 74.7197265625 358.234375 101.408203125 358.234375 144.443359375 c 0
 358.234375 178.779928164 339.329812363 214.42228674 247.696289062 219.377929688 c 0
 91.5903527932 227.8203125 49.6328125 297.031926935 49.6328125 362.309570312 c 0
 49.6328125 480.456054688 179.71484375 515.153320312 179.71484375 515.153320312 c 1xe8
393.28515625 199.778320312 m 1
 348.4765625 274.98046875 l 1
 348.4765625 274.98046875 429.5078125 289.819335938 429.5078125 345 c 0
 429.5078125 385.289496288 397.602397581 409.407226562 292.208007812 424.451171875 c 4
 162.491789345 442.973234308 115.533203125 507.423067581 115.533203125 589.561523438 c 0
 115.533203125 692.37109375 186.353515625 754.602539062 302.69921875 754.602539062 c 0
 415.4140625 754.602539062 470.23046875 715.197265625 470.23046875 715.197265625 c 1
 442.103515625 627.106445312 l 1
 442.103515625 627.106445312 391.614257812 660.211914062 317.1953125 660.211914062 c 0
 260.3359375 660.211914062 234.765625 633.5234375 234.765625 590.48828125 c 0
 234.765625 554.995868728 252.861003616 525.462662486 352.260742188 513.03125 c 0
 498.083537485 494.793945312 543.3671875 431.858043788 543.3671875 363.622070312 c 0xd4
 543.3671875 238.5859375 393.28515625 199.778320312 393.28515625 199.778320312 c 1
EndSplineSet
Validated: 524293
EndChar

StartChar: dieresis
Encoding: 168 168 101
Width: 459
Flags: W
HStem: 592.543 146.449<70.5263 178.473 280.526 388.473>
VStem: 51.8867 145.227<611.34 720.195> 261.887 145.227<611.34 720.195>
LayerCount: 2
Fore
SplineSet
261.88671875 665.767578125 m 0
 261.88671875 710.128230376 290.508637679 738.9921875 334.499023438 738.9921875 c 0
 378.490423077 738.9921875 407.11328125 710.128230376 407.11328125 665.767578125 c 0
 407.11328125 621.406124431 378.490423077 592.54296875 334.499023438 592.54296875 c 4
 290.508637679 592.54296875 261.88671875 621.406124431 261.88671875 665.767578125 c 0
51.88671875 665.767578125 m 0
 51.88671875 710.128230376 80.5086376795 738.9921875 124.499023438 738.9921875 c 0
 168.490423077 738.9921875 197.11328125 710.128230376 197.11328125 665.767578125 c 0
 197.11328125 621.406124431 168.490423077 592.54296875 124.499023438 592.54296875 c 4
 80.5086376793 592.54296875 51.88671875 621.406124431 51.88671875 665.767578125 c 0
EndSplineSet
Validated: 524289
EndChar

StartChar: copyright
Encoding: 169 169 102
Width: 797
Flags: W
HStem: -9.99805 89.8574<278.886 518.892> 177.281 81.2314<362.529 519.844> 470.61 81.2314<362.529 500.675> 649.264 89.8574<278.886 518.892>
VStem: 35 92.8965<236.014 493.109> 233.957 99.4238<287.59 441.533> 669.881 92.8965<236.014 493.109>
LayerCount: 2
Fore
SplineSet
233.95703125 364.561523438 m 0
 233.95703125 477.88408452 295.327991305 551.841796875 413.401367188 551.841796875 c 0
 496.2421875 551.841796875 536.297851562 518.7265625 536.297851562 518.7265625 c 1
 505.634765625 444.849609375 l 1
 505.634765625 444.849609375 484.30859375 470.610351562 428.901367188 470.610351562 c 0
 359.374930595 470.610351562 333.380859375 428.154531103 333.380859375 364.561523438 c 0
 333.380859375 300.968515774 359.374930595 258.512695312 428.901367188 258.512695312 c 0
 488.76171875 258.512695312 514.465820312 281.578125 514.465820312 281.578125 c 1
 537.870117188 204.578125 l 1
 537.870117188 204.578125 495.682617188 177.28125 413.401367188 177.28125 c 0
 295.327991305 177.28125 233.95703125 251.238962356 233.95703125 364.561523438 c 0
127.896484375 364.561523438 m 0
 127.896484375 193.838967112 209.057282273 79.859375 398.888671875 79.859375 c 0
 588.720061477 79.859375 669.880859375 193.838967112 669.880859375 364.561523438 c 0
 669.880859375 535.284079763 588.720061477 649.263671875 398.888671875 649.263671875 c 0
 209.057282273 649.263671875 127.896484375 535.284079763 127.896484375 364.561523438 c 0
35 364.561523438 m 0
 35 591.206054688 172.688476562 739.12109375 398.888671875 739.12109375 c 0
 625.088867188 739.12109375 762.77734375 591.206054688 762.77734375 364.561523438 c 0
 762.77734375 137.916992188 625.088867188 -9.998046875 398.888671875 -9.998046875 c 0
 172.688476562 -9.998046875 35 137.916992188 35 364.561523438 c 0
EndSplineSet
Validated: 524289
EndChar

StartChar: registered
Encoding: 174 174 103
Width: 797
Flags: W
HStem: -9.99805 89.8574<278.886 518.892> 310.752 65.1758<303 438.631> 480.076 68.1797<348 449.224> 649.264 89.8574<278.886 518.892>
VStem: 35 92.8965<236.014 493.109> 258.5 89.5<182.752 310.752 375.928 480.076> 303 45<310.752 375.928> 459.465 86.9238<386.172 468.824> 669.881 92.8965<236.014 493.109>
LayerCount: 2
Fore
SplineSet
303 375.927734375 m 1xfb80
 386.444335938 375.982421875 l 2
 428.248469969 376.004670007 459.46484375 385.251764315 459.46484375 427.533203125 c 0
 459.46484375 470.210629542 428.248463352 479.985835277 386.444335938 480.025390625 c 2
 348 480.076171875 l 1
 348 182.751953125 l 1
 258.5 182.751953125 l 1
 258.5 548.255859375 l 1xfd80
 405.444335938 548.255859375 l 2
 479.602050781 548.255859375 546.388671875 516.602513866 546.388671875 432.033203125 c 0
 546.388671875 362.464123744 486.34375 341.890625 486.34375 341.890625 c 1
 486.34375 341.890625 514.399719461 331.170780518 533.3515625 271.451171875 c 2
 561.5 182.751953125 l 1
 470.5 182.751953125 l 1
 448 265.251953125 l 2
 436.225495793 308.425135216 420 310.751953125 387 310.751953125 c 2
 303 310.751953125 l 1
 303 375.927734375 l 1xfb80
127.896484375 364.561523438 m 4
 127.896484375 193.838967112 209.057282273 79.859375 398.888671875 79.859375 c 4
 588.720061477 79.859375 669.880859375 193.838967112 669.880859375 364.561523438 c 4
 669.880859375 535.284079763 588.720061477 649.263671875 398.888671875 649.263671875 c 4
 209.057282273 649.263671875 127.896484375 535.284079763 127.896484375 364.561523438 c 4
35 364.561523438 m 4
 35 591.206054688 172.688476562 739.12109375 398.888671875 739.12109375 c 4
 625.088867188 739.12109375 762.77734375 591.206054688 762.77734375 364.561523438 c 4
 762.77734375 137.916992188 625.088867188 -9.998046875 398.888671875 -9.998046875 c 4
 172.688476562 -9.998046875 35 137.916992188 35 364.561523438 c 4
EndSplineSet
Validated: 524293
EndChar

StartChar: uni2117
Encoding: 8471 8471 104
Width: 797
Flags: W
HStem: -9.99805 89.8574<278.886 518.892> 286.752 65.1758<321.694 456.106> 480.076 68.1797<355.694 455.578> 649.264 89.8574<278.886 518.892>
VStem: 35 92.8965<236.014 493.109> 266.194 89.5<182.752 286.752 351.928 480.076> 321.694 34<286.752 351.928> 471.659 84.9238<365.417 465.284> 669.881 92.8965<236.014 493.109>
LayerCount: 2
Fore
SplineSet
321.694335938 286.751953125 m 1xfb80
 321.694335938 351.927734375 l 1xfb80
 390.138671875 351.982421875 l 2
 436.809095937 352.019711868 471.659179688 363.499631019 471.659179688 416.033203125 c 0
 471.659179688 468.060707952 436.809078235 479.956584492 390.138671875 480.025390625 c 2
 355.694335938 480.076171875 l 1
 355.694335938 182.751953125 l 1
 266.194335938 182.751953125 l 1
 266.194335938 548.255859375 l 1xfd80
 394.138671875 548.255859375 l 2
 479.608510879 548.255859375 556.583007812 512.244978898 556.583007812 416.033203125 c 0
 556.583007812 321.475395761 484.831436295 286.751953125 406.138671875 286.751953125 c 2
 321.694335938 286.751953125 l 1xfb80
127.896484375 364.561523438 m 0
 127.896484375 193.838967112 209.057282273 79.859375 398.888671875 79.859375 c 0
 588.720061477 79.859375 669.880859375 193.838967112 669.880859375 364.561523438 c 4
 669.880859375 535.284079763 588.720061477 649.263671875 398.888671875 649.263671875 c 0
 209.057282273 649.263671875 127.896484375 535.284079763 127.896484375 364.561523438 c 0
35 364.561523438 m 0
 35 591.206054688 172.688476562 739.12109375 398.888671875 739.12109375 c 0
 625.088867188 739.12109375 762.77734375 591.206054688 762.77734375 364.561523438 c 0
 762.77734375 137.916992188 625.088867188 -9.998046875 398.888671875 -9.998046875 c 0
 172.688476562 -9.998046875 35 137.916992188 35 364.561523438 c 0
EndSplineSet
Validated: 524293
EndChar

StartChar: guillemotleft
Encoding: 171 171 105
Width: 590
Flags: W
LayerCount: 2
Fore
SplineSet
45 281 m 1
 185 441 l 1
 315 441 l 5
 161.75 254 l 5
 315 67 l 5
 185 67 l 1
 45 227 l 1
 45 281 l 1
295 281 m 1
 435 441 l 1
 565 441 l 5
 411.75 254 l 5
 565 67 l 5
 435 67 l 1
 295 227 l 1
 295 281 l 1
EndSplineSet
Validated: 524289
EndChar

StartChar: guillemotright
Encoding: 187 187 106
Width: 590
Flags: W
LayerCount: 2
Fore
SplineSet
545 227 m 1
 405 67 l 1
 275 67 l 5
 428.25 254 l 5
 275 441 l 5
 405 441 l 1
 545 281 l 1
 545 227 l 1
295 227 m 1
 155 67 l 1
 25 67 l 5
 178.25 254 l 5
 25 441 l 5
 155 441 l 1
 295 281 l 1
 295 227 l 1
EndSplineSet
Validated: 524289
EndChar

StartChar: mu
Encoding: 181 181 107
Width: 595
Flags: W
HStem: -9.92285 95.6494<231.148 360.887> 0 21G<401.777 520.777> 481.011 20G<75 194 401.777 520.777>
VStem: 75 119<-180 501.011> 115 79<56.9261 321.011> 401.777 119<207.449 501.011>
LayerCount: 2
Fore
SplineSet
75 -180 m 1x34
 75 501.010742188 l 1
 194 501.010742188 l 1
 194 -180 l 1
 75 -180 l 1x34
401.77734375 217.010742188 m 0
 456.77734375 207.44921875 l 0
 437.058393628 57.0107421877 380.300451744 -9.9228515625 273.77734375 -9.9228515625 c 0
 178.922823299 -9.9228515625 115 56.9260601597 115 196.44921875 c 2
 115 321.010742188 l 1xac
 194 321.010742188 l 1
 194 213.44921875 l 2
 194 132.541162612 224.641097605 85.7265625 296.77734375 85.7265625 c 0xb4
 370.330457573 85.7265625 401.77734375 138.285722149 401.77734375 217.010742188 c 0
520.77734375 501.010742188 m 1
 520.77734375 0 l 1
 401.77734375 0 l 1x64
 401.77734375 501.010742188 l 1
 520.77734375 501.010742188 l 1
EndSplineSet
Validated: 524293
EndChar

StartChar: acute
Encoding: 180 180 108
Width: 242
Flags: W
HStem: 536 205.008
VStem: 11 210
LayerCount: 2
Fore
SplineSet
91 536 m 5
 11 556 l 5
 115 741.0078125 l 1
 221 711.0078125 l 1
 91 536 l 5
EndSplineSet
Validated: 524289
EndChar

StartChar: macron
Encoding: 175 175 109
Width: 374
Flags: W
HStem: 630.008 101<50 324>
VStem: 50 274<630.008 731.008>
LayerCount: 2
Fore
SplineSet
324 630.0078125 m 5
 50 630.0078125 l 1
 50 731.0078125 l 1
 324 731.0078125 l 5
 324 630.0078125 l 5
EndSplineSet
Validated: 524289
EndChar

StartChar: uni00AD
Encoding: 173 173 110
Width: 354
Flags: W
HStem: 228 103<50 304>
VStem: 50 254<228 331>
LayerCount: 2
Fore
SplineSet
304 228 m 5
 50 228 l 5
 50 331 l 1
 304 331 l 1
 304 228 l 5
EndSplineSet
Validated: 1
EndChar

StartChar: logicalnot
Encoding: 172 172 111
Width: 450
Flags: W
HStem: 310 96<30 305>
VStem: 305 100<165 310>
LayerCount: 2
Fore
SplineSet
405 165 m 5
 305 165 l 1
 305 310 l 1
 30 310 l 1
 30 406 l 1
 405 406 l 5
 405 165 l 5
EndSplineSet
Validated: 1
EndChar

StartChar: minus
Encoding: 8722 8722 112
Width: 450
Flags: W
HStem: 310 96<30 420>
LayerCount: 2
Fore
SplineSet
420 310 m 5
 30 310 l 5
 30 406 l 1
 420 406 l 1
 420 310 l 5
EndSplineSet
Validated: 1
EndChar

StartChar: notequal
Encoding: 8800 8800 113
Width: 450
Flags: W
HStem: 230 86<30 420> 400 86<30 420>
LayerCount: 2
Fore
SplineSet
70 108.530273438 m 1
 275 601.403320312 l 1
 374 601.403320312 l 5
 169 108.530273438 l 5
 70 108.530273438 l 1
EndSplineSet
Refer: 52 61 N 1 0 0 1 0 0 2
Validated: 524293
EndChar

StartChar: partialdiff
Encoding: 8706 8706 114
Width: 620
Flags: W
HStem: -9.99805 137.889<223.632 364.089> 345.891 124.709<234.591 377.493> 586.52 152.473<189.965 371.09>
VStem: 35 156.767<159.852 304.164> 406.767 178.398<202.397 464.984>
LayerCount: 2
Fore
SplineSet
406.766601562 246.890625 m 0
 406.766601562 304.110808486 378.429595686 345.890625 309.766601562 345.890625 c 0
 226.23828125 345.890625 191.766601562 295.670441514 191.766601562 226.890625 c 0
 191.766601562 169.670441514 220.395623676 127.890625 289.766601562 127.890625 c 0
 372.586914062 127.890625 406.766601562 178.110808486 406.766601562 246.890625 c 0
436.861328125 429.747070312 m 5
 431.435039783 531.393275772 383.385923509 586.51953125 288.38671875 586.51953125 c 0
 205.585092091 586.51953125 160.545898438 547.388671875 160.545898438 547.388671875 c 1
 103.241210938 688.860351562 l 1
 103.241210938 688.860351562 168.011208645 738.9921875 295.8671875 738.9921875 c 0
 481.834021242 738.9921875 585.165039062 612.671898034 585.165039062 385.331054688 c 0
 585.165039062 105.516837439 474.903320312 -9.998046875 288.8671875 -9.998046875 c 0
 131.429519377 -9.998046875 35 75.5176128099 35 229 c 0
 35 372.20164401 134.643308549 470.599609375 291.901367188 470.599609375 c 0
 401.656152805 470.599609375 436.861328125 429.747070312 436.861328125 429.747070312 c 5
EndSplineSet
Validated: 1
EndChar

StartChar: emptyset
Encoding: 8709 8709 115
Width: 797
Flags: W
HStem: -9.99805 102.462<308.027 512.317> 636.659 102.462<285.46 494.283>
VStem: 45 104.849<235.894 493.229> 647.929 104.849<235.894 493.229>
LayerCount: 2
Fore
SplineSet
149.848632812 364.561523438 m 4
 149.848632812 201.397206975 224.434668642 92.4638671875 398.888671875 92.4638671875 c 0
 573.342675108 92.4638671875 647.928710938 201.397206975 647.928710938 364.561523438 c 0
 647.928710938 527.725839897 573.342675108 636.659179688 398.888671875 636.659179688 c 0
 224.434668642 636.659179688 149.848632812 527.725839897 149.848632812 364.561523438 c 4
45 364.561523438 m 4
 45 591.206054688 178.904668843 739.12109375 398.888671875 739.12109375 c 0
 618.872674907 739.12109375 752.77734375 591.206054688 752.77734375 364.561523438 c 0
 752.77734375 137.916992188 618.872674907 -9.998046875 398.888671875 -9.998046875 c 0
 178.904668843 -9.998046875 45 137.916992188 45 364.561523438 c 4
111.5 -90.873046875 m 1
 576.5 812 l 1
 685.5 812 l 1
 220.5 -90.873046875 l 1
 111.5 -90.873046875 l 1
EndSplineSet
Validated: 524293
EndChar

StartChar: Delta
Encoding: 8710 8710 116
Width: 719
Flags: W
HStem: 0 120<199 520> 711.008 20G<277.593 431.729>
LayerCount: 2
Fore
SplineSet
664 0 m 1
 55 0 l 1
 55 110 l 1
 285 731.0078125 l 1
 424 731.0078125 l 1
 664 110 l 1
 664 0 l 1
520 120 m 1
 355.393554688 590.313476562 l 5
 199 120 l 1
 520 120 l 1
EndSplineSet
Validated: 524289
EndChar

StartChar: plusminus
Encoding: 177 177 117
Width: 450
Flags: W
HStem: 163 86<30 420> 350 96<30 420>
VStem: 177 96<168 568>
LayerCount: 2
Fore
SplineSet
420 163 m 5
 30 163 l 5
 30 249 l 1
 420 249 l 1
 420 163 l 5
177 168 m 1
 177 568 l 1
 273 568 l 1
 273 168 l 1
 177 168 l 1
420 350 m 5
 30 350 l 5
 30 446 l 1
 420 446 l 1
 420 350 l 5
EndSplineSet
Validated: 5
EndChar

StartChar: degree
Encoding: 176 176 118
Width: 431
Flags: W
HStem: 400.07 86.5264<157.862 272.924> 674.288 86.7139<157.879 272.942>
VStem: 40 94.4121<510.006 651.13> 297.365 94.4121<510.749 650.394>
LayerCount: 2
Fore
SplineSet
134.412109375 580.854492188 m 0
 134.412109375 524.332868829 158.484144345 486.596679688 214.786132812 486.596679688 c 0
 272.633127866 486.596679688 297.365234375 524.332868829 297.365234375 580.854492188 c 4
 297.365234375 636.882270163 272.670319646 674.288085938 214.909179688 674.288085938 c 0
 158.521338621 674.288085938 134.412109375 636.882270163 134.412109375 580.854492188 c 0
40 580.629882812 m 0
 40 689.772696384 106.174142539 761.001953125 214.888671875 761.001953125 c 0
 324.846368675 761.001953125 391.77734375 689.772696384 391.77734375 580.629882812 c 4
 391.77734375 471.374251811 324.846368675 400.0703125 214.888671875 400.0703125 c 0
 106.174142539 400.0703125 40 471.374251811 40 580.629882812 c 0
EndSplineSet
Validated: 524289
EndChar

StartChar: cedilla
Encoding: 184 184 120
Width: 317
VWidth: 999
Flags: W
HStem: -255 68<48.5066 189.298> -86 65<133.791 192.081>
VStem: 198 89<-176.008 -92.0335>
LayerCount: 2
Fore
SplineSet
287 -131 m 0
 287 -209.970703125 237.749023438 -255 146 -255 c 0
 88.0773841595 -255 36 -232 36 -232 c 5
 54 -166 l 1
 54 -166 83.103515625 -187 130 -187 c 0
 180.58219401 -187 198 -165.705711571 198 -134 c 0
 198 -100.558823529 180.093570108 -86 151 -86 c 0
 116.886328124 -86 105 -111 105 -111 c 1
 47 -92 l 1
 69 39 l 1
 146 39 l 1
 133.485351562 -33.603515625 l 1
 133.485351562 -33.603515625 147.297754294 -21 183 -21 c 0
 245.971998762 -21 287 -62.5234375 287 -131 c 0
EndSplineSet
Validated: 524289
EndChar

StartChar: paragraph
Encoding: 182 182 121
Width: 682
Flags: W
HStem: 634.992 96<395.889 485.889>
VStem: 40 355.889<398.845 606.32> 293.889 102<-179.994 284.637> 485.889 102<-179.994 634.992>
LayerCount: 2
Fore
SplineSet
395.888671875 -179.994140625 m 1xb0
 293.888671875 -179.994140625 l 1
 293.888671875 282.9921875 l 1xb0
 152.121389579 292.9921875 40 337.833007812 40 499.432617188 c 0xd0
 40 667.032226562 152 730.9921875 293.888671875 730.9921875 c 2
 587.888671875 730.9921875 l 5
 587.888671875 -179.994140625 l 5
 485.888671875 -179.994140625 l 5
 485.888671875 634.9921875 l 5
 395.888671875 634.9921875 l 1
 395.888671875 -179.994140625 l 1xb0
EndSplineSet
Validated: 524289
EndChar

StartChar: ordfeminine
Encoding: 170 170 122
Width: 402
Flags: W
HStem: 369.992 74<304.191 382.062> 369.992 65<132.897 236.774> 538.992 58<139.779 263> 665.992 73<95.6918 235.265>
VStem: 40 86<442.356 523.033> 251 85<455.21 486.992 590.992 648.056> 251 37<413.992 479.992> 251 12<538.992 596.992>
LayerCount: 2
Fore
SplineSet
251 494.9921875 m 1x79
 251 458.713117733 223.296296296 434.9921875 183 434.9921875 c 0
 142.682926829 434.9921875 126 453.185735887 126 481.9921875 c 0
 126 528.628551136 159.289719626 538.9921875 263 538.9921875 c 5
 263 596.9921875 l 5x79
 133 596.9921875 40 580.585407839 40 475.9921875 c 0
 40 411.9921875 86 369.9921875 160 369.9921875 c 0
 247 369.9921875 288 413.9921875 288 479.9921875 c 1x7a
 251 494.9921875 l 1x79
251 590.9921875 m 6xbc
 251 459.9921875 l 2
 251 398.9921875 277.382978723 369.9921875 331 369.9921875 c 0
 368.85915493 369.9921875 387 386.9921875 387 386.9921875 c 1
 381 447.9921875 l 1
 381 447.9921875 372.157894737 443.9921875 357 443.9921875 c 0
 342 443.9921875 336 455.209578804 336 486.9921875 c 2
 336 595.9921875 l 2
 336 682.197861259 291.9375 738.9921875 186 738.9921875 c 0
 108.928571429 738.9921875 56 705.9921875 56 705.9921875 c 1
 84 636.9921875 l 5
 84 636.9921875 120 665.9921875 171 665.9921875 c 4
 226.483870967 665.9921875 251 643.008316532 251 590.9921875 c 6xbc
EndSplineSet
Validated: 524293
EndChar

StartChar: ordmasculine
Encoding: 186 186 123
Width: 418
Flags: W
HStem: 367.992 80<151.44 266.995> 658.992 80<151.44 266.735>
VStem: 33 90<476.94 631.592> 295 90<476.94 631.592>
LayerCount: 2
Fore
SplineSet
123 554.9921875 m 0
 123 489.924619932 148.8 447.9921875 209 447.9921875 c 0
 270.428571429 447.9921875 295 489.924619932 295 554.9921875 c 4
 295 616.513314261 269.2 658.9921875 209 658.9921875 c 0
 148.8 658.9921875 123 616.513314261 123 554.9921875 c 0
33 555.9921875 m 0
 33 667.025895365 100.182795699 738.9921875 209 738.9921875 c 0
 318.76344086 738.9921875 385 667.025895365 385 555.9921875 c 0
 385 441.959400615 318.76344086 367.9921875 209 367.9921875 c 0
 100.182795699 367.9921875 33 441.959400615 33 555.9921875 c 0
EndSplineSet
Validated: 524289
EndChar

StartChar: arrowleft
Encoding: 8592 8592 124
Width: 550
Flags: W
HStem: 313.64 138<259.149 537.749> 323.64 118<139.749 418.349>
LayerCount: 2
Fore
SplineSet
537.749023438 313.639648438 m 5x80
 139.749023438 323.639648438 l 1
 139.749023438 441.639648438 l 1x40
 537.749023438 451.639648438 l 5
 537.749023438 313.639648438 l 5x80
157.561523438 382.638671875 m 1
 317.848632812 241.1171875 l 1
 224.510742188 147.779296875 l 1
 12.2509765625 382.638671875 l 1
 224.510742188 617.5 l 1
 317.848632812 524.16015625 l 1
 157.561523438 382.638671875 l 1
EndSplineSet
Validated: 5
EndChar

StartChar: product
Encoding: 8719 8719 128
Width: 719
Flags: W
HStem: 620.008 111<204 515>
VStem: 75 129<-179.994 620.008> 515 129<-179.994 620.008>
LayerCount: 2
Fore
SplineSet
644 731.0078125 m 1
 644 -179.994140625 l 1
 515 -179.994140625 l 1
 515 620.0078125 l 5
 204 620.0078125 l 5
 204 -179.994140625 l 1
 75 -179.994140625 l 1
 75 731.0078125 l 1
 644 731.0078125 l 1
EndSplineSet
Validated: 524289
EndChar

StartChar: summation
Encoding: 8721 8721 129
Width: 634
Flags: W
HStem: -179.994 110<213 584> 621.008 110<233 584>
LayerCount: 2
Back
SplineSet
264 585.0078125 m 5
 394 410 l 5
 394 319 l 5
 244 146 l 5
 544 146 l 5
 544 0 l 5
 55 0 l 5
 55 161 l 5
 235 358 l 5
 55 589 l 5
 55 731.0078125 l 5
 544 731.0078125 l 5
 544 585.0078125 l 5
 264 585.0078125 l 5
EndSplineSet
Fore
SplineSet
233 621.0078125 m 1
 433 330 l 5
 433 239 l 5
 213 -69.994140625 l 1
 584 -69.994140625 l 1
 584 -179.994140625 l 1
 75 -179.994140625 l 1
 75 -54.994140625 l 1
 315 278 l 5
 75 625 l 1
 75 731.0078125 l 1
 584 731.0078125 l 1
 584 621.0078125 l 1
 233 621.0078125 l 1
EndSplineSet
Validated: 524289
EndChar

StartChar: approxequal
Encoding: 8776 8776 130
Width: 450
VWidth: 999
Flags: W
HStem: 197 90<240.234 372.228> 246 89<85.3077 212.515> 387 90<240.234 372.228> 436 89<85.3077 212.515>
LayerCount: 2
Fore
SplineSet
438 255 m 1x80
 438 255 386.065429688 197 306 197 c 0x80
 228.461914062 197 202.615234375 246 146 246 c 0
 100.289855072 246 63 207 63 207 c 1
 12 285 l 1
 12 285 69.3447265625 335 144 335 c 0x40
 221.73838501 335 254.33838501 287 307 287 c 0
 360.584615385 287 388 323 388 323 c 1
 438 255 l 1x80
438 445 m 1
 438 445 386.065429688 387 306 387 c 0x20
 228.461914062 387 202.615234375 436 146 436 c 0
 100.289855072 436 63 397 63 397 c 1
 12 475 l 1
 12 475 69.3447265625 525 144 525 c 4x10
 221.73838501 525 254.33838501 477 307 477 c 0x20
 360.584615385 477 388 513 388 513 c 1
 438 445 l 1
EndSplineSet
Validated: 524289
EndChar

StartChar: perthousand
Encoding: 8240 8240 131
Width: 1263
Flags: W
HStem: -9.99805 91.7803<664.192 789.865 965.256 1090.93> 0 21G<201 322.175> 270.072 91.7793<664.192 792.085 963.037 1090.93> 367.143 91.7793<173.271 290.216> 647.212 91.7803<173.271 292.554> 711.008 20G<633.825 755>
VStem: 45 101.66<485.46 621.627> 318.41 99.5498<485.46 621.627> 536 100.66<109.119 243.703> 819.41 117.25<108.545 245.115> 851 52.96<74.4222 278.624> 1119.41 99.5498<111.243 241.587>
LayerCount: 2
Fore
SplineSet
936.66015625 176.481445312 m 4xb3d0
 936.66015625 108.54474655 977.529296875 81.7822265625 1027.48046875 81.7822265625 c 4
 1076.80892861 81.7822265625 1119.41015625 108.54474655 1119.41015625 176.481445312 c 4
 1119.41015625 245.115333782 1076.80892861 270.072265625 1027.48046875 270.072265625 c 4
 977.529296875 270.072265625 936.66015625 245.115333782 936.66015625 176.481445312 c 4xb3d0
851 176.481445312 m 4xb3b0
 851 278.623614564 919.039845377 361.8515625 1037.48046875 361.8515625 c 4
 1158.92551281 361.8515625 1218.95996094 278.623614564 1218.95996094 176.481445312 c 4
 1218.95996094 74.4221678792 1158.92551281 -9.998046875 1037.48046875 -9.998046875 c 4
 919.039845377 -9.998046875 851 74.4221678792 851 176.481445312 c 4xb3b0
636.66015625 176.481445312 m 4
 636.66015625 108.544480014 677.528781378 81.7822265625 727.48046875 81.7822265625 c 4
 776.808844245 81.7822265625 819.41015625 108.544480014 819.41015625 176.481445312 c 4xb3d0
 819.41015625 245.115190869 776.808844245 270.072265625 727.48046875 270.072265625 c 4
 677.528781378 270.072265625 636.66015625 245.115190869 636.66015625 176.481445312 c 4
536 176.481445312 m 4
 536 278.624023438 596.034456788 361.8515625 717.48046875 361.8515625 c 4
 835.920133695 361.8515625 903.959960938 278.623614564 903.959960938 176.481445312 c 4xb3b0
 903.959960938 74.4221678792 835.920133695 -9.998046875 717.48046875 -9.998046875 c 4
 596.034456788 -9.998046875 536 74.4218750003 536 176.481445312 c 4
146.66015625 553.622070312 m 4
 146.66015625 485.685258294 184.828815434 458.921875 231.48046875 458.921875 c 4
 278.125903792 458.921875 318.41015625 485.685258294 318.41015625 553.622070312 c 4
 318.41015625 622.254781506 278.125903792 647.211914062 231.48046875 647.211914062 c 4x3b90
 184.828815434 647.211914062 146.66015625 622.254781506 146.66015625 553.622070312 c 4
45 553.622070312 m 4
 45 655.764648438 113.040039062 738.9921875 231.48046875 738.9921875 c 4
 349.919921875 738.9921875 417.959960938 655.764648438 417.959960938 553.622070312 c 4
 417.959960938 451.5625 349.919921875 367.142578125 231.48046875 367.142578125 c 4
 113.040039062 367.142578125 45 451.5625 45 553.622070312 c 4
EndSplineSet
Refer: 138 8260 N 1 0 0 1 301 0 2
Validated: 524293
EndChar

StartChar: uni2031
Encoding: 8241 8241 132
Width: 1573
Flags: W
HStem: -9.99805 91.7803<664.192 789.865 968.635 1096.49 1275.26 1400.93> 0 21G<201 322.175> 270.072 91.7793<664.192 792.085 968.635 1096.49 1273.04 1400.93> 367.143 91.7793<173.271 290.216> 647.212 91.7803<173.271 292.554> 711.008 20G<633.825 755>
VStem: 45 101.66<485.46 621.627> 318.41 99.5498<485.46 621.627> 536 100.66<109.119 243.703> 819.41 122.25<108.545 245.115> 846 57.96<74.4222 278.624> 1124.41 122.25<108.545 245.115> 1161 57.96<74.4222 278.624> 1429.41 99.5498<111.243 241.587>
LayerCount: 2
Fore
SplineSet
1246.66015625 176.481445312 m 0xb394
 1246.66015625 108.54474655 1287.52929688 81.7822265625 1337.48046875 81.7822265625 c 4
 1386.80892861 81.7822265625 1429.41015625 108.54474655 1429.41015625 176.481445312 c 0
 1429.41015625 245.115333782 1386.80892861 270.072265625 1337.48046875 270.072265625 c 0
 1287.52929688 270.072265625 1246.66015625 245.115333782 1246.66015625 176.481445312 c 0xb394
1161 176.481445312 m 0xb38c
 1161 278.623614564 1229.03984537 361.8515625 1347.48046875 361.8515625 c 0
 1468.92551281 361.8515625 1528.95996094 278.623614564 1528.95996094 176.481445312 c 0
 1528.95996094 74.4221678792 1468.92551281 -9.998046875 1347.48046875 -9.998046875 c 0
 1229.03984537 -9.998046875 1161 74.4221678792 1161 176.481445312 c 0xb38c
941.66015625 176.481445312 m 0xb3d4
 941.66015625 108.54474655 982.529296875 81.7822265625 1032.48046875 81.7822265625 c 0
 1081.80892861 81.7822265625 1124.41015625 108.54474655 1124.41015625 176.481445312 c 0
 1124.41015625 245.115333782 1081.80892861 270.072265625 1032.48046875 270.072265625 c 0
 982.529296875 270.072265625 941.66015625 245.115333782 941.66015625 176.481445312 c 0xb3d4
846 176.481445312 m 0xb3ac
 846 278.623614564 907.688476562 361.8515625 1032.48046875 361.8515625 c 0
 1157.27148438 361.8515625 1218.95996094 278.623614564 1218.95996094 176.481445312 c 0
 1218.95996094 74.4221678792 1157.27148438 -9.998046875 1032.48046875 -9.998046875 c 0
 907.688476562 -9.998046875 846 74.4221678792 846 176.481445312 c 0xb3ac
636.66015625 176.481445312 m 0
 636.66015625 108.544480014 677.528781378 81.7822265625 727.48046875 81.7822265625 c 0
 776.808844245 81.7822265625 819.41015625 108.544480014 819.41015625 176.481445312 c 0xb3c4
 819.41015625 245.115190869 776.808844245 270.072265625 727.48046875 270.072265625 c 0
 677.528781378 270.072265625 636.66015625 245.115190869 636.66015625 176.481445312 c 0
536 176.481445312 m 0
 536 278.624023438 596.034456788 361.8515625 717.48046875 361.8515625 c 0
 835.920133695 361.8515625 903.959960938 278.623614564 903.959960938 176.481445312 c 0xb3a4
 903.959960938 74.4221678792 835.920133695 -9.998046875 717.48046875 -9.998046875 c 0
 596.034456788 -9.998046875 536 74.4218750003 536 176.481445312 c 0
146.66015625 553.622070312 m 0
 146.66015625 485.685258294 184.828815434 458.921875 231.48046875 458.921875 c 0
 278.125903792 458.921875 318.41015625 485.685258294 318.41015625 553.622070312 c 0
 318.41015625 622.254781506 278.125903792 647.211914062 231.48046875 647.211914062 c 0x3b84
 184.828815434 647.211914062 146.66015625 622.254781506 146.66015625 553.622070312 c 0
45 553.622070312 m 0
 45 655.764648438 113.040039062 738.9921875 231.48046875 738.9921875 c 0
 349.919921875 738.9921875 417.959960938 655.764648438 417.959960938 553.622070312 c 0
 417.959960938 451.5625 349.919921875 367.142578125 231.48046875 367.142578125 c 0
 113.040039062 367.142578125 45 451.5625 45 553.622070312 c 0
EndSplineSet
Refer: 138 8260 N 1 0 0 1 301 0 2
Validated: 524293
EndChar

StartChar: uni203D
Encoding: 8253 8253 133
Width: 566
Flags: W
HStem: -10 146.449<184.026 291.973> 292 100.049<229.613 342.651> 628.229 110.764<134.838 365.67>
VStem: 165.387 145.227<8.79685 117.652> 180 118<545.567 791.008> 196 86<230 475.441> 388.096 123.774<435.186 574.19>
LayerCount: 2
Fore
SplineSet
196 230 m 1xe6
 180 791.0078125 l 1
 298 791.0078125 l 1xea
 282 230 l 1
 196 230 l 1xe6
165.38671875 63.224609375 m 0xf2
 165.38671875 107.584937143 194.008990842 136.44921875 237.999023438 136.44921875 c 0
 281.990077228 136.44921875 310.61328125 107.584937143 310.61328125 63.224609375 c 0
 310.61328125 18.8635145521 281.990077228 -10 237.999023438 -10 c 0
 194.008990842 -10 165.38671875 18.8635145521 165.38671875 63.224609375 c 0xf2
212.422851562 305 m 5
 224.15625 396.46875 l 1
 224.15625 396.46875 235.790985605 392.048828125 250.3984375 392.048828125 c 0
 343.53326995 392.048828125 388.095703125 430.833698328 388.095703125 503.145507812 c 0
 388.095703125 589.895139329 328.517791714 628.228515625 229.89453125 628.228515625 c 0
 147.037657147 628.228515625 76.923828125 573.958007812 76.923828125 573.958007812 c 1
 30.2412109375 685.311523438 l 1
 30.2412109375 685.311523438 107.214943005 738.9921875 229.89453125 738.9921875 c 0
 399.015321407 738.9921875 511.870117188 661.327703299 511.870117188 505.010742188 c 0
 511.870117188 357.985517121 387.43159851 292 278 292 c 4
 235.061654569 292 212.422851562 305 212.422851562 305 c 5
EndSplineSet
Validated: 524293
EndChar

StartChar: lira
Encoding: 8356 8356 134
Width: 553
Flags: W
HStem: 0 109<190.319 513> 215 86<70 414> 345 86<70 414> 627.621 111.841<236.806 439.94>
VStem: 79.3516 127.979<450.954 600.722> 156.824 117.657<210.419 342.531>
LayerCount: 2
Fore
SplineSet
513 0 m 5xf4
 40 0 l 1
 40 105 l 1
 40 105 156.82421875 180.513671875 156.82421875 289.379882812 c 0xf4
 156.82421875 391.588284089 79.3515625 418.16779209 79.3515625 547.185546875 c 0
 79.3515625 671.398535433 171.462698585 739.461914062 302.80859375 739.461914062 c 0
 435.626576252 739.461914062 494.95703125 703.405273438 494.95703125 703.405273438 c 5
 464.9375 596.024414062 l 5
 464.9375 596.024414062 399.569604874 627.62109375 327.80859375 627.62109375 c 0
 261.090452342 627.62109375 207.330078125 613.31252017 207.330078125 541.024414062 c 0xf8
 207.330078125 443.933526505 274.481445312 411.968409612 274.481445312 290.158203125 c 0
 274.481445312 177.904192501 190.319335938 109 190.319335938 109 c 1
 513 109 l 5
 513 0 l 5xf4
414 215 m 5
 70 215 l 1
 70 301 l 1
 414 301 l 5
 414 215 l 5
414 345 m 5
 70 345 l 1
 70 431 l 1
 414 431 l 5
 414 345 l 5
EndSplineSet
Validated: 524293
EndChar

StartChar: uni20B5
Encoding: 8373 8373 135
Width: 623
Flags: W
HStem: -9.99805 79.4678<305 444> 655 84.1211<305 444>
VStem: 35 174.849<245.278 483.845> 305 139<-105 69.4697 655 829.47>
LayerCount: 2
Fore
SplineSet
35 364.561523438 m 0
 35 591.206054688 162.092858137 739.12109375 385.888671875 739.12109375 c 0
 537.397841668 739.12109375 599.681640625 672.891601562 599.681640625 672.891601562 c 1
 538.35546875 535.138671875 l 1
 538.35546875 535.138671875 493.611082679 586.659179688 402.888671875 586.659179688 c 4
 267.66339581 586.659179688 209.848632812 497.743164062 209.848632812 364.561523438 c 4
 209.848632812 231.379882812 267.66339581 142.463867188 402.888671875 142.463867188 c 4
 502.99694999 142.463867188 556.018554688 188.595703125 556.018554688 188.595703125 c 1
 602.827148438 44.595703125 l 1
 602.827148438 44.595703125 536.561329272 -9.998046875 385.888671875 -9.998046875 c 0
 162.092858137 -9.998046875 35 137.916992188 35 364.561523438 c 0
305 -105 m 1
 305 69.4697265625 l 1
 444 69.4697265625 l 1
 444 -105 l 1
 305 -105 l 1
305 655 m 1
 305 829.469726562 l 1
 444 829.469726562 l 1
 444 655 l 1
 305 655 l 1
EndSplineSet
Validated: 5
EndChar

StartChar: uni20B2
Encoding: 8370 8370 136
Width: 749
Flags: W
HStem: -9.99805 79.4678<305 444> 286 138<366 482.019 640.827 724> 286 18.5957<482.019 640.827> 655 84.1211<305 444>
VStem: 35 174.849<234.094 486.107> 305 139<-105 69.4697 655 829.47> 497.481 154.001<181.442 285.806>
LayerCount: 2
Fore
SplineSet
305 -105 m 1x9e
 305 69.4697265625 l 1
 444 69.4697265625 l 1
 444 -105 l 1
 305 -105 l 1x9e
305 655 m 1
 305 829.469726562 l 1
 444 829.469726562 l 1
 444 655 l 1
 305 655 l 1
724 286 m 1xde
 366 286 l 1
 366 424 l 1
 724 424 l 1
 724 286 l 1xde
35 364.561523438 m 0
 35 591.206054688 165.120861124 739.12109375 378.888671875 739.12109375 c 0
 535.358283687 739.12109375 599.681640625 672.891601562 599.681640625 672.891601562 c 1
 538.35546875 535.138671875 l 1
 538.35546875 535.138671875 488.986934481 586.659179688 388.888671875 586.659179688 c 0
 263.470077856 586.659179688 209.848632812 497.743164062 209.848632812 364.561523438 c 0
 209.848632812 231.379882812 252.735934985 142.463867188 369.888671875 142.463867188 c 0
 461.013221313 142.463867188 497.481445312 186.262045972 497.481445312 252 c 0
 497.481445312 288.78559257 482.018554688 304.595703125 482.018554688 304.595703125 c 5
 640.827148438 304.595703125 l 1xbe
 640.827148438 304.595703125 651.482421875 285.24972273 651.482421875 222 c 0
 651.482421875 93.0859042083 560.855648762 -9.998046875 369.888671875 -9.998046875 c 0
 156.581170726 -9.998046875 35 137.916992188 35 364.561523438 c 0
EndSplineSet
Validated: 5
EndChar

StartChar: uni20BA
Encoding: 8378 8378 137
Width: 648
Flags: W
HStem: 0 146<264 380.808> 711.008 20G<95 264>
VStem: 95 169<146 731.008>
LayerCount: 2
Fore
SplineSet
404 355 m 1
 30 245 l 1
 30 331 l 1
 404 441 l 1
 404 355 l 1
404 485 m 1
 30 375 l 1
 30 461 l 1
 404 571 l 1
 404 485 l 1
264 146 m 1
 300 146 l 2
 467.282608696 146 471 320 471 320 c 1
 624 296 l 5
 624 296 615.162790698 -3.73590047786e-14 300 0 c 2
 95 0 l 1
 95 731.0078125 l 1
 264 731.0078125 l 1
 264 146 l 1
EndSplineSet
Validated: 5
EndChar

StartChar: fraction
Encoding: 8260 8260 138
Width: 304
Flags: W
HStem: 0 21G<-100 21.175> 711.008 20G<332.825 454>
LayerCount: 2
Fore
SplineSet
-100 0 m 1
 345 731.0078125 l 1
 454 731.0078125 l 5
 9 0 l 5
 -100 0 l 1
EndSplineSet
Validated: 524289
EndChar

StartChar: endash
Encoding: 8211 8211 139
Width: 570
Flags: W
HStem: 228 103<50 520>
LayerCount: 2
Fore
SplineSet
50 228 m 5
 50 331 l 1
 520 331 l 1
 520 228 l 5
 50 228 l 5
EndSplineSet
Validated: 1
EndChar

StartChar: emdash
Encoding: 8212 8212 140
Width: 820
Flags: W
HStem: 228 103<30 790>
LayerCount: 2
Fore
SplineSet
30 228 m 5
 30 331 l 5
 790 331 l 5
 790 228 l 5
 30 228 l 5
EndSplineSet
Validated: 1
EndChar

StartChar: Euro
Encoding: 8364 8364 141
Width: 683
Flags: W
HStem: -9.99805 152.462<366.642 573.313> 260 86<30 454.957> 390 86<30 477.879> 586.659 152.462<366.642 554.407>
LayerCount: 2
Fore
SplineSet
454.95703125 260 m 5
 30 260 l 1
 30 346 l 1
 470.12109375 346 l 5
 454.95703125 260 l 5
477.87890625 390 m 5
 30 390 l 1
 30 476 l 1
 493.04296875 476 l 5
 477.87890625 390 l 5
95 364.561523438 m 0
 95 591.206054688 222.092773438 739.12109375 445.888671875 739.12109375 c 0
 597.397460938 739.12109375 659.681640625 672.891601562 659.681640625 672.891601562 c 1
 598.35546875 535.138671875 l 1
 598.35546875 535.138671875 553.610628775 586.659179688 462.888671875 586.659179688 c 4
 327.663085938 586.659179688 269.848632812 497.743164062 269.848632812 364.561523438 c 4
 269.848632812 231.379882812 327.663085938 142.463867188 462.888671875 142.463867188 c 4
 562.996719722 142.463867188 616.018554688 188.595703125 616.018554688 188.595703125 c 1
 662.827148438 44.595703125 l 1
 662.827148438 44.595703125 596.561523438 -9.998046875 445.888671875 -9.998046875 c 0
 222.092773438 -9.998046875 95 137.916992188 95 364.561523438 c 0
EndSplineSet
Validated: 5
EndChar

StartChar: uni20AD
Encoding: 8365 8365 142
Width: 665
Flags: W
HStem: 0 21G<91 260 440.302 655> 295 121<30 614> 711.008 20G<91 260 438.273 645>
VStem: 91 169<0 311 401 731.008> 241 19<311 401>
LayerCount: 2
Fore
SplineSet
614 295 m 5xe0
 30 295 l 1
 30 416 l 1
 614 416 l 5
 614 295 l 5xe0
454 0 m 1
 241 311 l 1
 241 401 l 1xe8
 451 731.0078125 l 1
 645 731.0078125 l 1
 391 372 l 1
 655 0 l 1
 454 0 l 1
91 0 m 1xf0
 91 731.0078125 l 1
 260 731.0078125 l 1
 260 0 l 1
 91 0 l 1xf0
EndSplineSet
Validated: 5
EndChar

StartChar: uni20B9
Encoding: 8377 8377 143
Width: 574
Flags: W
HStem: 0 21G<326.545 505> 256 140.352<30 252.318> 450 86<30 544> 584.649 146.358<30 258.382>
VStem: 295.929 169.849<398.694 611.436>
LayerCount: 2
Fore
SplineSet
144 256 m 2
 30 256 l 1
 30 396.3515625 l 1
 166.888671875 396.461914062 l 2
 240.571328277 396.520003644 295.928710938 413.202148438 295.928710938 489.561523438 c 4
 295.928710938 566.786132812 240.567304776 584.492537318 167.888671875 584.545898438 c 2
 30 584.649414062 l 1
 30 731.0078125 l 1
 183.888671875 731.0078125 l 2
 332 731.0078125 465.77734375 669.334960938 465.77734375 504.561523438 c 0
 465.77734375 370.825734629 355.688476562 331.276367188 355.688476562 331.276367188 c 1
 355.688476562 331.276367188 414.803280543 313.056105042 448.702148438 195.399414062 c 2
 505 0 l 1
 332 0 l 1
 287 165 l 2
 264.464545876 247.629998455 241.683098592 256 144 256 c 2
544 450 m 1
 30 450 l 1
 30 536 l 1
 544 536 l 1
 544 450 l 1
EndSplineSet
Validated: 524293
EndChar

StartChar: uni20B4
Encoding: 8372 8372 144
Width: 677
Flags: W
HStem: -10 143.462<258.585 490.151> 255 86<30 647> 385 86<311.522 647> 594.659 144.462<186.388 391.846>
VStem: 70 164.182<157.34 250.254> 416.581 170.312<475.796 570.777>
LayerCount: 2
Fore
SplineSet
647 255 m 1
 30 255 l 1
 30 341 l 1
 647 341 l 1
 647 255 l 1
647 385 m 1
 30 385 l 1
 30 471 l 1
 647 471 l 1
 647 385 l 1
339.13671875 287.140625 m 0
 251.688476562 263.4765625 234.181640625 242.108398438 234.181640625 204 c 0
 234.181640625 157.45703125 273.415039062 133.461914062 355.823242188 133.461914062 c 0
 466.376953125 133.461914062 556.546875 181.982421875 556.546875 181.982421875 c 1
 593.703125 42.2294921875 l 1
 593.703125 42.2294921875 496.331054688 -10 342.71484375 -10 c 0
 164.947265625 -10 70 75.1845703125 70 212 c 0
 70 328.129882812 125.6640625 392.778320312 311.522460938 440.081054688 c 0
 394.508789062 461.202148438 416.581054688 485.005859375 416.581054688 523 c 0
 416.581054688 567.23046875 381.70703125 594.659179688 304.15625 594.659179688 c 0
 206.442382812 594.659179688 140.1484375 552.138671875 140.1484375 552.138671875 c 1
 97.7744140625 688.891601562 l 1
 97.7744140625 688.891601562 169.598632812 739.12109375 317.286132812 739.12109375 c 0
 484.87890625 739.12109375 586.892578125 652.115234375 586.892578125 517 c 0
 586.892578125 402.697265625 525.85546875 337.666992188 339.13671875 287.140625 c 0
EndSplineSet
Validated: 5
EndChar

StartChar: colonmonetary
Encoding: 8353 8353 145
Width: 623
Flags: W
HStem: -9.99805 79.4678<163.378 262.378 323.378 422.378> 586.659 152.462<270.265 424.74> 655 84.1211<266.622 365.622 426.622 525.622>
VStem: 35 174.849<245.278 483.845>
LayerCount: 2
Fore
SplineSet
292.614257812 -105 m 1x90
 323.377929688 69.4697265625 l 1
 422.377929688 69.4697265625 l 1
 391.614257812 -105 l 1
 292.614257812 -105 l 1x90
426.622070312 655 m 1xb0
 457.385742188 829.469726562 l 1
 556.385742188 829.469726562 l 1
 525.622070312 655 l 1
 426.622070312 655 l 1xb0
35 364.561523438 m 4
 35 591.206054688 162.092858137 739.12109375 385.888671875 739.12109375 c 4
 537.397841668 739.12109375 599.681640625 672.891601562 599.681640625 672.891601562 c 5
 538.35546875 535.138671875 l 5
 538.35546875 535.138671875 493.611082679 586.659179688 402.888671875 586.659179688 c 4xd0
 267.66339581 586.659179688 209.848632812 497.743164062 209.848632812 364.561523438 c 4
 209.848632812 231.379882812 267.66339581 142.463867188 402.888671875 142.463867188 c 4
 502.99694999 142.463867188 556.018554688 188.595703125 556.018554688 188.595703125 c 5
 602.827148438 44.595703125 l 5
 602.827148438 44.595703125 536.561329272 -9.998046875 385.888671875 -9.998046875 c 4
 162.092858137 -9.998046875 35 137.916992188 35 364.561523438 c 4
132.614257812 -105 m 1
 163.377929688 69.4697265625 l 1
 262.377929688 69.4697265625 l 1
 231.614257812 -105 l 1
 132.614257812 -105 l 1
266.622070312 655 m 1xb0
 297.385742188 829.469726562 l 1
 396.385742188 829.469726562 l 1
 365.622070312 655 l 1
 266.622070312 655 l 1xb0
EndSplineSet
Validated: 5
EndChar

StartChar: zero.inferior
Encoding: 8320 8320 148
Width: 455
Flags: W
HStem: -358 87.5<169.904 286.096> 55.5 87.5<169.904 286.096>
VStem: 30 95.5<-218.704 3.01732> 330.5 95.5<-218.704 3.01732>
LayerCount: 2
Fore
SplineSet
125.5 -108 m 0
 125.5 -206 156 -270.5 228 -270.5 c 0
 300 -270.5 330.5 -206 330.5 -108 c 0
 330.5 -10 300 55.5 228 55.5 c 0
 156 55.5 125.5 -10 125.5 -108 c 0
30 -108 m 0
 30 44 98.5 143 228 143 c 0
 357.5 143 426 44 426 -108 c 0
 426 -260 357.5 -358 228 -358 c 0
 98.5 -358 30 -260 30 -108 c 0
EndSplineSet
EndChar

StartChar: one.inferior
Encoding: 8321 8321 149
Width: 277
Flags: W
VStem: 134.5 99.5<-350 33>
LayerCount: 2
Fore
SplineSet
234 137 m 1
 234 -350 l 1
 134.5 -350 l 1
 134.5 33 l 1
 46 -15 l 1
 13.5 57 l 1
 145.5 137 l 1
 234 137 l 1
EndSplineSet
EndChar

StartChar: two.inferior
Encoding: 8322 8322 150
Width: 404
Flags: W
HStem: -350 85<140 379> 55 88<103.289 259.833>
VStem: 276.5 97.5<-58.1525 38.2619>
LayerCount: 2
Fore
SplineSet
276.5 -11 m 0
 276.5 28.5 253.5 55 188.5 55 c 0
 124.5 55 79 19 79 19 c 1
 45 101 l 1
 45 101 104 143 191 143 c 0
 305 143 374 92 374 -9 c 0
 374 -97.5 321 -135 233 -181 c 0
 144.5 -228 140.5 -255.5 140 -265 c 1
 379 -265 l 1
 379 -350 l 1
 35.5 -350 l 1
 35.5 -314 l 2
 35.5 -210.5 98.5 -153.5 209.5 -92.5 c 0
 254.5 -68 276.5 -42 276.5 -11 c 0
EndSplineSet
EndChar

StartChar: three.inferior
Encoding: 8323 8323 151
Width: 388
Flags: W
HStem: -358 85.5<64.724 238.835> -141.5 79<111 237.545> 54.5 88.5<70.9226 235.319>
VStem: 248.5 100<-50.5434 40.4407> 258 101<-254.007 -159.583>
LayerCount: 2
Fore
SplineSet
166 -62.5 m 2xe8
 228 -62.5 248.5 -43 248.5 -4.5 c 0
 248.5 29 229 54.5 164.5 54.5 c 0
 97.5 54.5 56 24.5 56 24.5 c 1
 27.5 107 l 1
 27.5 107 79.5 143 169 143 c 0
 280 143 348.5 95 348.5 5 c 0xf0
 348.5 -76 276 -100 276 -100 c 1
 276 -100 359 -123 359 -214 c 0
 359 -317 283 -358 168 -358 c 0
 71.5 -358 13.5 -323 13.5 -323 c 1
 41 -238 l 1
 41 -238 87.5 -272.5 161 -272.5 c 0
 228 -272.5 258 -248.5 258 -206.5 c 0
 258 -162.5 226.5 -141.5 166.5 -141.5 c 2
 111 -141.5 l 1
 111 -62.5 l 1
 166 -62.5 l 2xe8
EndSplineSet
EndChar

StartChar: four.inferior
Encoding: 8324 8324 152
Width: 439
Flags: W
HStem: -235 81<135 412.5>
VStem: 248.5 95.5<-350 -2>
LayerCount: 2
Fore
SplineSet
344 137 m 1
 344 -350 l 1
 248.5 -350 l 1
 248.5 -2 l 1
 135 -154 l 1
 412.5 -154 l 1
 412.5 -235 l 1
 46.5 -235 l 1
 27.5 -163.5 l 1
 250 137 l 1
 344 137 l 1
EndSplineSet
EndChar

StartChar: five.inferior
Encoding: 8325 8325 153
Width: 408
Flags: W
HStem: -357 87.5<68.6579 254.933> -107.5 78.5<139.778 260.425> 53 84<149 342.5>
VStem: 281 98<-244.333 -128.531>
LayerCount: 2
Fore
SplineSet
183.5 -357 m 0
 79 -357 17 -323 17 -323 c 1
 44 -236.5 l 1
 44 -236.5 101.5 -269.5 175.5 -269.5 c 0
 252 -269.5 281 -238 281 -186.5 c 0
 281 -137 254.5 -107.5 200.5 -107.5 c 0
 143.5 -107.5 124 -144.5 124 -144.5 c 1
 46 -125 l 1
 71.5 137 l 1
 342.5 137 l 1
 342.5 53 l 1
 149 53 l 1
 138.5 -52 l 1
 138.5 -52 159 -29 224.5 -29 c 0
 324.5 -29 379 -87 379 -184 c 0
 379 -291.5 313 -357 183.5 -357 c 0
EndSplineSet
EndChar

StartChar: six.inferior
Encoding: 8326 8326 154
Width: 427
Flags: W
HStem: -358 83<158.49 282.663> -110 76<157.178 283.548> 57.5 85.5<170.814 337.297>
VStem: 30 105.5<-246.278 -42.3375> 306 91.5<-251.48 -133.169>
LayerCount: 2
Fore
SplineSet
135.5 -192 m 0
 135.5 -239.5 160.5 -275 220.5 -275 c 0
 281 -275 306 -239.5 306 -192 c 0
 306 -144.5 281 -110 220.5 -110 c 0
 160.5 -110 135.5 -144.5 135.5 -192 c 0
122.5 -73.5 m 1
 122.5 -73.5 149.5 -34 234.5 -34 c 0
 334 -34 397.5 -98 397.5 -191 c 0
 397.5 -298 330 -358 221 -358 c 0
 101 -358 30 -285 30 -107 c 0
 30 54 105.5 143 240 143 c 0
 336.5 143 385 102 385 102 c 1
 354 25.5 l 1
 354 25.5 315.5 57.5 245.5 57.5 c 0
 167 57.5 127 11.5 122.5 -73.5 c 1
EndSplineSet
EndChar

StartChar: seven.inferior
Encoding: 8327 8327 155
Width: 402
Flags: W
HStem: 52 85<33.5 259.5>
VStem: 112.5 100<-350 -213.664>
LayerCount: 2
Fore
SplineSet
212.5 -350 m 1
 112.5 -350 l 1
 120 -128.5 259.5 52 259.5 52 c 1
 33.5 52 l 1
 33.5 137 l 1
 369.5 137 l 1
 369.5 67 l 1
 369.5 67 214.5 -113 212.5 -350 c 1
EndSplineSet
EndChar

StartChar: eight.inferior
Encoding: 8328 8328 156
Width: 440
Flags: W
HStem: -358 80.5<146.351 294.478> -133.5 75<173.5 269> -111 36.5<112 331> 61.5 81.5<158.292 283.71>
VStem: 30 94.5<-255.582 -155.835> 53.5 91<-42.1514 45.4885> 299 91<-41.6719 45.015> 316 94.5<-255.582 -155.835>
LayerCount: 2
Fore
SplineSet
220 -58.5 m 0xd6
 269 -58.5 299 -35.5 299 1.5 c 0
 299 39.5 270 61.5 220 61.5 c 0
 172 61.5 144.5 39.5 144.5 1.5 c 0
 144.5 -35.5 173.5 -58.5 220 -58.5 c 0xd6
220 143 m 0
 326 143 390 93 390 12 c 0
 390 -68 331 -111 220 -111 c 0xb6
 112 -111 53.5 -68 53.5 12 c 0
 53.5 93 116 143 220 143 c 0
220.5 -277.5 m 0
 282.5 -277.5 316 -251.5 316 -204.5 c 0
 316 -161 282.5 -133.5 220.5 -133.5 c 0
 158.5 -133.5 124.5 -161 124.5 -204.5 c 0xd9
 124.5 -251.5 158.5 -277.5 220.5 -277.5 c 0
220.5 -74.5 m 0xb9
 343 -74.5 410.5 -124 410.5 -212 c 0
 410.5 -301 336 -358 220.5 -358 c 0
 105 -358 30 -301 30 -212 c 0
 30 -124 98 -74.5 220.5 -74.5 c 0xb9
EndSplineSet
EndChar

StartChar: nine.inferior
Encoding: 8329 8329 157
Width: 426
Flags: W
HStem: -358 85.5<87.9716 252.6> -182 76<145.016 270.611> 59 84<144.552 269.938>
VStem: 30 93<-83.8796 36.4416> 293 104<-169.954 31.0515>
LayerCount: 2
Fore
SplineSet
293 -23 m 0
 293 24.5 268 59 208 59 c 0
 147.5 59 123 24.5 123 -23 c 0
 123 -70.5 147.5 -106 208 -106 c 0
 268 -106 293 -70.5 293 -23 c 0
301.5 -141 m 1
 301.5 -141 274.5 -182 192.5 -182 c 0
 93 -182 30 -117 30 -23.5 c 0
 30 83.5 97 143 206 143 c 0
 326 143 397 70 397 -108 c 0
 397 -269 321.5 -358 187 -358 c 0
 90.5 -358 42 -317 42 -317 c 1
 70.5 -240 l 1
 70.5 -240 109.5 -272.5 181.5 -272.5 c 0
 258 -272.5 297 -226 301.5 -141 c 1
EndSplineSet
EndChar

StartChar: zero.superior
Encoding: 8304 8304 158
Width: 455
Flags: W
HStem: 342 87.5<169.904 286.181> 755.5 87.5<169.904 286.181>
VStem: 30 95.5<481.296 703.017> 331 95.5<481.296 703.017>
LayerCount: 2
Fore
SplineSet
125.5 592 m 0
 125.5 494 156 429.5 228 429.5 c 0
 300 429.5 331 494 331 592 c 0
 331 690 300 755.5 228 755.5 c 0
 156 755.5 125.5 690 125.5 592 c 0
30 592 m 0
 30 744 98.5 843 228 843 c 0
 357.5 843 426.5 744 426.5 592 c 0
 426.5 440 357.5 342 228 342 c 0
 98.5 342 30 440 30 592 c 0
EndSplineSet
EndChar

StartChar: one.superior
Encoding: 185 185 159
Width: 277
Flags: W
VStem: 134.5 99.5<350 733>
LayerCount: 2
Fore
SplineSet
234 837 m 1
 234 350 l 1
 134.5 350 l 1
 134.5 733 l 1
 46 685 l 1
 13.5 757 l 1
 145.5 837 l 1
 234 837 l 1
EndSplineSet
EndChar

StartChar: two.superior
Encoding: 178 178 160
Width: 404
Flags: W
HStem: 350 85<140 379> 755 88<103.391 259.941>
VStem: 276.5 97.5<639.596 738.262>
LayerCount: 2
Fore
SplineSet
276.5 689 m 0
 276.5 728.5 254 755 189 755 c 0
 125 755 79 719 79 719 c 1
 45 800.5 l 1
 45 800.5 104 843 191 843 c 0
 305 843 374 792 374 691 c 0
 374 602.5 321 565 233 519 c 0
 144.5 472 140.5 444.5 140 435 c 1
 379 435 l 1
 379 350 l 1
 35.5 350 l 1
 35.5 386 l 2
 35.5 489.5 99.5 546.5 210 607.5 c 0
 255 632 276.5 658 276.5 689 c 0
EndSplineSet
EndChar

StartChar: three.superior
Encoding: 179 179 161
Width: 388
Flags: W
HStem: 342 85.5<64.724 238.835> 558.5 79<111 237.545> 754.5 88.5<71.5602 235.319>
VStem: 248.5 100<649.457 740.441> 258 101<446.23 540.632>
LayerCount: 2
Fore
SplineSet
166 637.5 m 2xe8
 228 637.5 248.5 657 248.5 695.5 c 0
 248.5 729 229 754.5 164.5 754.5 c 0
 97.5 754.5 56 724 56 724 c 1
 27.5 806.5 l 1
 27.5 806.5 79.5 843 169 843 c 0
 280 843 348.5 795 348.5 705 c 0xf0
 348.5 624 276 600 276 600 c 1
 276 600 359 577.5 359 486.5 c 0
 359 383.5 283 342 168 342 c 0
 71.5 342 13.5 376 13.5 376 c 1
 41 462 l 1
 41 462 87.5 427.5 161 427.5 c 0
 228 427.5 258 451.5 258 493.5 c 0
 258 537.5 226.5 558.5 166.5 558.5 c 2
 111 558.5 l 1
 111 637.5 l 1
 166 637.5 l 2xe8
EndSplineSet
EndChar

StartChar: four.superior
Encoding: 8308 8308 162
Width: 439
Flags: W
HStem: 465 81<135 412.5>
VStem: 248.5 95.5<350 696.5>
LayerCount: 2
Fore
SplineSet
344 837 m 1
 344 350 l 1
 248.5 350 l 1
 248.5 696.5 l 1
 135 546 l 1
 412.5 546 l 1
 412.5 465 l 1
 46.5 465 l 1
 27.5 536.5 l 1
 250 837 l 1
 344 837 l 1
EndSplineSet
EndChar

StartChar: five.superior
Encoding: 8309 8309 163
Width: 408
Flags: W
HStem: 343 87.5<68.6579 254.933> 592.5 78.5<139.778 260.425> 753 84<149 342.5>
VStem: 281 98<455.667 571.469>
LayerCount: 2
Fore
SplineSet
183.5 343 m 0
 79 343 17 377 17 377 c 1
 44 463.5 l 1
 44 463.5 101.5 430.5 175.5 430.5 c 0
 252 430.5 281 462 281 513.5 c 0
 281 563 254.5 592.5 200.5 592.5 c 0
 143.5 592.5 124 555.5 124 555.5 c 1
 46 575 l 1
 71.5 837 l 1
 342.5 837 l 1
 342.5 753 l 1
 149 753 l 1
 138.5 648 l 1
 138.5 648 159 671 224.5 671 c 0
 324.5 671 379 613 379 516 c 0
 379 408.5 313 343 183.5 343 c 0
EndSplineSet
EndChar

StartChar: six.superior
Encoding: 8310 8310 164
Width: 427
Flags: W
HStem: 342 83<158.49 282.663> 590 76<157.178 283.548> 757.5 85.5<170.814 336.63>
VStem: 30 105.5<453.722 657.662> 306 91.5<448.52 566.831>
LayerCount: 2
Fore
SplineSet
135.5 508 m 0
 135.5 460.5 160.5 425 220.5 425 c 0
 281 425 306 460.5 306 508 c 0
 306 555.5 281 590 220.5 590 c 0
 160.5 590 135.5 555.5 135.5 508 c 0
122.5 625.5 m 1
 122.5 625.5 149.5 666 234.5 666 c 0
 334 666 397.5 602 397.5 509 c 0
 397.5 402 330 342 221 342 c 0
 101 342 30 415 30 593 c 0
 30 754 105.5 843 240 843 c 0
 336.5 843 385 802 385 802 c 1
 354 725 l 1
 354 725 315.5 757.5 245.5 757.5 c 0
 167 757.5 127 711 122.5 625.5 c 1
EndSplineSet
EndChar

StartChar: seven.superior
Encoding: 8311 8311 165
Width: 402
Flags: W
HStem: 752 85<33.5 259.5>
VStem: 112.5 100<350 486.282>
LayerCount: 2
Fore
SplineSet
212.5 350 m 1
 112.5 350 l 1
 120 571.5 259.5 752 259.5 752 c 1
 33.5 752 l 1
 33.5 837 l 1
 369.5 837 l 1
 369.5 766.5 l 1
 369.5 766.5 214.5 587 212.5 350 c 1
EndSplineSet
EndChar

StartChar: eight.superior
Encoding: 8312 8312 166
Width: 443
Flags: W
HStem: 342 80.5<147.146 296.683> 566.5 75<174 271.5> 589 36.5<112.5 333.5> 761.5 81.5<158.961 286.118>
VStem: 30 94.5<445.041 543.548> 53.5 91<657.849 745.488> 302 91<658.328 745.015> 319 94.5<445.041 543.548>
LayerCount: 2
Fore
SplineSet
221.5 641.5 m 0xd6
 271.5 641.5 302 664.5 302 701.5 c 0
 302 739.5 272.5 761.5 221.5 761.5 c 0
 173 761.5 144.5 739.5 144.5 701.5 c 0
 144.5 664.5 174 641.5 221.5 641.5 c 0xd6
221.5 843 m 0
 328.5 843 393 793 393 712 c 0
 393 632 333.5 589 221.5 589 c 0xb6
 112.5 589 53.5 632 53.5 712 c 0
 53.5 793 116.5 843 221.5 843 c 0
222 422.5 m 0
 284.5 422.5 319 448.5 319 495.5 c 0
 319 539 284.5 566.5 222 566.5 c 0
 159.5 566.5 124.5 539 124.5 495.5 c 0xd9
 124.5 448.5 159.5 422.5 222 422.5 c 0
222 625.5 m 0xb9
 345.5 625.5 413.5 576 413.5 488 c 0
 413.5 399 338 342 222 342 c 0
 106 342 30 399 30 488 c 0
 30 576 98.5 625.5 222 625.5 c 0xb9
EndSplineSet
EndChar

StartChar: nine.superior
Encoding: 8313 8313 167
Width: 426
Flags: W
HStem: 342 85.5<87.9716 252.6> 518 76<145.016 270.611> 759 84<144.552 269.938>
VStem: 30 93<616.12 736.442> 293 104<530.046 731.051>
LayerCount: 2
Fore
SplineSet
293 677 m 0
 293 724.5 268 759 208 759 c 0
 147.5 759 123 724.5 123 677 c 0
 123 629.5 147.5 594 208 594 c 0
 268 594 293 629.5 293 677 c 0
301.5 559.5 m 1
 301.5 559.5 274.5 518 192.5 518 c 0
 93 518 30 583 30 676.5 c 0
 30 783.5 97 843 206 843 c 0
 326 843 397 770 397 592 c 0
 397 431 321.5 342 187 342 c 0
 90.5 342 42 383 42 383 c 1
 70.5 460 l 1
 70.5 460 109.5 427.5 181.5 427.5 c 0
 258 427.5 297 474.5 301.5 559.5 c 1
EndSplineSet
EndChar

StartChar: circumflex
Encoding: 710 710 168
Width: 362
Flags: W
HStem: 516 215.008
VStem: 21 320
LayerCount: 2
Fore
SplineSet
271 516 m 1
 181 627.432617188 l 5
 91 516 l 1
 21 546 l 1
 131 731.0078125 l 1
 231 731.0078125 l 1
 341 546 l 1
 271 516 l 1
EndSplineSet
Validated: 524289
EndChar

StartChar: caron
Encoding: 711 711 169
Width: 362
Flags: W
HStem: 526 215.008
VStem: 21 320
LayerCount: 2
Fore
SplineSet
91 741.0078125 m 1
 181 629.575195312 l 5
 271 741.0078125 l 1
 341 711.0078125 l 1
 231 526 l 1
 131 526 l 1
 21 711.0078125 l 1
 91 741.0078125 l 1
EndSplineSet
Validated: 524289
EndChar

StartChar: breve
Encoding: 728 728 170
Width: 322
VWidth: 999
Flags: W
HStem: 598.937 86.9375<97.6021 225.218> 715 20G<41.021 74.9434 247.877 281.799>
VStem: 5 312.82
LayerCount: 2
Fore
SplineSet
161.41015625 598.936523438 m 4
 51.853515625 598.936523438 5 693.762695312 5 693.762695312 c 1
 74.943359375 735 l 1
 74.943359375 735 94.0546875 685.874023438 161.41015625 685.874023438 c 4
 228.765625 685.874023438 247.876953125 735 247.876953125 735 c 1
 317.8203125 693.762695312 l 1
 317.8203125 693.762695312 270.966796875 598.936523438 161.41015625 598.936523438 c 4
EndSplineSet
Validated: 524289
EndChar

StartChar: dotaccent
Encoding: 729 729 171
Width: 248
Flags: W
HStem: 592.543 146.449<70.5263 178.473>
VStem: 51.8867 145.227<611.34 720.195>
LayerCount: 2
Fore
SplineSet
51.88671875 665.767578125 m 0
 51.88671875 710.128230376 80.5086376795 738.9921875 124.499023438 738.9921875 c 0
 168.490423077 738.9921875 197.11328125 710.128230376 197.11328125 665.767578125 c 0
 197.11328125 621.406124431 168.490423077 592.54296875 124.499023438 592.54296875 c 0
 80.5086376793 592.54296875 51.88671875 621.406124431 51.88671875 665.767578125 c 0
EndSplineSet
Validated: 524289
EndChar

StartChar: tilde
Encoding: 732 732 172
Width: 371
VWidth: 999
Flags: W
HStem: 606.364 96.9375<198.715 314.899> 654.934 96.0684<47.269 172.791> 712.364 20G<322.457 334.457>
LayerCount: 2
Fore
SplineSet
366.400390625 659.126953125 m 5xa0
 366.400390625 659.126953125 325.21667094 606.364257812 261.725585938 606.364257812 c 4xa0
 184.025828555 606.364257812 168.146367281 654.93359375 111.413085938 654.93359375 c 4
 75.646778061 654.93359375 46.46875 621.395507812 46.46875 621.395507812 c 5
 5 708.876953125 l 5
 5 708.876953125 50.4740803274 751.001953125 109.67578125 751.001953125 c 4x40
 186.14208399 751.001953125 208.187692034 703.301757812 259.98828125 703.301757812 c 4
 301.312897759 703.301757812 322.45703125 732.364257812 322.45703125 732.364257812 c 5
 366.400390625 659.126953125 l 5xa0
EndSplineSet
Validated: 524289
EndChar

StartChar: hungarumlaut
Encoding: 733 733 173
Width: 412
Flags: W
HStem: 536 205.008
LayerCount: 2
Fore
SplineSet
275 536 m 1
 207 556 l 5
 285 741.0078125 l 1
 391 711.0078125 l 1
 275 536 l 1
85 536 m 1
 17 556 l 5
 95 741.0078125 l 1
 201 711.0078125 l 1
 85 536 l 1
EndSplineSet
Validated: 524289
EndChar

StartChar: multiply
Encoding: 215 215 174
Width: 450
Flags: W
LayerCount: 2
Fore
SplineSet
418.040039062 486.944335938 m 1
 96.0556640625 164.959960938 l 1
 31.9599609375 229.055664062 l 5
 353.944335938 551.040039062 l 1
 418.040039062 486.944335938 l 1
353.944335938 164.959960938 m 1
 31.9599609375 486.944335938 l 1
 96.0556640625 551.040039062 l 1
 418.040039062 229.055664062 l 5
 353.944335938 164.959960938 l 1
EndSplineSet
Validated: 524293
EndChar

StartChar: divide
Encoding: 247 247 175
Width: 450
Flags: W
HStem: 133.496 127.804<175.019 274.981> 310 96<30 420> 454.7 127.804<175.019 274.981>
VStem: 161.648 126.703<146.983 247.812 468.187 569.017>
CounterMasks: 1 e0
LayerCount: 2
Fore
SplineSet
420 310 m 5
 30 310 l 5
 30 406 l 1
 420 406 l 1
 420 310 l 5
161.6484375 197.397460938 m 4
 161.6484375 236.110309415 186.619483682 261.299804688 224.999023438 261.299804688 c 4
 263.37958935 261.299804688 288.3515625 236.110309415 288.3515625 197.397460938 c 4
 288.3515625 158.684753485 263.37958935 133.49609375 224.999023438 133.49609375 c 4
 186.619483682 133.49609375 161.6484375 158.684753485 161.6484375 197.397460938 c 4
161.6484375 518.602539062 m 0
 161.6484375 557.31450274 186.619483682 582.50390625 224.999023438 582.50390625 c 0
 263.37958935 582.50390625 288.3515625 557.31450274 288.3515625 518.602539062 c 0
 288.3515625 479.888946808 263.37958935 454.700195312 224.999023438 454.700195312 c 0
 186.619483682 454.700195312 161.6484375 479.888946808 161.6484375 518.602539062 c 0
EndSplineSet
Validated: 524289
EndChar

StartChar: AE
Encoding: 198 198 176
Width: 1024
Flags: W
HStem: 0 111<654 974> 145 110<232 626> 307 116<590 914> 620.008 111<654 974>
VStem: 525 101<145 255> 525 61<637 731.008> 590 64<307 423>
AnchorPoint: "Anchor-0" 592 731 basechar 0
LayerCount: 2
Fore
SplineSet
914 307 m 1xf2
 590 307 l 1
 590 423 l 1
 914 423 l 1
 914 307 l 1xf2
654 620.0078125 m 1
 654 111 l 1
 974 111 l 1
 974 0 l 1
 525 0 l 1
 525 731.0078125 l 1xf6
 974 731.0078125 l 1
 974 620.0078125 l 1
 654 620.0078125 l 1
626 145 m 1xf8
 162 145 l 1
 232 255 l 1
 626 255 l 1
 626 145 l 1xf8
586 731.0078125 m 1xf4
 586 637 l 5
 176 0 l 1
 25 0 l 1
 515 731.0078125 l 1
 586 731.0078125 l 1xf4
EndSplineSet
Validated: 524293
EndChar

StartChar: ae
Encoding: 230 230 177
Width: 872
Flags: W
HStem: -9.99805 95.4619<556.629 781.947> -9.99805 96.4619<185.545 318.612> 205 91<465 712> 230.284 79.6494<202.715 367.777> 413.284 97.6494<539.319 672.625> 414.011 97<133.067 307.749>
VStem: 45 121.849<104.46 200.772> 351.929 92<158 368.01> 351.929 15.8486<230.284 309.934> 465 28.8486<205 296>
AnchorPoint: "Anchor-0" 417 501.011 basechar 0
LayerCount: 2
Fore
SplineSet
351.928710938 177.561523438 m 1x5340
 456 172 l 1
 435.570693855 57.3021474421 366.743302265 -9.998046875 234.888671875 -9.998046875 c 0
 112.97392633 -9.998046875 45 50 45 141 c 0
 45 286.71747631 179.512173798 309.797851562 367.928710938 309.93359375 c 1
 367.77734375 230.284179688 l 1x52c0
 197.365814326 230.168544417 166.848632812 202.59483915 166.848632812 153.561523438 c 0
 166.848632812 109.054697245 199.122371651 86.4638671875 251.888671875 86.4638671875 c 4
 304.32639831 86.4638671875 351.928710938 116.359162229 351.928710938 177.561523438 c 1x5340
443.928710938 158 m 1x0740
 351.928710938 165 l 1
 351.928710938 290.010742188 l 2
 351.928710938 376.663085936 302.187976053 414.010742188 234.928710938 414.010742188 c 0
 160.852612304 414.010742188 107.928710938 380.010742188 107.928710938 380.010742188 c 1
 76.9287109375 468.010742188 l 1
 76.9287109375 468.010742188 139.644361727 511.010742188 252 511.010742188 c 0
 365.56154983 511.010742188 443.928710938 442.926207049 443.928710938 340.010742188 c 2
 443.928710938 158 l 1x0740
EndSplineSet
Refer: 43 101 N 1 0 0 1 321 0 2
EndChar

StartChar: Eth
Encoding: 208 208 178
Width: 789
Flags: W
HStem: 0 115.352<266 476.579> 306 109<40 424> 615.649 115.358<266 477.024>
VStem: 137 129<115.352 615.649> 604.929 129.849<240.57 488.722>
LayerCount: 2
Fore
SplineSet
424 306 m 5
 40 306 l 1
 40 415 l 1
 424 415 l 5
 424 306 l 5
EndSplineSet
Refer: 5 68 N 1 0 0 1 62 0 2
Validated: 524293
EndChar

StartChar: eth
Encoding: 240 240 179
Width: 588
Flags: W
HStem: -9.99805 107.462<225.09 365.12> 410.284 100.649<225.452 368.496>
VStem: 58.0713 114.849<155.714 353.498> 420 118.849<156.122 440> 420 62.8486<281.562 353.936>
LayerCount: 2
Fore
SplineSet
191.078125 616.658203125 m 5xe0
 497.991210938 710.080078125 l 1
 522.170898438 625.467773438 l 1
 215.256835938 532.044921875 l 5
 191.078125 616.658203125 l 5xe0
420 251.561523438 m 0xf0
 420 500.495382689 369.833218484 564.917545341 242.93359375 704.548828125 c 1
 347.827148438 771.274414062 l 1
 347.827148438 771.274414062 538.848632812 601 538.848632812 279 c 0xf0
 538.848632812 93.8330078125 446.748844959 -9.998046875 296.959960938 -9.998046875 c 0
 148.461719112 -9.998046875 58.0712890625 94.0830078123 58.0712890625 253.561523438 c 0
 58.0712890625 409.295898438 139.759765625 510.93359375 282 510.93359375 c 0
 399.534179688 510.93359375 482.848632812 423.747070312 482.848632812 281.561523438 c 1xe8
 420 273.561523438 l 1
 420 353.935502285 377.842238991 410.284179688 298.848632812 410.284179688 c 0
 210.634334977 410.284179688 172.919921875 347.540547667 172.919921875 253.561523438 c 0
 172.919921875 159.957562104 210.068945466 97.4638671875 296.959960938 97.4638671875 c 0
 385.65914996 97.4638671875 420 173.621891681 420 251.561523438 c 0xf0
EndSplineSet
Validated: 524293
EndChar

StartChar: Thorn
Encoding: 222 222 180
Width: 650
Flags: W
HStem: 0 21G<75 204> 154 96.3516<164 418.376> 500.649 100.358<165 418.682> 711.008 20G<75 204>
VStem: 75 129<0 154 250.352 500.649 601.008 731.008> 165 39<154 250.352 500.649 601.008> 475.929 119.849<300.457 449.88>
LayerCount: 2
Fore
SplineSet
75 0 m 1xfa
 75 731.0078125 l 1
 204 731.0078125 l 1
 204 0 l 1
 75 0 l 1xfa
164 154 m 1
 164 250.3515625 l 1
 299.888671875 250.461914062 l 6
 400.671801342 250.598688888 475.928710938 272.776390232 475.928710938 374.561523438 c 0
 475.928710938 476.990945812 400.660673417 500.51233959 299.888671875 500.545898438 c 6
 165 500.649414062 l 1
 165 601.0078125 l 1xf6
 338.888671875 601.0078125 l 2
 474.05048035 601.0078125 595.77734375 539.335495382 595.77734375 374.561523438 c 0
 595.77734375 213.240207598 473.259109269 154 338.888671875 154 c 2
 164 154 l 1
EndSplineSet
Validated: 524293
EndChar

StartChar: thorn
Encoding: 254 254 181
Width: 602
Flags: W
HStem: -9.99805 101.462<244.753 383.348> 410.284 100.649<247.553 384.552> 731.002 20G<75 194>
VStem: 75 119<-180 751.002> 126.151 67.8486<66.4395 183.562> 151.151 42.8486<283.562 425.747> 434.08 114.849<149.224 354.935>
LayerCount: 2
Fore
SplineSet
75 -180 m 1xf2
 75 751.001953125 l 1
 194 751.001953125 l 1
 194 -180 l 1
 75 -180 l 1xf2
194 213.561523438 m 1
 194 154.076084148 231.148766074 91.4638671875 318.040039062 91.4638671875 c 0
 399.326308172 91.4638671875 434.080078125 156.35872751 434.080078125 253.561523438 c 0
 434.080078125 347.540547667 399.360566887 410.284179688 318.151367188 410.284179688 c 0
 231.183212783 410.284179688 194 359.55140297 194 283.561523438 c 1xf2
 194 283.561523438 151.151367188 283.561523438 151.151367188 283.561523438 c 1xe6
 151.151367188 425.747070312 223.529013948 510.93359375 335 510.93359375 c 0
 470.888202347 510.93359375 548.928710938 409.295898438 548.928710938 253.561523438 c 0
 548.928710938 94.0830078123 467.240827886 -9.998046875 333.040039062 -9.998046875 c 4
 204.433970184 -9.998046875 126.151367188 66.439453125 126.151367188 183.561523438 c 1xea
 194 213.561523438 l 1
EndSplineSet
Validated: 524293
EndChar

StartChar: kgreenlandic
Encoding: 312 312 182
Width: 555
Flags: W
HStem: 0 21G<75 194 356.9 525> 481.011 20G<75 194 353.239 515>
VStem: 75 119<0 221 291 501.011> 175 19<221 291>
LayerCount: 2
Fore
SplineSet
375 0 m 1xd0
 175 221 l 1
 175 291 l 1
 372 501.010742188 l 1
 515 501.010742188 l 1
 285 265 l 5
 525 0 l 1
 375 0 l 1xd0
75 0 m 1xe0
 75 501.010742188 l 1
 194 501.010742188 l 1
 194 0 l 1
 75 0 l 1xe0
EndSplineSet
Validated: 524293
EndChar

StartChar: Eng
Encoding: 330 330 183
Width: 719
Flags: W
HStem: -189.994 100<338.552 492.288> 0 21G<75 202> 711.008 20G<75 220.301 517 644>
VStem: 75 127<0 515.005> 517 127<228.6 731.008>
LayerCount: 2
Back
SplineSet
75 0 m 5
 75 731.0078125 l 5
 208 731.0078125 l 5
 517 228.599609375 l 5
 517 731.0078125 l 5
 644 731.0078125 l 5
 644 0 l 5
 511 0 l 5
 202 515.004882812 l 5
 202 0 l 5
 75 0 l 5
EndSplineSet
Fore
SplineSet
75 0 m 1
 75 731.0078125 l 1
 208 731.0078125 l 1
 517 228.599609375 l 1
 517 731.0078125 l 1
 644 731.0078125 l 1
 644 -3 l 2
 644 -125.529296875 590.362068966 -189.994140625 461 -189.994140625 c 0
 376.644138089 -189.994140625 327 -169.994140625 327 -169.994140625 c 1
 341 -74.994140625 l 1
 341 -74.994140625 380.17166842 -89.994140625 435 -89.994140625 c 0
 484.376034917 -89.994140625 511.285542013 -67.8149525584 515.4765625 -7.3369140625 c 1
 202 515.004882812 l 1
 202 0 l 1
 75 0 l 1
EndSplineSet
Validated: 524289
Substitution2: "'ss06' Style Set 6 lookup 7-1" Eng.ss06
EndChar

StartChar: eng
Encoding: 331 331 184
Width: 595
Flags: W
HStem: -189.994 100<255.313 382.031> 0 21G<75 194> 415.284 95.6494<240.933 364.325> 481.011 20G<75 194>
VStem: 75 119<0 501.011> 401.777 119<-70.5239 375.417>
LayerCount: 2
Fore
SplineSet
75 0 m 1xdc
 75 501.010742188 l 1
 194 501.010742188 l 1
 194 0 l 1
 75 0 l 1xdc
194 284 m 1
 139 293.561523438 l 1
 160.874026638 444 212.742126105 510.93359375 342 510.93359375 c 0
 460.06226382 510.93359375 520.77734375 444.084682028 520.77734375 304.561523438 c 2
 520.77734375 -9 l 2
 520.77734375 -117.937600252 471.82921062 -189.994140625 353.77734375 -189.994140625 c 0
 288.752403846 -189.994140625 243.77734375 -171.994140625 243.77734375 -171.994140625 c 1
 257.77734375 -77.994140625 l 1
 257.77734375 -77.994140625 284.030932617 -89.994140625 320.77734375 -89.994140625 c 0
 377.805294552 -89.994140625 401.77734375 -64.6929358057 401.77734375 -5.994140625 c 2
 401.77734375 287.561523438 l 2
 401.77734375 368.212193634 371.136246145 415.284179688 299 415.284179688 c 0xec
 225.446886177 415.284179688 194 362.725020039 194 284 c 1
EndSplineSet
Validated: 524293
EndChar

StartChar: OE
Encoding: 338 338 185
Width: 991
Flags: W
HStem: 0 111<621 946> 0 111.462<306.966 532.777> 307 116<557 886> 620.008 111<621 946> 620.546 110.462<312.753 532.777>
VStem: 55 124.849<239.564 489.971> 557 64<307 423>
LayerCount: 2
Fore
SplineSet
532.77734375 111.3515625 m 1x6e
 532.77734375 0 l 1
 428.888671875 0 l 6
 233.319335938 0 55 97.9169921874 55 364.561523438 c 0
 55 631.206054688 232.16796875 731.0078125 428.888671875 731.0078125 c 6
 532.77734375 731.0078125 l 1
 532.77734375 620.649414062 l 1
 448.888671875 620.545898438 l 6
 294.863745638 620.386174409 179.848632812 572.684246322 179.848632812 364.561523438 c 0
 179.848632812 156.972695957 294.863745638 111.630463964 448.888671875 111.461914062 c 6
 532.77734375 111.3515625 l 1x6e
EndSplineSet
Refer: 10 69 N 1 0 0 1 417 0 2
Validated: 524293
EndChar

StartChar: longs
Encoding: 383 383 187
Width: 269
Flags: W
HStem: 0 21G<75 194> 666.011 95<222.345 350.465>
VStem: 75 119<0 638.384>
AnchorPoint: "Anchor-0" 256 752.002 basechar 0
LayerCount: 2
Fore
SplineSet
194 557.010742188 m 2
 194 0 l 1
 75 0 l 1
 75 570.010742188 l 2
 75 684.97265625 126.879159066 761.010742188 252 761.010742188 c 0
 317.024939904 761.010742188 362 745.010742188 362 745.010742188 c 5
 348 655.010742188 l 5
 348 655.010742188 322.996582031 666.010742188 288 666.010742188 c 0
 221.819415118 666.010742188 194 633.178924979 194 557.010742188 c 2
EndSplineSet
Validated: 524289
EndChar

StartChar: uni018F
Encoding: 399 399 188
Width: 765
Flags: W
HStem: -9.99805 116.462<292.239 475.182> 325.123 110<189.108 628.108> 621.659 117.462<172.92 455.796>
VStem: 50 139<212.435 378.495> 584.26 45.8486<325.123 435.123>
LayerCount: 2
Back
SplineSet
35 364.561523438 m 0
 35 591.206054688 163.541887394 739.12109375 389.888671875 739.12109375 c 0
 653.541980974 739.12109375 740.108398438 551.971330386 740.108398438 365.891601562 c 0
 740.108398438 303.039520695 732 284 732 284 c 1
 162 284 l 1
 160 424 l 1
 562 424 l 1
 562 424 560.13712938 586.659179688 391 586.659179688 c 0
 261.796380576 586.659179688 205.848632812 497.743164062 205.848632812 364.561523438 c 4
 205.848632812 231.379882812 273.845797251 142.463867188 432.888671875 142.463867188 c 0
 580.720714467 142.463867188 659.018554688 179.595703125 659.018554688 179.595703125 c 1
 682.827148438 32.595703125 l 1
 682.827148438 32.595703125 604.343305548 -9.998046875 425.888671875 -9.998046875 c 0
 176.581210181 -9.998046875 35 137.916992188 35 364.561523438 c 0
EndSplineSet
Fore
SplineSet
715.108398438 364.561523438 m 0
 715.108398438 137.916992187 593.810579259 -9.998046875 380.219726562 -9.998046875 c 0
 131.622868549 -9.998046875 50 167.123046875 50 343.231445312 c 0
 50 413.758559965 58.1083984375 435.123046875 58.1083984375 435.123046875 c 1
 628.108398438 435.123046875 l 1
 630.108398438 325.123046875 l 1
 189.108398438 325.123046875 l 1
 189.108398438 325.123046875 189 319.615707205 189 300 c 0
 189 218.965546883 247.482010047 106.463867188 380.108398438 106.463867188 c 0
 522.570730483 106.463867188 584.259765625 209.79235621 584.259765625 364.561523438 c 0
 584.259765625 518.731037148 510.272718105 621.659179688 337.219726562 621.659179688 c 4
 202.462651397 621.659179688 131.08984375 584.52734375 131.08984375 584.52734375 c 5
 107.28125 696.52734375 l 5
 107.28125 696.52734375 179.655938361 739.12109375 344.219726562 739.12109375 c 4
 580.771256471 739.12109375 715.108398438 591.206054687 715.108398438 364.561523438 c 0
EndSplineSet
Validated: 524293
EndChar

StartChar: florin
Encoding: 402 402 190
Width: 398
Flags: W
HStem: -190.011 100<-31.4641 95.2538> 408 93.0107<34 362> 666.011 95<262.345 390.465>
VStem: 115 119<-70.5374 638.384>
LayerCount: 2
Fore
SplineSet
34 501.010742188 m 1
 362 501.010742188 l 1
 362 408 l 1
 34 408 l 1
 34 501.010742188 l 1
115 -6.0107421875 m 2
 115 570.010742188 l 2
 115 684.97265625 166.879159066 761.010742188 292 761.010742188 c 0
 357.024939904 761.010742188 402 745.010742188 402 745.010742188 c 1
 388 655.010742188 l 1
 388 655.010742188 362.996582031 666.010742188 328 666.010742188 c 0
 261.819415118 666.010742188 234 633.178924979 234 557.010742188 c 2
 234 -9.0107421875 l 2
 234 -117.95387015 185.051724138 -190.010742188 67 -190.010742188 c 0
 1.97505001905 -190.010742188 -43 -172.010742188 -43 -172.010742188 c 5
 -29 -78.0107421875 l 1
 -29 -78.0107421875 -2.74664776144 -90.0107421875 34 -90.0107421875 c 0
 91.0282714843 -90.0107421875 115 -64.7095373682 115 -6.0107421875 c 2
EndSplineSet
Validated: 524293
EndChar

StartChar: uni01B7
Encoding: 439 439 191
Width: 584
Flags: W
HStem: -9.99805 106.938<111.798 348.752> 621 110<50 371>
VStem: 406.827 128.084<147.877 289.971>
AnchorPoint: "Anchor-0" 289 731 basechar 0
LayerCount: 2
Fore
SplineSet
354 428 m 5
 354 428 534.911132812 427.716076326 534.911132812 219.670898438 c 0
 534.911132812 55.6855347586 421.016355364 -9.998046875 250 -9.998046875 c 0
 109.204711624 -9.998046875 25.451171875 40.9091796875 25.451171875 40.9091796875 c 1
 61.7744140625 140.262695312 l 1
 61.7744140625 140.262695312 132.329432712 96.939453125 243 96.939453125 c 0
 356.329053626 96.939453125 406.827148438 140.486932137 406.827148438 219 c 0
 406.827148438 298.863840609 354.146106019 337.439631647 253.138671875 337.737304688 c 2
 184 338 l 1
 184 398 l 1
 371 621 l 1
 50 621 l 1
 50 731 l 1
 514 731 l 1
 514 625 l 1
 354 428 l 5
EndSplineSet
Validated: 524289
EndChar

StartChar: uni0292
Encoding: 658 658 192
Width: 524
Flags: W
HStem: -189.994 97.9375<81.4007 313.566> 401.011 100<54 328>
VStem: 361.827 113.084<-46.8821 81.4918>
AnchorPoint: "Anchor-0" 260 501.011 basechar 0
LayerCount: 2
Fore
SplineSet
296 209 m 1
 296 209 474.911132812 208.739250292 474.911132812 17.6748046875 c 0
 474.911132812 -130.60239263 369.011464318 -189.994140625 210 -189.994140625 c 0
 100.555418183 -189.994140625 35.451171875 -159.086914062 35.451171875 -159.086914062 c 1
 57.7744140625 -60.7333984375 l 1
 57.7744140625 -60.7333984375 116.260465923 -92.056640625 208 -92.056640625 c 0
 314.411454516 -92.056640625 361.827148438 -53.1471649783 361.827148438 17.00390625 c 0
 361.827148438 88.7964327096 309.145432768 123.383314013 208.138671875 123.741210938 c 2
 144 124.00390625 l 1
 144 190.00390625 l 1
 328 401.010742188 l 5
 54 401.010742188 l 1
 54 501.010742188 l 1
 464 501.010742188 l 1
 464 405.010742188 l 1
 296 209 l 1
EndSplineSet
Validated: 524289
EndChar

StartChar: Oslash
Encoding: 216 216 193
Width: 797
Flags: W
HStem: -9.99805 117.462<296.741 501.036> 621.659 117.462<296.741 501.036>
VStem: 55 129.849<233.976 495.147> 612.929 129.849<233.976 495.147>
AnchorPoint: "Anchor-0" 399 731 basechar 0
AnchorPoint: "Anchor-2" 398 0 basechar 0
AnchorPoint: "Anchor-3" 451 20 basechar 0
LayerCount: 2
Fore
SplineSet
151.5 -91.4697265625 m 5
 536.5 801.403320312 l 5
 645.5 801.403320312 l 1
 260.5 -91.4697265625 l 1
 151.5 -91.4697265625 l 5
EndSplineSet
Refer: 1 79 N 1 0 0 1 0 0 2
Validated: 524293
EndChar

StartChar: oslash
Encoding: 248 248 194
Width: 589
Flags: W
HStem: -9.99805 102.462<222.019 366.641> 408.284 102.649<222.042 366.665>
VStem: 55 114.849<151.029 352.861> 419.929 114.849<151.029 352.861>
AnchorPoint: "Anchor-0" 294 501.011 basechar 0
AnchorPoint: "Anchor-2" 294 0 basechar 0
AnchorPoint: "Anchor-3" 377 28 basechar 0
LayerCount: 2
Fore
SplineSet
67.5 -91.4697265625 m 1
 428.5 581.403320312 l 1
 521.5 581.403320312 l 5
 160.5 -91.4697265625 l 5
 67.5 -91.4697265625 l 1
EndSplineSet
Refer: 29 111 N 1 0 0 1 0 0 2
Validated: 524293
EndChar

StartChar: ring
Encoding: 730 730 197
Width: 355
Flags: W
HStem: 480.07 76.8965<130.223 224.705> 683.918 77.084<129.835 226.881>
VStem: 35 82.9531<569.386 673.257> 237.824 82.9531<569.386 673.257>
LayerCount: 2
Fore
SplineSet
117.953125 622.396484375 m 0
 117.953125 583.161623568 135.636505123 556.966796875 176.99609375 556.966796875 c 4
 219.606441639 556.966796875 237.82421875 583.161623568 237.82421875 622.396484375 c 0
 237.82421875 659.28805548 219.636231988 683.91796875 177.094726562 683.91796875 c 0
 135.666296728 683.91796875 117.953125 659.28805548 117.953125 622.396484375 c 0
35 622.629882812 m 0
 35 706.358572334 88.6876465277 761.001953125 176.888671875 761.001953125 c 0
 266.332878716 761.001953125 320.77734375 706.358572334 320.77734375 622.629882812 c 0
 320.77734375 536.367848721 266.332878716 480.0703125 176.888671875 480.0703125 c 0
 88.6876465277 480.0703125 35 536.367848721 35 622.629882812 c 0
EndSplineSet
Validated: 524289
EndChar

StartChar: ogonek
Encoding: 731 731 198
Width: 307
VWidth: 999
Flags: W
HStem: -255 72<150.863 264.126>
VStem: 40 95<-168.603 -46.049>
LayerCount: 2
Fore
SplineSet
40 -130 m 0
 40 -30.5220125786 128 39 128 39 c 5
 218 39 l 1
 218 39 135 -29.3503184713 135 -108 c 0
 135 -161.921197385 159.643833705 -183 203 -183 c 0
 241.620592949 -183 259 -169 259 -169 c 1
 277 -232 l 1
 277 -232 244.426287616 -255 179 -255 c 0
 93.4086291417 -255 40 -210.528428819 40 -130 c 0
EndSplineSet
Validated: 524289
EndChar

StartChar: minute
Encoding: 8242 8242 203
Width: 235
Flags: W
HStem: 456 275.008<97 100>
VStem: 17 203
LayerCount: 2
Fore
SplineSet
17 456 m 5
 97 731.0078125 l 5
 220 731.0078125 l 5
 100 456 l 5
 17 456 l 5
EndSplineSet
Validated: 524289
EndChar

StartChar: bullet
Encoding: 8226 8226 206
Width: 325
Flags: W
HStem: 250 226.449<92.6443 232.581>
VStem: 50 225.227<292.876 433.573>
LayerCount: 2
Fore
SplineSet
50 363.224609375 m 0
 50 431.817406607 94.3894466578 476.44921875 162.612304688 476.44921875 c 0
 230.836094646 476.44921875 275.2265625 431.817406607 275.2265625 363.224609375 c 0
 275.2265625 294.630626073 230.836094646 250 162.612304688 250 c 4
 94.3894466578 250 50 294.630626073 50 363.224609375 c 0
EndSplineSet
Validated: 524289
EndChar

StartChar: dagger
Encoding: 8224 8224 207
Width: 530
Flags: W
HStem: 380.011 101<30 500>
VStem: 195.5 139<-171.47 37.6447> 205.5 119<526.741 759.47> 215.5 99<217.536 659.429>
LayerCount: 2
Fore
SplineSet
195.5 -171.469726562 m 1xc0
 215.5 427 l 1x90
 205.5 759.469726562 l 1
 324.5 759.469726562 l 1xa0
 314.5 426 l 5x90
 334.5 -171.469726562 l 1
 195.5 -171.469726562 l 1xc0
30 380.010742188 m 1
 30 481.010742188 l 1
 500 481.010742188 l 1
 500 380.010742188 l 1
 30 380.010742188 l 1
EndSplineSet
Validated: 524293
EndChar

StartChar: daggerdbl
Encoding: 8225 8225 208
Width: 530
Flags: W
HStem: 90.0107 101<30 500> 430.011 101<30 500>
VStem: 205.5 119<-171.47 43.7591 191 428.6 561.741 759.47> 215.5 99<-78.9288 263 365.4 674.429>
LayerCount: 2
Fore
SplineSet
30 90.0107421875 m 5xc0
 30 191.010742188 l 1
 500 191.010742188 l 1
 500 90.0107421875 l 5
 30 90.0107421875 l 5xc0
205.5 -171.469726562 m 1xe0
 215.5 137 l 1xd0
 205.5 317 l 1xe0
 215.5 477 l 1xd0
 205.5 759.469726562 l 1
 324.5 759.469726562 l 1xe0
 314.5 476 l 1xd0
 324.5 318 l 1xe0
 314.5 136 l 1xd0
 324.5 -171.469726562 l 1
 205.5 -171.469726562 l 1xe0
30 430.010742188 m 1
 30 531.010742188 l 1
 500 531.010742188 l 1
 500 430.010742188 l 1
 30 430.010742188 l 1
EndSplineSet
Validated: 524293
EndChar

StartChar: uni2116
Encoding: 8470 8470 209
Width: 1126
Flags: W
HStem: 0 21G<75 202 499 644> 239 99<738 1068> 378.061 116.526<859.989 957.413> 622.278 116.714<857.252 957.845> 711.008 20G<75 220.301 517 644>
VStem: 75 127<0 515.005> 517 127<228.6 731.008> 724.111 122.412<506.584 610.049> 969.477 122.412<507.03 609.635>
LayerCount: 2
Fore
SplineSet
738 338 m 1xe780
 1068 338 l 1
 1068 239 l 1
 738 239 l 1
 738 338 l 1xe780
846.5234375 560.844726562 m 0
 846.5234375 521.11328125 864.60546875 494.586914062 906.897460938 494.586914062 c 0
 950.734375 494.586914062 969.4765625 521.11328125 969.4765625 560.844726562 c 0
 969.4765625 597.68359375 950.771484375 622.278320312 907.020507812 622.278320312 c 0xf780
 864.642578125 622.278320312 846.5234375 597.68359375 846.5234375 560.844726562 c 0
724.111328125 560.620117188 m 0
 724.111328125 668.552734375 793.3125 738.9921875 907 738.9921875 c 0
 1021.93066406 738.9921875 1091.88867188 668.552734375 1091.88867188 560.620117188 c 0
 1091.88867188 450.154296875 1021.93066406 378.060546875 907 378.060546875 c 0
 793.3125 378.060546875 724.111328125 450.154296875 724.111328125 560.620117188 c 0
EndSplineSet
Refer: 11 78 S 1 0 0 1 0 0 2
EndChar

StartChar: uni20BF
Encoding: 8383 8383 210
Width: 640
Flags: W
HStem: -105 174.47<165 264 345 444> 0 111.46<199 425.892> 314.656 101.695<164 398.117> 619.649 111.358<199 398.096> 655 174.47<165 264 345 444>
VStem: 164 35<314.656 416.352> 165 99<-105 69.4697 655 829.47> 345 99<-105 69.4697 655 829.47> 441.929 124.849<455.534 578.151> 464.929 124.849<146.936 273.508>
LayerCount: 2
Fore
SplineSet
345 -105 m 5xa1
 345 69.4697265625 l 5
 444 69.4697265625 l 1
 444 -105 l 1
 345 -105 l 5xa1
345 655 m 5x29
 345 829.469726562 l 5
 444 829.469726562 l 1
 444 655 l 1
 345 655 l 5x29
165 -105 m 1xa2
 165 69.4697265625 l 1
 264 69.4697265625 l 1
 264 -105 l 1
 165 -105 l 1xa2
165 655 m 1x2a
 165 829.469726562 l 1
 264 829.469726562 l 1
 264 655 l 1
 165 655 l 1x2a
EndSplineSet
Refer: 19 66 N 1 0 0 1 0 0 2
Validated: 524293
EndChar

StartChar: uni20A6
Encoding: 8358 8358 211
Width: 874
Flags: W
HStem: 0 21G<151 310 549.719 730> 259 86<30 234 640 844> 389 86<30 234 640 844> 711.008 20G<151 331.609 571 730>
VStem: 151 159<0 259 345 389> 151 83<259 345 389 475> 571 159<345 389 475 731.008> 640 90<259 345 389 475>
LayerCount: 2
Fore
SplineSet
844 259 m 5xf1
 640 259 l 5
 640 345 l 5
 844 345 l 5
 844 259 l 5xf1
844 389 m 5
 640 389 l 5
 640 475 l 5
 844 475 l 5
 844 389 l 5
234 259 m 5xf4
 30 259 l 5
 30 345 l 5
 234 345 l 5
 234 259 l 5xf4
234 389 m 5
 30 389 l 5
 30 475 l 5
 234 475 l 5
 234 389 l 5
151 0 m 1xf9
 151 731.0078125 l 1
 320 731.0078125 l 1
 571 298.599609375 l 1
 571 731.0078125 l 1
 730 731.0078125 l 1xf6
 730 0 l 1
 561 0 l 1
 310 445.004882812 l 1
 310 0 l 1
 151 0 l 1xf9
EndSplineSet
Validated: 5
EndChar

StartChar: uni20BD
Encoding: 8381 8381 212
Width: 703
Flags: W
HStem: 0 21G<131 300> 158.352 86<30 544> 288.352 118<30 470.711> 584.649 146.358<300 464.456>
VStem: 131 169<0 584.649> 498.929 169.849<434.918 554.696>
LayerCount: 2
Fore
SplineSet
544 158.3515625 m 1
 30 158.3515625 l 1
 30 244.3515625 l 1
 544 244.3515625 l 1
 544 158.3515625 l 1
30 288.3515625 m 1
 30 406.3515625 l 1
 379.888671875 406.461914062 l 2
 448.0390625 406.55859375 498.928710938 422.302734375 498.928710938 494.561523438 c 0
 498.928710938 567.721679688 448.0390625 584.454101562 379.888671875 584.545898438 c 2
 300 584.649414062 l 1
 300 0 l 1
 131 0 l 1
 131 731.0078125 l 1
 384.888671875 731.0078125 l 2
 567.502929688 731.0078125 668.77734375 661.165039062 668.77734375 494.561523438 c 0
 668.77734375 361.174804688 577.397460938 288.3515625 423 288.3515625 c 2
 30 288.3515625 l 1
EndSplineSet
Validated: 524293
EndChar

StartChar: dong
Encoding: 8363 8363 213
Width: 645
Flags: W
HStem: 0 86<30 594> 150.002 125.649<234.579 351.383> 464.472 123.462<234.888 359.952> 619 81<301 615> 731.002 20G<386 545>
VStem: 51.0713 154.849<304.179 435.928> 386 159<355.374 751.002> 386 67.8486<387.374 504.496>
LayerCount: 2
Fore
SplineSet
594 0 m 1xfc
 30 0 l 1
 30 86 l 1
 594 86 l 1
 594 0 l 1xfc
615 619 m 1
 301 619 l 1
 301 700 l 1
 615 700 l 1
 615 619 l 1
545 160 m 1xfe
 386 160 l 1xfd
 386 751.001953125 l 1
 545 751.001953125 l 1
 545 160 l 1xfe
386 385.374023438 m 5xfe
 386 423.91015625 362.8359375 464.471679688 296.959960938 464.471679688 c 4
 236.688476562 464.471679688 205.919921875 425.599609375 205.919921875 367.374023438 c 4
 205.919921875 312.372070312 236.654296875 275.651367188 296.848632812 275.651367188 c 4
 362.801757812 275.651367188 386 307.568359375 386 355.374023438 c 5xfe
 448.848632812 367.374023438 l 5
 448.848632812 237.6953125 382.534179688 150.001953125 255 150.001953125 c 0
 115.463867188 150.001953125 51.0712890625 241.89453125 51.0712890625 367.374023438 c 0
 51.0712890625 496.59765625 121.975585938 587.93359375 259.959960938 587.93359375 c 0
 392.349609375 587.93359375 453.848632812 504.49609375 453.848632812 387.374023438 c 5xfd
 386 385.374023438 l 5xfe
EndSplineSet
Validated: 5
EndChar

StartChar: uni1E9E
Encoding: 7838 7838 220
Width: 743
Flags: W
HStem: -10 105.124<363.999 535.071> 0 21G<75 204> 621.008 110<247.048 501>
VStem: 75 129<0 579.187> 578 120<137.897 278.487>
LayerCount: 2
Fore
SplineSet
75 514 m 2x78
 75 666.672718851 160 731.0078125 350 731.0078125 c 2
 655 731.0078125 l 5
 655 641.0078125 l 5
 499 415 l 1
 570.14507772 415 698 377.183574879 698 209 c 0
 698 61.0789473684 612.56097561 -10 472 -10 c 0
 371.834101329 -10 315 26 315 26 c 1
 345 128 l 1
 345 128 388.874738457 95.1240234375 462.015625 95.1240234375 c 0xb8
 532.654212246 95.1240234375 578 133.984947999 578 212 c 0
 578 285.907216495 530.638297872 319 419 319 c 2
 341 319 l 1
 341 389 l 1
 501 621.0078125 l 5
 325 621.0078125 l 2
 233 621.0078125 204 579 204 481.0078125 c 2
 204 0 l 1
 75 0 l 1
 75 514 l 2x78
EndSplineSet
Validated: 524289
EndChar

StartChar: germandbls
Encoding: 223 223 221
Width: 725
Flags: W
HStem: -9.99805 92.9795<356.889 542.717> 0 21G<75 194> 415.904 96.0293<440.85 544.804> 657.011 104<262.438 482.283>
VStem: 75 119<0 589.789> 308.204 116.058<321.367 398.736> 546 110.618<511.653 594.393> 556.521 114.169<97.8902 178.168>
LayerCount: 2
Fore
SplineSet
460.846679688 206.568359375 m 0xbd
 341.291306557 235.395093448 308.204101562 281.158272312 308.204101562 355 c 0
 308.204101562 452.758904277 385.631656176 511.93359375 497 511.93359375 c 0
 536.366178018 511.93359375 546 510 546 510 c 1
 542.773578991 605.271283181 502.949887294 657.010742188 370 657.010742188 c 0
 226.35443038 657.010742188 194 593.120281995 194 467.010742188 c 2
 194 0 l 1
 75 0 l 1
 75 480.010742188 l 2
 75 651.613415948 147.66008604 761.010742188 361 761.010742188 c 0
 611.509571942 761.010742188 656.618164062 624.632474984 656.618164062 515 c 0x7e
 656.618164062 443.340700559 642.294921875 387.444335938 642.294921875 387.444335938 c 5
 642.294921875 387.444335938 591.545832388 415.904296875 516.743164062 415.904296875 c 0
 452.950679842 415.904296875 424.26171875 393.939332365 424.26171875 358.518554688 c 0
 424.26171875 329.911376365 443.222586752 313.411760947 506.037109375 296.086914062 c 0
 626 263 670.689453125 221.143308275 670.689453125 143.40234375 c 0
 670.689453125 48.8634365132 603.204802572 -9.998046875 476.856445312 -9.998046875 c 0
 369.224601994 -9.998046875 301 26.5625 301 26.5625 c 1
 324.314453125 118.861328125 l 1
 324.314453125 118.861328125 387.062673377 82.9814453125 463.993164062 82.9814453125 c 0
 526.677278829 82.9814453125 556.520507812 101.811891307 556.520507812 138.336914062 c 0
 556.520507812 169.612044724 540.074030519 187.465363717 460.846679688 206.568359375 c 0xbd
EndSplineSet
Validated: 524289
EndChar

StartChar: uni2113
Encoding: 8467 8467 222
Width: 619
Flags: W
HStem: -10 141.13<300.249 484.447> 630.872 130.13<322.27 413.674>
VStem: 83 169.229<140.621 505.723> 425.644 147.496<495.304 620.112>
LayerCount: 2
Fore
SplineSet
83 290.099609375 m 4
 83 600.148191607 181.647594244 761.001953125 367.400390625 761.001953125 c 4
 514.877449269 761.001953125 573.139648438 663.575664612 573.139648438 572.70703125 c 4
 573.139648438 226.065150067 19 166 19 166 c 1
 5 286 l 1
 5 286 425.643554688 352.479757309 425.643554688 568.001953125 c 4
 425.643554688 607.516601562 406.40000664 630.872070312 369.400390625 630.872070312 c 4
 286.827644919 630.872070312 252.229492188 498.74764872 252.229492188 305.875 c 4
 252.229492188 192.426677325 273.482421875 131.129882812 381 131.129882812 c 4
 463.722527242 131.129882812 520.958007812 171.424804688 520.958007812 171.424804688 c 5
 563 42 l 5
 563 42 502.068063888 -10 367.400390625 -10 c 4
 183.69140625 -10 83 88.8153053385 83 290.099609375 c 4
EndSplineSet
Validated: 5
EndChar

StartChar: uni20B8
Encoding: 8376 8376 223
Width: 614
Flags: W
HStem: 0 21G<242.5 371.5> 400 111<50 242.5 371.5 564> 400 81<242.5 371.5> 620 111<50 564>
VStem: 242.5 129<0 481>
LayerCount: 2
Fore
SplineSet
564 620 m 1x98
 50 620 l 1
 50 731 l 1
 564 731 l 1
 564 620 l 1x98
564 400 m 1xd8
 50 400 l 1
 50 511 l 1
 564 511 l 1
 564 400 l 1xd8
242.5 0 m 5
 242.5 481 l 5
 371.5 481 l 1xb8
 371.5 0 l 1
 242.5 0 l 5
EndSplineSet
EndChar

StartChar: uni20BC
Encoding: 8380 8380 224
Width: 839
Flags: W
HStem: 0 21G<55 224 335 504 611.777 780.777> 418.544 152.462<303.405 532.373> 711.008 20G<335 504>
VStem: 55 169<0 341.359> 335 169<0 731.008> 611.777 169<0 341.359>
LayerCount: 2
Fore
SplineSet
417.888671875 571.005859375 m 4
 688.89744862 571.005859375 780.77734375 442.835632237 780.77734375 246.446289062 c 6
 780.77734375 0 l 1
 611.77734375 0 l 1
 611.77734375 216.446289062 l 6
 611.77734375 337.634508782 585.044855789 418.543945312 417.888671875 418.543945312 c 4
 250.732487961 418.543945312 224 337.634508782 224 216.446289062 c 6
 224 0 l 1
 55 0 l 1
 55 246.446289062 l 6
 55 442.835632237 146.87989513 571.005859375 417.888671875 571.005859375 c 4
335 0 m 1
 335 731.0078125 l 1
 504 731.0078125 l 1
 504 0 l 1
 335 0 l 1
EndSplineSet
Validated: 5
EndChar

StartChar: Ohorn
Encoding: 416 416 225
Width: 797
Flags: W
HStem: -9.99805 117.462<296.741 501.036> 621.659 117.462<296.741 501.036>
VStem: 55 129.849<233.976 495.147> 593.16 116.76<672.574 813.507> 612.929 129.849<233.976 495.147>
AnchorPoint: "Anchor-0" 359 731 basechar 0
AnchorPoint: "Anchor-2" 398 0 basechar 0
AnchorPoint: "Anchor-3" 471 20 basechar 0
LayerCount: 2
Fore
SplineSet
563.080078125 825.799804688 m 5xf0
 687.759765625 825.799804688 l 5
 687.759765625 825.799804688 709.919921875 795.200195312 709.919921875 738.9921875 c 4
 709.919921875 645 627.599609375 592.639648438 627.599609375 592.639648438 c 5
 548.16015625 641.360351562 l 5
 548.16015625 641.360351562 593.16015625 688 593.16015625 733.729492188 c 4
 593.16015625 790.55078125 563.080078125 825.799804688 563.080078125 825.799804688 c 5xf0
EndSplineSet
Refer: 1 79 N 1 0 0 1 0 0 2
Validated: 524293
EndChar

StartChar: ohorn
Encoding: 417 417 226
Width: 589
Flags: W
HStem: -9.99805 102.462<222.019 366.641> 408.284 102.649<222.042 366.665>
VStem: 55 114.849<151.029 352.861> 419.16 110.76<462.574 603.507> 419.929 114.849<151.029 352.861>
AnchorPoint: "Anchor-0" 224 501.011 basechar 0
AnchorPoint: "Anchor-2" 294 0 basechar 0
AnchorPoint: "Anchor-3" 357 28 basechar 0
LayerCount: 2
Fore
SplineSet
389.080078125 615.799804688 m 5xf0
 507.759765625 615.799804688 l 5
 507.759765625 615.799804688 529.919921875 585.200195312 529.919921875 528.9921875 c 4
 529.919921875 435 447.599609375 382.639648438 447.599609375 382.639648438 c 5
 374.16015625 431.360351562 l 5
 374.16015625 431.360351562 419.16015625 478 419.16015625 523.729492188 c 4
 419.16015625 580.55078125 389.080078125 615.799804688 389.080078125 615.799804688 c 5xf0
EndSplineSet
Refer: 29 111 N 1 0 0 1 0 0 2
Validated: 524293
EndChar

StartChar: Uhorn
Encoding: 431 431 227
Width: 777
Flags: W
HStem: -9.99805 117.462<266.117 449.66> 661 164.8<618 702.142> 711.008 20G<75 204 511.777 640.777>
VStem: 75 129<177.48 731.008> 511.777 129<177.48 731.008> 617 120<737.954 815.378>
AnchorPoint: "Anchor-0" 342 731 basechar 0
AnchorPoint: "Anchor-2" 358 0.0117188 basechar 0
AnchorPoint: "Anchor-3" 451 18 basechar 0
LayerCount: 2
Fore
SplineSet
583.080078125 825.799804688 m 5xd4
 707.759765625 825.799804688 l 5
 707.759765625 825.799804688 737 800 737 752 c 4
 737 692 689 661 618 661 c 5
 544 731.0078125 l 5
 578 731.0078125 617 732.480474404 617 770 c 4
 617 804 583.080078125 825.799804688 583.080078125 825.799804688 c 5xd4
EndSplineSet
Refer: 6 85 N 1 0 0 1 0 0 2
Validated: 524293
EndChar

StartChar: uhorn
Encoding: 432 432 228
Width: 660
Flags: W
HStem: -9.92285 95.6494<231.452 354.844> 0 21G<401.777 520.777> 481.011 20G<75 194 401.777 520.777>
VStem: 75 119<125.594 501.011> 401.777 119<207.449 501.011> 500 120<509.138 596.83>
AnchorPoint: "Anchor-0" 272 501.011 basechar 0
AnchorPoint: "Anchor-2" 302 0.0117188 basechar 0
AnchorPoint: "Anchor-3" 454 0 basechar 0
LayerCount: 2
Fore
SplineSet
457.759765625 615.799804688 m 5x34
 582.439453125 615.799804688 l 5
 582.439453125 615.799804688 620 584.757147575 620 527.002929688 c 4
 620 463.70622639 572 431.002929688 501 431.002929688 c 5
 427 501.010742188 l 5
 461 501.010742188 500 502.672238349 500 545.002929688 c 4
 500 588.140961504 457.759765625 615.799804688 457.759765625 615.799804688 c 5x34
EndSplineSet
Refer: 50 117 N 1 0 0 1 0 0 2
Validated: 524293
EndChar

StartChar: integral
Encoding: 8747 8747 229
Width: 448
Flags: W
HStem: -190.011 139<-60.6385 76.258> 630.011 131<321.143 459.638>
LayerCount: 2
Fore
SplineSet
95 31.9892578125 m 2
 145 570.010742188 l 2
 155.684422554 684.979719828 202.741210938 761.010742188 342 761.010742188 c 0
 418.84765625 761.010742188 472 745.010742188 472 745.010742188 c 1
 458 619.010742188 l 1
 458 619.010742188 424.662109375 630.010742188 378 630.010742188 c 0
 325.900390625 630.010742188 308.809794327 608.573804077 304 557.010742188 c 2
 254 20.9892578125 l 2
 242.163173827 -105.906604899 196.25862069 -190.010742188 57 -190.010742188 c 0
 -19.8476681593 -190.010742188 -73 -174.010742188 -73 -174.010742188 c 1
 -59 -40.0107421875 l 1
 -59 -40.0107421875 -25.6624098558 -51.0107421875 21 -51.0107421875 c 0
 73.0999023437 -51.0107421875 89.5638968125 -26.5055483109 95 31.9892578125 c 2
EndSplineSet
Validated: 1
EndChar

StartChar: dotlessi
Encoding: 305 305 231
Width: 269
Flags: W
HStem: 0 21G<75 194> 481.011 20G<75 194>
VStem: 75 119<0 501.011>
AnchorPoint: "Anchor-2" 137 0 basechar 0
AnchorPoint: "Anchor-3" 141 0 basechar 0
AnchorPoint: "Anchor-0" 134 501.011 basechar 0
LayerCount: 2
Fore
SplineSet
75 0 m 1
 75 501.010742188 l 1
 194 501.010742188 l 5
 194 0 l 5
 75 0 l 1
EndSplineSet
Validated: 524289
EndChar

StartChar: uni0237
Encoding: 567 567 232
Width: 269
Flags: W
HStem: -190 100<-71.4641 55.2538> 481.011 20G<75 194>
VStem: 75 119<-70.5267 501.011>
AnchorPoint: "Anchor-2" 17 -179.988 basechar 0
AnchorPoint: "Anchor-0" 134 501.011 basechar 0
LayerCount: 2
Back
SplineSet
75 -6 m 6xe8
 75 501.010742188 l 5
 194 501.010742188 l 5
 194 -9 l 6
 194 -117.943127962 145.051724138 -190 27 -190 c 4
 -38.0249499809 -190 -83 -172 -83 -172 c 5
 -69 -78 l 5
 -69 -78 -42.7466477614 -90 -6 -90 c 4
 51.0282714843 -90 75 -64.6987951807 75 -6 c 6xe8
EndSplineSet
Fore
SplineSet
75 -6 m 6
 75 501.010742188 l 1
 194 501.010742188 l 1
 194 -9 l 2
 194 -117.943127962 145.051724138 -190 27 -190 c 0
 -38.0249499809 -190 -83 -172 -83 -172 c 1
 -69 -78 l 1
 -69 -78 -42.7466477614 -90 -6 -90 c 0
 51.0282714843 -90 75 -64.6987951807 75 -6 c 6
EndSplineSet
Validated: 524289
EndChar

StartChar: uni20B3
Encoding: 8371 8371 233
Width: 824
Flags: W
HStem: 0 21G<67.5 252.964 571.481 756.5> 139 86<30 794> 269 86<60 764> 711.008 20G<320.387 513.34>
LayerCount: 2
Fore
SplineSet
506.5 731.0078125 m 1
 756.5 0 l 1
 577.5 0 l 1
 417.893554688 530.313476562 l 1
 246.5 0 l 1
 67.5 0 l 1
 327.5 731.0078125 l 1
 506.5 731.0078125 l 1
764 269 m 1
 60 269 l 1
 60 355 l 1
 764 355 l 1
 764 269 l 1
794 139 m 1
 30 139 l 1
 30 225 l 1
 794 225 l 1
 794 139 l 1
EndSplineSet
Validated: 5
EndChar

StartChar: hookabovecomb
Encoding: 777 777 234
Width: 0
Flags: W
HStem: 508 60.0488<70.0436 179.089> 660.229 78.7637<16.6693 145.649>
VStem: 45.1816 89.9561<468 508.653> 153.854 100.774<575.164 649.488>
AnchorPoint: "Anchor-0" 103 427 mark 0
LayerCount: 2
Fore
SplineSet
133.645507812 508.653320312 m 5
 135.137695312 468 l 5
 45.181640625 468 l 5
 46.9150390625 572.46875 l 5
 46.9150390625 572.46875 67.4169840485 568.048828125 93.1572265625 568.048828125 c 4
 134.210951721 568.048828125 153.854492188 583.093944763 153.854492188 611.145507812 c 4
 153.854492188 645.186200174 127.833711651 660.228515625 89.6533203125 660.228515625 c 4
 49.1920308595 660.228515625 22.6826171875 640.958007812 22.6826171875 640.958007812 c 5
 0 715.311523438 l 5
 0 715.311523438 37.4070491068 738.9921875 101.653320312 738.9921875 c 4
 191.306379918 738.9921875 254.62890625 702.759765625 254.62890625 614.010742188 c 4
 254.62890625 542.430325419 206.177174839 508 152 508 c 4
 140.010797312 508 133.645507812 508.653320312 133.645507812 508.653320312 c 5
EndSplineSet
Validated: 524289
EndChar

StartChar: uni20B1
Encoding: 8369 8369 235
Width: 844
Flags: W
HStem: 0 21G<151 320> 224 142.352<260 500.464> 339 86<30 234 610 814> 469 86<30 234 610 814> 584.649 146.358<320 500.777>
VStem: 151 83<339 425 469 555> 260 60<224 366.352> 610 101.777<339 425 469 555>
LayerCount: 2
Fore
SplineSet
814 339 m 1xbf
 610 339 l 1
 610 425 l 1
 814 425 l 1
 814 339 l 1xbf
814 469 m 1
 610 469 l 1
 610 555 l 1
 814 555 l 1
 814 469 l 1
234 339 m 1
 30 339 l 1
 30 425 l 1
 234 425 l 1
 234 339 l 1
234 469 m 1
 30 469 l 1
 30 555 l 1
 234 555 l 1
 234 469 l 1
260 224 m 1xdf
 260 366.3515625 l 1
 402.888671875 366.461914062 l 2
 482.489257812 366.581054688 541.928710938 385.899414062 541.928710938 474.561523438 c 0
 541.928710938 563.982421875 482.489257812 584.43359375 402.888671875 584.545898438 c 2
 320 584.649414062 l 1
 320 0 l 1
 151 0 l 1
 151 731.0078125 l 1
 424.888671875 731.0078125 l 2
 575.834960938 731.0078125 711.77734375 661.165039062 711.77734375 474.561523438 c 0
 711.77734375 291.297851562 574.951171875 224 424.888671875 224 c 2
 260 224 l 1xdf
EndSplineSet
Validated: 524293
EndChar

StartChar: uni20A9
Encoding: 8361 8361 236
Width: 1114
Flags: W
HStem: 0 21G<250.197 481.204 642.084 872.967> 259 86<50 264 850 1064> 389 86<30 264 850 1084> 711.008 20G<115 292.206 836.728 1014>
LayerCount: 2
Fore
SplineSet
1064 259 m 5
 850 259 l 1
 850 345 l 1
 1064 345 l 5
 1064 259 l 5
1084 389 m 5
 850 389 l 1
 850 475 l 1
 1084 475 l 5
 1084 389 l 5
264 259 m 1
 50 259 l 1
 50 345 l 1
 264 345 l 1
 264 259 l 1
264 389 m 1
 30 389 l 1
 30 475 l 1
 264 475 l 1
 264 389 l 1
254 0 m 1
 115 731.0078125 l 1
 289 731.0078125 l 1
 375.606445312 190.694335938 l 1
 485 671.0078125 l 1
 644 671.0078125 l 1
 751.606445312 190.694335938 l 1
 840 731.0078125 l 1
 1014 731.0078125 l 1
 869 0 l 1
 646 0 l 1
 564.5 416.271484375 l 1
 477 0 l 1
 254 0 l 1
EndSplineSet
Validated: 5
EndChar

StartChar: franc
Encoding: 8355 8355 237
Width: 584
Flags: W
HStem: 0 21G<95 264> 109 111<30 384> 315 146<180 494> 585.008 146<264 554>
VStem: 95 169<0 315 461 585.008> 180 84<315 461>
LayerCount: 2
Fore
SplineSet
384 109 m 1xf0
 30 109 l 1
 30 220 l 1
 384 220 l 1
 384 109 l 1xf0
494 315 m 5
 180 315 l 5
 180 461 l 5xf4
 494 461 l 5
 494 315 l 5
264 585.0078125 m 1xf8
 264 0 l 1
 95 0 l 1
 95 731.0078125 l 1
 554 731.0078125 l 1
 554 585.0078125 l 1
 264 585.0078125 l 1xf8
EndSplineSet
Validated: 5
EndChar

StartChar: peseta
Encoding: 8359 8359 238
Width: 844
Flags: W
HStem: 0 21G<151 320> 224 142.352<260 500.464> 429 86<30 814> 584.649 146.358<320 500.777>
VStem: 151 169<0 224 366.352 584.649> 260 60<224 366.352> 541.929 169.849<403.745 546.498>
LayerCount: 2
Fore
SplineSet
814 429 m 1xf2
 629 429 l 1
 585 429 l 1
 265 429 l 1
 209 429 l 1
 30 429 l 1
 30 515 l 1
 211 515 l 1
 267 515 l 1
 583 515 l 1
 627 515 l 1
 814 515 l 1
 814 429 l 1xf2
260 224 m 1xf6
 260 366.3515625 l 1xf6
 402.888671875 366.461914062 l 6
 482.489302389 366.520911526 541.928710938 385.899414062 541.928710938 474.561523438 c 4
 541.928710938 563.982421875 482.489280644 584.45319926 402.888671875 584.545898438 c 6
 320 584.649414062 l 1
 320 0 l 1
 151 0 l 1
 151 731.0078125 l 1xfa
 424.888671875 731.0078125 l 2
 575.834960938 731.0078125 711.77734375 661.165039062 711.77734375 474.561523438 c 0
 711.77734375 291.297851562 574.951171875 224 424.888671875 224 c 2
 260 224 l 1xf6
EndSplineSet
Validated: 524293
EndChar

StartChar: uni20BE
Encoding: 8382 8382 239
Width: 781
Flags: W
HStem: 0 146<459 744> 50.002 95.998<182.093 405.889> 719.121 20G<300.802 518.691>
VStem: 55 174.849<267.322 490.177> 309 86<388 812> 439 86<388 812> 598.355 158.326<410.892 505.984>
LayerCount: 2
Fore
SplineSet
525 812 m 1x3e
 525 388 l 1
 439 388 l 1
 439 812 l 1
 525 812 l 1x3e
395 812 m 1
 395 388 l 1
 309 388 l 1
 309 812 l 1
 395 812 l 1
744 0 m 1xbe
 30 0 l 1xbe
 30 146 l 1x7e
 744 146 l 1
 744 0 l 1xbe
405.888671875 50.001953125 m 1x7e
 182.092773438 50.001953125 55 186.069705082 55 394.561523438 c 0
 55 603.05352116 185.714798987 739.12109375 415.888671875 739.12109375 c 0
 621.493441908 739.12109375 756.681640625 606.973940289 756.681640625 410.891601562 c 1
 598.35546875 393.138671875 l 1
 598.35546875 521.238934069 545.748011376 586.659179688 422.888671875 586.659179688 c 0
 287.663085938 586.659179688 229.848632812 505.750514333 229.848632812 384.561523438 c 0
 229.848632812 241.507720665 298.478970638 146 459 146 c 1xbe
 405.888671875 50.001953125 l 1x7e
EndSplineSet
Validated: 5
EndChar

StartChar: uni030F
Encoding: 783 783 251
Width: 0
Flags: W
HStem: 516 225.008
AnchorPoint: "Anchor-0" 255 480 mark 0
LayerCount: 2
Fore
SplineSet
136 516 m 1
 20 711.0078125 l 1
 126 741.0078125 l 1
 204 536 l 1
 136 516 l 1
326 516 m 1
 210 711.0078125 l 1
 316 741.0078125 l 1
 394 536 l 5
 326 516 l 1
EndSplineSet
Validated: 524289
EndChar

StartChar: uni0326
Encoding: 806 806 254
Width: 0
Flags: W
HStem: -232 232.449
VStem: 20 145.227<-128.151 -22.2969>
AnchorPoint: "Anchor-2" 82 48 mark 0
LayerCount: 2
Fore
SplineSet
20 -73.232421875 m 4
 20 -28.5952258413 47.8785247594 0.44921875 90.7255859375 0.44921875 c 4
 135.859768609 0.44921875 165.2265625 -32.8903979908 165.2265625 -93.232421875 c 4
 165.2265625 -170.941685214 78.11328125 -232 78.11328125 -232 c 5
 32.11328125 -199 l 5
 32.11328125 -199 66.6708984375 -172.53125 82.11328125 -146 c 5
 44.1702120243 -142.251466054 20 -114.425942309 20 -73.232421875 c 4
EndSplineSet
Validated: 524289
EndChar

StartChar: uni031B
Encoding: 795 795 258
Width: 0
Flags: W
HStem: 497.848 233.16
VStem: 65 96.7598<577.782 718.715>
LayerCount: 2
Fore
SplineSet
34.919921875 731.0078125 m 1
 139.599609375 731.0078125 l 5
 139.599609375 731.0078125 161.759765625 700.408203124 161.759765625 644.200195312 c 4
 161.759765625 550.208007812 79.439453125 497.84765625 79.439453125 497.84765625 c 5
 20 546.568359375 l 1
 20 546.568359375 65 593.208007812 65 638.9375 c 0
 65 695.758789062 34.919921875 731.0078125 34.919921875 731.0078125 c 1
EndSplineSet
Validated: 524289
EndChar

StartChar: dcaron
Encoding: 271 271 406
Width: 763
Flags: W
HStem: -9.99805 100.649<225.11 354.033> 0 21G<413 532> 409.472 101.462<223.514 363.69> 731 20G<645.343 778> 731.002 20G<413 532>
VStem: 58.0713 114.849<146.001 351.712> 413 42.8486<75.1885 217.374 317.374 434.496> 413 119<217.374 751.002>
LayerCount: 2
Fore
SplineSet
651 751 m 25x34
 778 751 l 29
 683 553 l 29
 595 553 l 25
 651 751 l 25x34
EndSplineSet
Refer: 44 100 N 1 0 0 1 0 0 2
Validated: 524293
EndChar

StartChar: tcaron
Encoding: 357 357 407
Width: 463
Flags: W
HStem: -10 98<255.166 359.945> 409 92.0107<34 362> 731 20G<355.343 488>
VStem: 115 119<109.473 651.011>
LayerCount: 2
Fore
SplineSet
361 751 m 25
 488 751 l 29
 393 553 l 29
 305 553 l 25
 361 751 l 25
EndSplineSet
Refer: 41 116 N 1 0 0 1 0 0 2
Validated: 524293
EndChar

StartChar: dcroat
Encoding: 273 273 409
Width: 622
Flags: W
HStem: -9.99805 100.649<225.11 354.033> 0 21G<413 532> 409.472 101.462<223.514 363.69> 565 91<308 602> 731.002 20G<413 532>
VStem: 58.0713 114.849<146.001 351.712> 413 42.8486<75.1885 217.374 317.374 434.496> 413 119<217.374 751.002>
LayerCount: 2
Fore
SplineSet
602 565 m 5x3c
 308 565 l 1
 308 656 l 1
 602 656 l 5
 602 565 l 5x3c
EndSplineSet
Refer: 44 100 N 1 0 0 1 0 0 2
Validated: 524293
EndChar

StartChar: Tbar
Encoding: 358 358 410
Width: 614
Flags: W
HStem: 0 21G<242.5 371.5> 260 101<125 489> 620 81<242.5 371.5> 620 111<50 242.5 371.5 564>
VStem: 242.5 129<0 701>
LayerCount: 2
Fore
SplineSet
489 260 m 5xc8
 125 260 l 5
 125 361 l 5
 489 361 l 5
 489 260 l 5xc8
EndSplineSet
Refer: 17 84 N 1 0 0 1 0 0 2
Validated: 524293
EndChar

StartChar: tbar
Encoding: 359 359 411
Width: 412
Flags: W
HStem: -10 98<255.166 359.945> 219 91<49 333> 409 92.0107<34 362>
VStem: 115 119<109.473 651.011>
LayerCount: 2
Fore
SplineSet
333 219 m 5
 49 219 l 1
 49 310 l 1
 333 310 l 5
 333 219 l 5
EndSplineSet
Refer: 41 116 N 1 0 0 1 0 0 2
Validated: 524293
EndChar

StartChar: Hbar
Encoding: 294 294 412
Width: 859
Flags: W
HStem: 0 21G<145 274 585 714> 305 106<210 634> 521.011 101<50 809> 711.008 20G<145 274 585 714>
VStem: 145 129<0 305 411 731.008> 210 64<305 411> 585 49<305 411> 585 129<0 305 411 731.008>
LayerCount: 2
Fore
SplineSet
809 521.010742188 m 5xf0
 50 518 l 5
 50 619 l 5
 809 622.010742188 l 5
 809 521.010742188 l 5xf0
EndSplineSet
Refer: 2 72 N 1 0 0 1 70 0 2
Validated: 524293
EndChar

StartChar: hbar
Encoding: 295 295 413
Width: 637
Flags: W
HStem: 0 21G<117 236 443.777 562.777> 415.284 95.6494<282.933 406.325> 565 91<40 354> 731.002 20G<117 236>
VStem: 117 119<0 751.002> 443.777 119<0 375.417>
LayerCount: 2
Fore
SplineSet
354 565 m 1
 40 565 l 1
 40 656 l 5
 354 656 l 5
 354 565 l 1
EndSplineSet
Refer: 36 104 N 1 0 0 1 42 0 2
Validated: 524293
EndChar

StartChar: Lslash
Encoding: 321 321 429
Width: 612
Flags: W
HStem: 0 111<248 588> 711.008 20G<119 248>
VStem: 119 129<111 731.008>
LayerCount: 2
Fore
SplineSet
422 387 m 5
 28 298 l 5
 22 395 l 1
 416 484 l 1
 422 387 l 5
EndSplineSet
Refer: 7 76 N 1 0 0 1 44 0 2
EndChar

StartChar: lslash
Encoding: 322 322 430
Width: 425
Flags: W
HStem: -10.0088 104<257.085 367.088> 484 20G<273.191 347.237> 731.002 20G<119 238>
VStem: 119 119<115.425 751.002>
LayerCount: 2
Fore
SplineSet
352 407 m 1
 28 318 l 1
 22 415 l 5
 346 504 l 5
 352 407 l 1
EndSplineSet
Refer: 35 108 N 1 0 0 1 44 0 2
EndChar

StartChar: guilsinglleft
Encoding: 8249 8249 530
Width: 340
Flags: W
VStem: 45 270
LayerCount: 2
Fore
SplineSet
45 281 m 1
 185 441 l 1
 315 441 l 5
 161.75 254 l 5
 315 67 l 5
 185 67 l 1
 45 227 l 1
 45 281 l 1
EndSplineSet
Validated: 524289
EndChar

StartChar: guilsinglright
Encoding: 8250 8250 531
Width: 340
Flags: W
VStem: 25 270
LayerCount: 2
Fore
SplineSet
295 227 m 1
 155 67 l 1
 25 67 l 5
 178.25 254 l 5
 25 441 l 5
 155 441 l 1
 295 281 l 1
 295 227 l 1
EndSplineSet
Validated: 524289
EndChar

StartChar: uni20AE
Encoding: 8366 8366 532
Width: 614
Flags: W
HStem: 0 21G<242.5 371.5> 620 111<50 242.5 371.5 564> 620 81<242.5 371.5>
VStem: 242.5 129<0 701>
LayerCount: 2
Fore
SplineSet
564 620 m 5xd0
 50 620 l 5
 50 731 l 1
 564 731 l 1
 564 620 l 5xd0
242.5 0 m 1
 242.5 701 l 1
 371.5 701 l 1xb0
 371.5 0 l 1
 242.5 0 l 1
494 255 m 1
 120 145 l 1
 120 231 l 1
 494 341 l 1
 494 255 l 1
494 385 m 1
 120 275 l 1
 120 361 l 1
 494 471 l 1
 494 385 l 1
EndSplineSet
EndChar

StartChar: estimated
Encoding: 8494 8494 533
Width: 765
Flags: W
HStem: -9.99805 119.462<307.733 612.88> 294 110<132 563> 362 42<563 613> 616.659 122.462<289.664 504.802>
VStem: 129.849 90<294 604.562> 132 37.8486<296.776 399.048> 563 90<362 404 418.734 624> 613.598 39.4023<404.004 486.906>
LayerCount: 2
Fore
SplineSet
563 624 m 1xb2
 653 624 l 1
 653 362 l 1
 563 362 l 1
 563 624 l 1xb2
129.848632812 604.561523438 m 1x98
 219.848632812 604.561523438 l 1
 219.848632812 132.561523438 l 1
 129.848632812 132.561523438 l 1
 129.848632812 604.561523438 l 1x98
35 364.561523438 m 0
 35 591.206054688 163.541887394 739.12109375 389.888671875 739.12109375 c 4
 633.541980974 739.12109375 740.108398438 587.014334807 740.108398438 395.891601562 c 4
 740.108398438 317.689453126 732 294 732 294 c 1
 132 294 l 1xd5
 130 404 l 1
 613 404 l 1
 613 404 613.597710941 409.501200731 613.597710941 418.734006035 c 4
 613.597710941 486.905840857 577.326861447 616.659179688 395 616.659179688 c 4
 237.883301373 616.659179688 169.848632812 515.732769563 169.848632812 364.561523438 c 0xb5
 169.848632812 211.59131676 248.927080951 109.463867188 433.888671875 109.463867188 c 0
 581.720714467 109.463867188 660.018554688 146.595703125 660.018554688 146.595703125 c 1
 682.827148438 32.595703125 l 1
 682.827148438 32.595703125 604.343305548 -9.998046875 425.888671875 -9.998046875 c 0
 176.581210181 -9.998046875 35 137.916992188 35 364.561523438 c 0
EndSplineSet
Validated: 524293
EndChar

StartChar: Omega
Encoding: 8486 8486 534
Width: 837
Flags: W
HStem: 0 141<30 152.328 325.825 384 453 511.489 685.166 807> 586.659 152.462<319.632 518.145>
VStem: 55 164.849<255.749 479.42> 453 354<0 141> 617.929 164.849<254.333 481.91>
LayerCount: 2
Fore
SplineSet
384 0 m 1xe8
 30 0 l 1
 30 141 l 1
 152.328125 141 l 1
 152.328125 141 55 209.322694099 55 384.561523438 c 0
 55 599.104132899 192.688476562 739.12109375 418.888671875 739.12109375 c 0
 645.088867188 739.12109375 782.77734375 599.104132899 782.77734375 384.561523438 c 0xe8
 782.77734375 209.322694099 685.166015625 141 685.166015625 141 c 5
 807 141 l 1
 807 0 l 1
 453 0 l 1
 453 141 l 1xf0
 548.533526173 161 617.928710938 230.502069705 617.928710938 364.561523438 c 0
 617.928710938 497.743164062 558.317382812 586.659179688 418.888671875 586.659179688 c 0
 279.459960938 586.659179688 219.848632812 497.743164062 219.848632812 364.561523438 c 0
 219.848632812 230.502069705 289.011007668 161 384 141 c 1
 384 0 l 1xe8
EndSplineSet
Validated: 1
EndChar

StartChar: uni2E3A
Encoding: 11834 11834 536
Width: 1080
Flags: W
HStem: 228 103<50 1030>
LayerCount: 2
Fore
SplineSet
50 228 m 1
 50 331 l 1
 1030 331 l 5
 1030 228 l 5
 50 228 l 1
EndSplineSet
Validated: 1
EndChar

StartChar: uni2E3B
Encoding: 11835 11835 537
Width: 1380
Flags: W
HStem: 228 103<50 1330>
LayerCount: 2
Fore
SplineSet
50 228 m 5
 50 331 l 1
 1330 331 l 1
 1330 228 l 5
 50 228 l 5
EndSplineSet
Validated: 1
EndChar

StartChar: pi
Encoding: 960 960 538
Width: 672
Flags: W
HStem: -10 99<527.758 630.394> 0 21G<81 210> 403 98.0107<34 130 249 395 514 622> 403 78.0107<130 249>
VStem: 130 119<120.725 481.011> 395 119<102.873 441.011>
LayerCount: 2
Fore
SplineSet
81 0 m 1x5c
 81 0 130 155.741721854 130 351 c 2
 130 481.010742188 l 1
 249 481.010742188 l 1
 249 329 l 2
 249 141 210 0 210 0 c 1
 81 0 l 1x5c
34 501.010742188 m 1x2c
 622 501.010742188 l 1
 622 403 l 1
 34 403 l 1
 34 501.010742188 l 1x2c
514 162 m 6
 514 110.987968014 532.940972223 89 578 89 c 4
 607.163411458 89 628 100 628 100 c 5
 642 6 l 1
 642 6 605.201953125 -10 552 -10 c 0x8c
 424.225967162 -10 395 58.076171875 395 161 c 2
 395 441.010742188 l 1
 514 461.010742188 l 1
 514 162 l 6
EndSplineSet
Validated: 524293
EndChar

StartChar: radical
Encoding: 8730 8730 539
Width: 686
Flags: W
HStem: 0 21G<253.278 465.074> 481.011 20G<5 264.687> 711.008 20G<506.713 681>
LayerCount: 2
Fore
SplineSet
259 501.010742188 m 1
 358.606445312 150.694335938 l 1
 512 731.0078125 l 1
 681 731.0078125 l 1
 459 0 l 1
 260 0 l 5
 142.35546875 350.010742188 l 1
 15 340.010742188 l 1
 5 481.010742188 l 1
 259 501.010742188 l 1
EndSplineSet
Validated: 1
EndChar

StartChar: .notdef
Encoding: 65536 -1 681
Width: 639
Flags: W
HStem: 0 90<209 465> 50 40<174 209> 641.008 90<174 430> 641.008 39.9922<430 465>
VStem: 75 99<90 641.008>
LayerCount: 2
Fore
SplineSet
174 641.0078125 m 1x28
 174 90 l 1x68
 465 90 l 1
 465 641.0078125 l 1x98
 174 641.0078125 l 1x28
564 0 m 1xa8
 75 0 l 1
 75 731.0078125 l 1
 564 731.0078125 l 1
 564 0 l 1xa8
110 50 m 5x58
 430 681 l 5
 529 681 l 5
 209 50 l 5
 110 50 l 5x58
EndSplineSet
Validated: 524293
EndChar

StartChar: R.ss01
Encoding: 65537 -1 682
Width: 663
Flags: W
HStem: 0 21G<55 224 444.387 641> 256 140.352<164 382.191> 584.649 146.358<224 403.454>
VStem: 55 169<0 256 396.352 584.649> 164 60<256 396.352> 436.929 173.849<429.006 553.825>
AnchorPoint: "Anchor-2" 342 0.0117188 basechar 0
AnchorPoint: "Anchor-0" 325 731 basechar 0
LayerCount: 2
Fore
SplineSet
305 310 m 1xe4
 452 338 l 1
 641 0 l 1
 454 0 l 1
 305 310 l 1xe4
334 256 m 2
 164 256 l 1
 164 396.3515625 l 1xec
 308.888671875 396.461914062 l 6
 382.191398959 396.514139124 436.928710938 413.202148438 436.928710938 489.561523438 c 4
 436.928710938 566.786132812 382.191383998 584.465931295 308.888671875 584.545898438 c 6
 224 584.649414062 l 1
 224 0 l 1
 55 0 l 1
 55 731.0078125 l 1xf4
 328.888671875 731.0078125 l 2
 477.204101562 731.0078125 610.77734375 666.611451897 610.77734375 494.561523438 c 0
 610.77734375 310.447579655 483.943812572 256 334 256 c 2
EndSplineSet
Validated: 524293
EndChar

